G04 #@! TF.FileFunction,Profile,NP*
%FSLAX46Y46*%
G04 Gerber Fmt 4.6, Leading zero omitted, Abs format (unit mm)*
G04 Created by KiCad (PCBNEW 4.0.7) date 04/20/18 23:23:33*
%MOMM*%
%LPD*%
G01*
G04 APERTURE LIST*
%ADD10C,0.127000*%
%ADD11C,0.100000*%
G04 APERTURE END LIST*
D10*
D11*
X173491028Y-107991203D02*
X173438589Y-108157645D01*
X110562706Y-109473039D02*
X110388219Y-109465497D01*
X110562706Y-109473039D02*
X171906415Y-109443605D01*
X110559600Y-79474000D02*
X171559600Y-79474000D01*
X172404432Y-109286552D02*
X172243213Y-109353344D01*
X173091341Y-108759345D02*
X172973464Y-108888023D01*
X172559600Y-79741949D02*
X172706753Y-79835696D01*
X109559600Y-79741949D02*
X109412447Y-79835696D01*
X173372216Y-80628763D02*
X173438985Y-80789960D01*
X108922905Y-108619424D02*
X108829141Y-108472078D01*
X172706753Y-79835696D02*
X172845175Y-79941911D01*
X172243213Y-109353344D02*
X172076785Y-109405828D01*
X172973814Y-80059786D02*
X173091689Y-80188425D01*
X108921296Y-80326847D02*
X108827549Y-80474000D01*
X173197904Y-80326847D02*
X173291651Y-80474000D01*
X108829141Y-108472078D02*
X108748589Y-108317114D01*
X173291651Y-80474000D02*
X173372216Y-80628763D01*
X172076785Y-109405828D02*
X171906415Y-109443605D01*
X172404837Y-79661384D02*
X172559600Y-79741949D01*
X172845175Y-79941911D02*
X172973814Y-80059786D01*
X108627748Y-80956362D02*
X108589984Y-81126704D01*
X108681864Y-108155713D02*
X108629474Y-107989106D01*
X109274025Y-79941911D02*
X109145386Y-80059786D01*
X108827549Y-80474000D02*
X108746984Y-80628763D01*
X110044535Y-109405005D02*
X109877959Y-109352517D01*
X108748589Y-108317114D02*
X108681864Y-108155713D01*
X173438985Y-80789960D02*
X173491452Y-80956362D01*
X173559060Y-107473460D02*
X173551989Y-81299689D01*
X173528759Y-107820823D02*
X173491028Y-107991203D01*
X171733911Y-79481611D02*
X171906896Y-79504384D01*
X173559060Y-107473460D02*
X173551493Y-107647803D01*
X172077238Y-79542148D02*
X172243640Y-79594615D01*
X172844819Y-109005935D02*
X172706385Y-109112184D01*
X172706385Y-109112184D02*
X172559216Y-109205961D01*
X110388219Y-109465497D02*
X110215055Y-109442761D01*
X110385289Y-79481611D02*
X110212304Y-79504384D01*
X108589984Y-81126704D02*
X108591819Y-107818564D01*
X109275849Y-109004858D02*
X109147114Y-108886834D01*
X171906896Y-79504384D02*
X172077238Y-79542148D01*
X173551493Y-107647803D02*
X173528759Y-107820823D01*
X109029166Y-108758029D02*
X108922905Y-108619424D01*
X171559600Y-79474000D02*
X171733911Y-79481611D01*
X109147114Y-108886834D02*
X109029166Y-108758029D01*
X173491452Y-80956362D02*
X173551989Y-81299689D01*
X172973464Y-108888023D02*
X172844819Y-109005935D01*
X173197553Y-108620882D02*
X173091341Y-108759345D01*
X173438589Y-108157645D02*
X173371840Y-108318883D01*
X109877959Y-109352517D02*
X109716598Y-109285696D01*
X173371840Y-108318883D02*
X173291291Y-108473688D01*
X108680215Y-80789960D02*
X108627748Y-80956362D01*
X110559600Y-79474000D02*
X110385289Y-79481611D01*
X108746984Y-80628763D02*
X108680215Y-80789960D01*
X172243640Y-79594615D02*
X172404837Y-79661384D01*
X109027511Y-80188425D02*
X108921296Y-80326847D01*
X108629474Y-107989106D02*
X108591819Y-107818564D01*
X173091689Y-80188425D02*
X173197904Y-80326847D01*
X110041962Y-79542148D02*
X109875560Y-79594615D01*
X109414391Y-109111201D02*
X109275849Y-109004858D01*
X172559216Y-109205961D02*
X172404432Y-109286552D01*
X109145386Y-80059786D02*
X109027511Y-80188425D01*
X173291291Y-108473688D02*
X173197553Y-108620882D01*
X110212304Y-79504384D02*
X110041962Y-79542148D01*
X171320415Y-82526358D02*
X171205529Y-82249000D01*
X169213671Y-82249000D02*
X169098785Y-82526358D01*
X170209600Y-81674000D02*
X169911958Y-81713185D01*
X169396427Y-82010827D02*
X169213671Y-82249000D01*
X171022773Y-82010827D02*
X170784600Y-81828071D01*
X169634600Y-81828071D02*
X169396427Y-82010827D01*
X169911958Y-81713185D02*
X169634600Y-81828071D01*
X170507242Y-81713185D02*
X170209600Y-81674000D01*
X171205529Y-82249000D02*
X171022773Y-82010827D01*
X169059600Y-82824000D02*
X169098785Y-83121642D01*
X169098785Y-82526358D02*
X169059600Y-82824000D01*
X170784600Y-81828071D02*
X170507242Y-81713185D01*
X171359600Y-82824000D02*
X171320415Y-82526358D01*
X112722773Y-105310827D02*
X112484600Y-105128071D01*
X112905529Y-105549000D02*
X112722773Y-105310827D01*
X113020415Y-105826358D02*
X112905529Y-105549000D01*
X113059600Y-106124000D02*
X113020415Y-105826358D01*
X109412447Y-79835696D02*
X109274025Y-79941911D01*
X109875560Y-79594615D02*
X109714363Y-79661384D01*
X109714363Y-79661384D02*
X109559600Y-79741949D01*
X112207242Y-105013185D02*
X111909600Y-104974000D01*
X112484600Y-105128071D02*
X112207242Y-105013185D01*
X169396427Y-83637173D02*
X169634600Y-83819929D01*
X170507242Y-83934815D02*
X170784600Y-83819929D01*
X170209600Y-83974000D02*
X170507242Y-83934815D01*
X169911958Y-105013185D02*
X169634600Y-105128071D01*
X170507242Y-105013185D02*
X170209600Y-104974000D01*
X171205529Y-105549000D02*
X171022773Y-105310827D01*
X171022773Y-105310827D02*
X170784600Y-105128071D01*
X170784600Y-83819929D02*
X171022773Y-83637173D01*
X169213671Y-83399000D02*
X169396427Y-83637173D01*
X169098785Y-106421642D02*
X169213671Y-106699000D01*
X171205529Y-83399000D02*
X171320415Y-83121642D01*
X169634600Y-83819929D02*
X169911958Y-83934815D01*
X171022773Y-83637173D02*
X171205529Y-83399000D01*
X169098785Y-83121642D02*
X169213671Y-83399000D01*
X169059600Y-106124000D02*
X169098785Y-106421642D01*
X169098785Y-105826358D02*
X169059600Y-106124000D01*
X169213671Y-105549000D02*
X169098785Y-105826358D01*
X169396427Y-105310827D02*
X169213671Y-105549000D01*
X169634600Y-105128071D02*
X169396427Y-105310827D01*
X170209600Y-104974000D02*
X169911958Y-105013185D01*
X170784600Y-105128071D02*
X170507242Y-105013185D01*
X171320415Y-83121642D02*
X171359600Y-82824000D01*
X171320415Y-105826358D02*
X171205529Y-105549000D01*
X171359600Y-106124000D02*
X171320415Y-105826358D01*
X169911958Y-83934815D02*
X170209600Y-83974000D01*
X111334600Y-81828071D02*
X111096427Y-82010827D01*
X113020415Y-82526358D02*
X112905529Y-82249000D01*
X113059600Y-82824000D02*
X113020415Y-82526358D01*
X111611958Y-81713185D02*
X111334600Y-81828071D01*
X112484600Y-81828071D02*
X112207242Y-81713185D01*
X111909600Y-81674000D02*
X111611958Y-81713185D01*
X112207242Y-81713185D02*
X111909600Y-81674000D01*
X112722773Y-82010827D02*
X112484600Y-81828071D01*
X112905529Y-82249000D02*
X112722773Y-82010827D01*
X110913671Y-82249000D02*
X110798785Y-82526358D01*
X111096427Y-82010827D02*
X110913671Y-82249000D01*
X111096427Y-83637173D02*
X111334600Y-83819929D01*
X110913671Y-83399000D02*
X111096427Y-83637173D01*
X110759600Y-82824000D02*
X110798785Y-83121642D01*
X110798785Y-83121642D02*
X110913671Y-83399000D01*
X111909600Y-83974000D02*
X112207242Y-83934815D01*
X111611958Y-83934815D02*
X111909600Y-83974000D01*
X111334600Y-83819929D02*
X111611958Y-83934815D01*
X110798785Y-82526358D02*
X110759600Y-82824000D01*
X171205529Y-106699000D02*
X171320415Y-106421642D01*
X171022773Y-106937173D02*
X171205529Y-106699000D01*
X169634600Y-107119929D02*
X169911958Y-107234815D01*
X170507242Y-107234815D02*
X170784600Y-107119929D01*
X170209600Y-107274000D02*
X170507242Y-107234815D01*
X169213671Y-106699000D02*
X169396427Y-106937173D01*
X169396427Y-106937173D02*
X169634600Y-107119929D01*
X171320415Y-106421642D02*
X171359600Y-106124000D01*
X170784600Y-107119929D02*
X171022773Y-106937173D01*
X169911958Y-107234815D02*
X170209600Y-107274000D01*
X113020415Y-106421642D02*
X113059600Y-106124000D01*
X112722773Y-106937173D02*
X112905529Y-106699000D01*
X110759600Y-106124000D02*
X110798785Y-106421642D01*
X110913671Y-105549000D02*
X110798785Y-105826358D01*
X112484600Y-107119929D02*
X112722773Y-106937173D01*
X110798785Y-105826358D02*
X110759600Y-106124000D01*
X112905529Y-106699000D02*
X113020415Y-106421642D01*
X111909600Y-107274000D02*
X112207242Y-107234815D01*
X111096427Y-106937173D02*
X111334600Y-107119929D01*
X111096427Y-105310827D02*
X110913671Y-105549000D01*
X112207242Y-107234815D02*
X112484600Y-107119929D01*
X111611958Y-107234815D02*
X111909600Y-107274000D01*
X111334600Y-105128071D02*
X111096427Y-105310827D01*
X110798785Y-106421642D02*
X110913671Y-106699000D01*
X111334600Y-107119929D02*
X111611958Y-107234815D01*
X110913671Y-106699000D02*
X111096427Y-106937173D01*
X111611958Y-105013185D02*
X111334600Y-105128071D01*
X111909600Y-104974000D02*
X111611958Y-105013185D01*
X110215055Y-109442761D02*
X110044535Y-109405005D01*
X112207242Y-83934815D02*
X112484600Y-83819929D01*
X112905529Y-83399000D02*
X113020415Y-83121642D01*
X112484600Y-83819929D02*
X112722773Y-83637173D01*
X112722773Y-83637173D02*
X112905529Y-83399000D01*
X113020415Y-83121642D02*
X113059600Y-82824000D01*
X109561681Y-109205053D02*
X109414391Y-109111201D01*
X109716598Y-109285696D02*
X109561681Y-109205053D01*
M02*
