G04 #@! TF.FileFunction,Legend,Top*
%FSLAX46Y46*%
G04 Gerber Fmt 4.6, Leading zero omitted, Abs format (unit mm)*
G04 Created by KiCad (PCBNEW 4.0.7) date 05/12/18 20:25:59*
%MOMM*%
%LPD*%
G01*
G04 APERTURE LIST*
%ADD10C,0.127000*%
%ADD11C,0.120000*%
%ADD12C,0.200000*%
%ADD13C,0.125000*%
%ADD14C,0.254000*%
%ADD15C,0.150000*%
G04 APERTURE END LIST*
D10*
X151480781Y-99092852D02*
X151004590Y-99426186D01*
X151480781Y-99664281D02*
X150480781Y-99664281D01*
X150480781Y-99283328D01*
X150528400Y-99188090D01*
X150576019Y-99140471D01*
X150671257Y-99092852D01*
X150814114Y-99092852D01*
X150909352Y-99140471D01*
X150956971Y-99188090D01*
X151004590Y-99283328D01*
X151004590Y-99664281D01*
X151576019Y-98902376D02*
X151576019Y-98140471D01*
X150480781Y-97711900D02*
X150480781Y-97616661D01*
X150528400Y-97521423D01*
X150576019Y-97473804D01*
X150671257Y-97426185D01*
X150861733Y-97378566D01*
X151099829Y-97378566D01*
X151290305Y-97426185D01*
X151385543Y-97473804D01*
X151433162Y-97521423D01*
X151480781Y-97616661D01*
X151480781Y-97711900D01*
X151433162Y-97807138D01*
X151385543Y-97854757D01*
X151290305Y-97902376D01*
X151099829Y-97949995D01*
X150861733Y-97949995D01*
X150671257Y-97902376D01*
X150576019Y-97854757D01*
X150528400Y-97807138D01*
X150480781Y-97711900D01*
X150814114Y-96521423D02*
X151480781Y-96521423D01*
X150433162Y-96759519D02*
X151147448Y-96997614D01*
X151147448Y-96378566D01*
X151480781Y-95473804D02*
X151480781Y-96045233D01*
X151480781Y-95759519D02*
X150480781Y-95759519D01*
X150623638Y-95854757D01*
X150718876Y-95949995D01*
X150766495Y-96045233D01*
X150480781Y-94616661D02*
X150480781Y-94807138D01*
X150528400Y-94902376D01*
X150576019Y-94949995D01*
X150718876Y-95045233D01*
X150909352Y-95092852D01*
X151290305Y-95092852D01*
X151385543Y-95045233D01*
X151433162Y-94997614D01*
X151480781Y-94902376D01*
X151480781Y-94711899D01*
X151433162Y-94616661D01*
X151385543Y-94569042D01*
X151290305Y-94521423D01*
X151052210Y-94521423D01*
X150956971Y-94569042D01*
X150909352Y-94616661D01*
X150861733Y-94711899D01*
X150861733Y-94902376D01*
X150909352Y-94997614D01*
X150956971Y-95045233D01*
X151052210Y-95092852D01*
X150576019Y-94140471D02*
X150528400Y-94092852D01*
X150480781Y-93997614D01*
X150480781Y-93759518D01*
X150528400Y-93664280D01*
X150576019Y-93616661D01*
X150671257Y-93569042D01*
X150766495Y-93569042D01*
X150909352Y-93616661D01*
X151480781Y-94188090D01*
X151480781Y-93569042D01*
X150480781Y-92949995D02*
X150480781Y-92854756D01*
X150528400Y-92759518D01*
X150576019Y-92711899D01*
X150671257Y-92664280D01*
X150861733Y-92616661D01*
X151099829Y-92616661D01*
X151290305Y-92664280D01*
X151385543Y-92711899D01*
X151433162Y-92759518D01*
X151480781Y-92854756D01*
X151480781Y-92949995D01*
X151433162Y-93045233D01*
X151385543Y-93092852D01*
X151290305Y-93140471D01*
X151099829Y-93188090D01*
X150861733Y-93188090D01*
X150671257Y-93140471D01*
X150576019Y-93092852D01*
X150528400Y-93045233D01*
X150480781Y-92949995D01*
X151480781Y-91664280D02*
X151480781Y-92235709D01*
X151480781Y-91949995D02*
X150480781Y-91949995D01*
X150623638Y-92045233D01*
X150718876Y-92140471D01*
X150766495Y-92235709D01*
X150909352Y-91092852D02*
X150861733Y-91188090D01*
X150814114Y-91235709D01*
X150718876Y-91283328D01*
X150671257Y-91283328D01*
X150576019Y-91235709D01*
X150528400Y-91188090D01*
X150480781Y-91092852D01*
X150480781Y-90902375D01*
X150528400Y-90807137D01*
X150576019Y-90759518D01*
X150671257Y-90711899D01*
X150718876Y-90711899D01*
X150814114Y-90759518D01*
X150861733Y-90807137D01*
X150909352Y-90902375D01*
X150909352Y-91092852D01*
X150956971Y-91188090D01*
X151004590Y-91235709D01*
X151099829Y-91283328D01*
X151290305Y-91283328D01*
X151385543Y-91235709D01*
X151433162Y-91188090D01*
X151480781Y-91092852D01*
X151480781Y-90902375D01*
X151433162Y-90807137D01*
X151385543Y-90759518D01*
X151290305Y-90711899D01*
X151099829Y-90711899D01*
X151004590Y-90759518D01*
X150956971Y-90807137D01*
X150909352Y-90902375D01*
X173306389Y-90444571D02*
X172706389Y-90444571D01*
X172706389Y-90301714D01*
X172734960Y-90215999D01*
X172792103Y-90158857D01*
X172849246Y-90130285D01*
X172963531Y-90101714D01*
X173049246Y-90101714D01*
X173163531Y-90130285D01*
X173220674Y-90158857D01*
X173277817Y-90215999D01*
X173306389Y-90301714D01*
X173306389Y-90444571D01*
X173077817Y-89844571D02*
X173077817Y-89387428D01*
X173275909Y-92989651D02*
X172675909Y-92989651D01*
X172675909Y-92846794D01*
X172704480Y-92761079D01*
X172761623Y-92703937D01*
X172818766Y-92675365D01*
X172933051Y-92646794D01*
X173018766Y-92646794D01*
X173133051Y-92675365D01*
X173190194Y-92703937D01*
X173247337Y-92761079D01*
X173275909Y-92846794D01*
X173275909Y-92989651D01*
X173047337Y-92389651D02*
X173047337Y-91932508D01*
X173275909Y-92161079D02*
X172818766Y-92161079D01*
X172704480Y-95478542D02*
X172675909Y-95535685D01*
X172675909Y-95621399D01*
X172704480Y-95707114D01*
X172761623Y-95764256D01*
X172818766Y-95792828D01*
X172933051Y-95821399D01*
X173018766Y-95821399D01*
X173133051Y-95792828D01*
X173190194Y-95764256D01*
X173247337Y-95707114D01*
X173275909Y-95621399D01*
X173275909Y-95564256D01*
X173247337Y-95478542D01*
X173218766Y-95449971D01*
X173018766Y-95449971D01*
X173018766Y-95564256D01*
X173275909Y-95192828D02*
X172675909Y-95192828D01*
X173275909Y-94849971D01*
X172675909Y-94849971D01*
X173275909Y-94564257D02*
X172675909Y-94564257D01*
X172675909Y-94421400D01*
X172704480Y-94335685D01*
X172761623Y-94278543D01*
X172818766Y-94249971D01*
X172933051Y-94221400D01*
X173018766Y-94221400D01*
X173133051Y-94249971D01*
X173190194Y-94278543D01*
X173247337Y-94335685D01*
X173275909Y-94421400D01*
X173275909Y-94564257D01*
X172736869Y-97635046D02*
X172736869Y-97920760D01*
X173022583Y-97949331D01*
X172994011Y-97920760D01*
X172965440Y-97863617D01*
X172965440Y-97720760D01*
X172994011Y-97663617D01*
X173022583Y-97635046D01*
X173079726Y-97606474D01*
X173222583Y-97606474D01*
X173279726Y-97635046D01*
X173308297Y-97663617D01*
X173336869Y-97720760D01*
X173336869Y-97863617D01*
X173308297Y-97920760D01*
X173279726Y-97949331D01*
X172736869Y-97435045D02*
X173336869Y-97235045D01*
X172736869Y-97035045D01*
X125212861Y-108653413D02*
X125212861Y-109129604D01*
X125689051Y-109177223D01*
X125641432Y-109129604D01*
X125593813Y-109034366D01*
X125593813Y-108796270D01*
X125641432Y-108701032D01*
X125689051Y-108653413D01*
X125784290Y-108605794D01*
X126022385Y-108605794D01*
X126117623Y-108653413D01*
X126165242Y-108701032D01*
X126212861Y-108796270D01*
X126212861Y-109034366D01*
X126165242Y-109129604D01*
X126117623Y-109177223D01*
X125212861Y-108320080D02*
X126212861Y-107986747D01*
X125212861Y-107653413D01*
X126308099Y-107558175D02*
X126308099Y-106796270D01*
X126212861Y-106558175D02*
X125212861Y-106558175D01*
X126212861Y-106081985D02*
X125212861Y-106081985D01*
X126212861Y-105510556D01*
X125212861Y-105510556D01*
X151572981Y-105090695D02*
X152382505Y-105090695D01*
X152477743Y-105043076D01*
X152525362Y-104995457D01*
X152572981Y-104900219D01*
X152572981Y-104709742D01*
X152525362Y-104614504D01*
X152477743Y-104566885D01*
X152382505Y-104519266D01*
X151572981Y-104519266D01*
X152525362Y-104090695D02*
X152572981Y-103947838D01*
X152572981Y-103709742D01*
X152525362Y-103614504D01*
X152477743Y-103566885D01*
X152382505Y-103519266D01*
X152287267Y-103519266D01*
X152192029Y-103566885D01*
X152144410Y-103614504D01*
X152096790Y-103709742D01*
X152049171Y-103900219D01*
X152001552Y-103995457D01*
X151953933Y-104043076D01*
X151858695Y-104090695D01*
X151763457Y-104090695D01*
X151668219Y-104043076D01*
X151620600Y-103995457D01*
X151572981Y-103900219D01*
X151572981Y-103662123D01*
X151620600Y-103519266D01*
X152049171Y-102757361D02*
X152096790Y-102614504D01*
X152144410Y-102566885D01*
X152239648Y-102519266D01*
X152382505Y-102519266D01*
X152477743Y-102566885D01*
X152525362Y-102614504D01*
X152572981Y-102709742D01*
X152572981Y-103090695D01*
X151572981Y-103090695D01*
X151572981Y-102757361D01*
X151620600Y-102662123D01*
X151668219Y-102614504D01*
X151763457Y-102566885D01*
X151858695Y-102566885D01*
X151953933Y-102614504D01*
X152001552Y-102662123D01*
X152049171Y-102757361D01*
X152049171Y-103090695D01*
X151906314Y-101662123D02*
X152572981Y-101662123D01*
X151525362Y-101900219D02*
X152239648Y-102138314D01*
X152239648Y-101519266D01*
X151100541Y-87264975D02*
X151910065Y-87264975D01*
X152005303Y-87217356D01*
X152052922Y-87169737D01*
X152100541Y-87074499D01*
X152100541Y-86884022D01*
X152052922Y-86788784D01*
X152005303Y-86741165D01*
X151910065Y-86693546D01*
X151100541Y-86693546D01*
X152052922Y-86264975D02*
X152100541Y-86122118D01*
X152100541Y-85884022D01*
X152052922Y-85788784D01*
X152005303Y-85741165D01*
X151910065Y-85693546D01*
X151814827Y-85693546D01*
X151719589Y-85741165D01*
X151671970Y-85788784D01*
X151624350Y-85884022D01*
X151576731Y-86074499D01*
X151529112Y-86169737D01*
X151481493Y-86217356D01*
X151386255Y-86264975D01*
X151291017Y-86264975D01*
X151195779Y-86217356D01*
X151148160Y-86169737D01*
X151100541Y-86074499D01*
X151100541Y-85836403D01*
X151148160Y-85693546D01*
X151576731Y-84931641D02*
X151624350Y-84788784D01*
X151671970Y-84741165D01*
X151767208Y-84693546D01*
X151910065Y-84693546D01*
X152005303Y-84741165D01*
X152052922Y-84788784D01*
X152100541Y-84884022D01*
X152100541Y-85264975D01*
X151100541Y-85264975D01*
X151100541Y-84931641D01*
X151148160Y-84836403D01*
X151195779Y-84788784D01*
X151291017Y-84741165D01*
X151386255Y-84741165D01*
X151481493Y-84788784D01*
X151529112Y-84836403D01*
X151576731Y-84931641D01*
X151576731Y-85264975D01*
X151100541Y-84360213D02*
X151100541Y-83741165D01*
X151481493Y-84074499D01*
X151481493Y-83931641D01*
X151529112Y-83836403D01*
X151576731Y-83788784D01*
X151671970Y-83741165D01*
X151910065Y-83741165D01*
X152005303Y-83788784D01*
X152052922Y-83836403D01*
X152100541Y-83931641D01*
X152100541Y-84217356D01*
X152052922Y-84312594D01*
X152005303Y-84360213D01*
X132649981Y-87386895D02*
X133459505Y-87386895D01*
X133554743Y-87339276D01*
X133602362Y-87291657D01*
X133649981Y-87196419D01*
X133649981Y-87005942D01*
X133602362Y-86910704D01*
X133554743Y-86863085D01*
X133459505Y-86815466D01*
X132649981Y-86815466D01*
X133602362Y-86386895D02*
X133649981Y-86244038D01*
X133649981Y-86005942D01*
X133602362Y-85910704D01*
X133554743Y-85863085D01*
X133459505Y-85815466D01*
X133364267Y-85815466D01*
X133269029Y-85863085D01*
X133221410Y-85910704D01*
X133173790Y-86005942D01*
X133126171Y-86196419D01*
X133078552Y-86291657D01*
X133030933Y-86339276D01*
X132935695Y-86386895D01*
X132840457Y-86386895D01*
X132745219Y-86339276D01*
X132697600Y-86291657D01*
X132649981Y-86196419D01*
X132649981Y-85958323D01*
X132697600Y-85815466D01*
X133126171Y-85053561D02*
X133173790Y-84910704D01*
X133221410Y-84863085D01*
X133316648Y-84815466D01*
X133459505Y-84815466D01*
X133554743Y-84863085D01*
X133602362Y-84910704D01*
X133649981Y-85005942D01*
X133649981Y-85386895D01*
X132649981Y-85386895D01*
X132649981Y-85053561D01*
X132697600Y-84958323D01*
X132745219Y-84910704D01*
X132840457Y-84863085D01*
X132935695Y-84863085D01*
X133030933Y-84910704D01*
X133078552Y-84958323D01*
X133126171Y-85053561D01*
X133126171Y-85386895D01*
X132745219Y-84434514D02*
X132697600Y-84386895D01*
X132649981Y-84291657D01*
X132649981Y-84053561D01*
X132697600Y-83958323D01*
X132745219Y-83910704D01*
X132840457Y-83863085D01*
X132935695Y-83863085D01*
X133078552Y-83910704D01*
X133649981Y-84482133D01*
X133649981Y-83863085D01*
X114346741Y-87219255D02*
X115156265Y-87219255D01*
X115251503Y-87171636D01*
X115299122Y-87124017D01*
X115346741Y-87028779D01*
X115346741Y-86838302D01*
X115299122Y-86743064D01*
X115251503Y-86695445D01*
X115156265Y-86647826D01*
X114346741Y-86647826D01*
X115299122Y-86219255D02*
X115346741Y-86076398D01*
X115346741Y-85838302D01*
X115299122Y-85743064D01*
X115251503Y-85695445D01*
X115156265Y-85647826D01*
X115061027Y-85647826D01*
X114965789Y-85695445D01*
X114918170Y-85743064D01*
X114870550Y-85838302D01*
X114822931Y-86028779D01*
X114775312Y-86124017D01*
X114727693Y-86171636D01*
X114632455Y-86219255D01*
X114537217Y-86219255D01*
X114441979Y-86171636D01*
X114394360Y-86124017D01*
X114346741Y-86028779D01*
X114346741Y-85790683D01*
X114394360Y-85647826D01*
X114822931Y-84885921D02*
X114870550Y-84743064D01*
X114918170Y-84695445D01*
X115013408Y-84647826D01*
X115156265Y-84647826D01*
X115251503Y-84695445D01*
X115299122Y-84743064D01*
X115346741Y-84838302D01*
X115346741Y-85219255D01*
X114346741Y-85219255D01*
X114346741Y-84885921D01*
X114394360Y-84790683D01*
X114441979Y-84743064D01*
X114537217Y-84695445D01*
X114632455Y-84695445D01*
X114727693Y-84743064D01*
X114775312Y-84790683D01*
X114822931Y-84885921D01*
X114822931Y-85219255D01*
X115346741Y-83695445D02*
X115346741Y-84266874D01*
X115346741Y-83981160D02*
X114346741Y-83981160D01*
X114489598Y-84076398D01*
X114584836Y-84171636D01*
X114632455Y-84266874D01*
X108817812Y-95268720D02*
X109103526Y-95268720D01*
X108760669Y-95440149D02*
X108960669Y-94840149D01*
X109160669Y-95440149D01*
X109703526Y-95383006D02*
X109674955Y-95411577D01*
X109589241Y-95440149D01*
X109532098Y-95440149D01*
X109446383Y-95411577D01*
X109389241Y-95354434D01*
X109360669Y-95297291D01*
X109332098Y-95183006D01*
X109332098Y-95097291D01*
X109360669Y-94983006D01*
X109389241Y-94925863D01*
X109446383Y-94868720D01*
X109532098Y-94840149D01*
X109589241Y-94840149D01*
X109674955Y-94868720D01*
X109703526Y-94897291D01*
X109874955Y-94840149D02*
X110217812Y-94840149D01*
X110046383Y-95440149D02*
X110046383Y-94840149D01*
D11*
X142689000Y-102249000D02*
X141689000Y-102249000D01*
X141689000Y-103949000D02*
X142689000Y-103949000D01*
X136136000Y-106897000D02*
X135136000Y-106897000D01*
X135136000Y-108597000D02*
X136136000Y-108597000D01*
X141826000Y-108561000D02*
X142826000Y-108561000D01*
X142826000Y-106861000D02*
X141826000Y-106861000D01*
X142689000Y-98535100D02*
X141689000Y-98535100D01*
X141689000Y-100235100D02*
X142689000Y-100235100D01*
X128700000Y-103949000D02*
X129700000Y-103949000D01*
X129700000Y-102249000D02*
X128700000Y-102249000D01*
X128659000Y-108637000D02*
X129659000Y-108637000D01*
X129659000Y-106937000D02*
X128659000Y-106937000D01*
X110590000Y-94397600D02*
X110590000Y-95797600D01*
X110590000Y-95797600D02*
X113390000Y-95797600D01*
X110590000Y-94397600D02*
X113390000Y-94397600D01*
X115559000Y-79901600D02*
X114159000Y-79901600D01*
X114159000Y-79901600D02*
X114159000Y-82701600D01*
X115559000Y-79901600D02*
X115559000Y-82701600D01*
X152343000Y-79855900D02*
X150943000Y-79855900D01*
X150943000Y-79855900D02*
X150943000Y-82655900D01*
X152343000Y-79855900D02*
X152343000Y-82655900D01*
X133882000Y-79937200D02*
X132482000Y-79937200D01*
X132482000Y-79937200D02*
X132482000Y-82737200D01*
X133882000Y-79937200D02*
X133882000Y-82737200D01*
X150951000Y-109052000D02*
X152351000Y-109052000D01*
X152351000Y-109052000D02*
X152351000Y-106252000D01*
X150951000Y-109052000D02*
X150951000Y-106252000D01*
D12*
X137358000Y-105128000D02*
X134158000Y-105128000D01*
X134158000Y-105128000D02*
X134158000Y-95228000D01*
X134158000Y-95228000D02*
X137358000Y-95228000D01*
X137358000Y-95228000D02*
X137358000Y-105128000D01*
X139233000Y-104908000D02*
X137708000Y-104908000D01*
D11*
X116052000Y-93875400D02*
X116052000Y-91545400D01*
X131042000Y-93875400D02*
X131042000Y-91755400D01*
X116052000Y-93875400D02*
X131042000Y-93875400D01*
X116052000Y-79785400D02*
X131042000Y-79785400D01*
X116052000Y-88585400D02*
X116052000Y-79785400D01*
X131042000Y-88385400D02*
X131042000Y-79785400D01*
X134324000Y-93875400D02*
X134324000Y-91545400D01*
X149314000Y-93875400D02*
X149314000Y-91755400D01*
X134324000Y-93875400D02*
X149314000Y-93875400D01*
X134324000Y-79785400D02*
X149314000Y-79785400D01*
X134324000Y-88585400D02*
X134324000Y-79785400D01*
X149314000Y-88385400D02*
X149314000Y-79785400D01*
X152765000Y-93819500D02*
X152765000Y-91489500D01*
X167755000Y-93819500D02*
X167755000Y-91699500D01*
X152765000Y-93819500D02*
X167755000Y-93819500D01*
X152765000Y-79729500D02*
X167755000Y-79729500D01*
X152765000Y-88529500D02*
X152765000Y-79729500D01*
X167755000Y-88329500D02*
X167755000Y-79729500D01*
X167755000Y-95037100D02*
X167755000Y-97367100D01*
X152765000Y-95037100D02*
X152765000Y-97157100D01*
X167755000Y-95037100D02*
X152765000Y-95037100D01*
X167755000Y-109127100D02*
X152765000Y-109127100D01*
X167755000Y-100327100D02*
X167755000Y-109127100D01*
X152765000Y-100527100D02*
X152765000Y-109127100D01*
X124295000Y-104298800D02*
X124295000Y-113098800D01*
X124295000Y-113098800D02*
X115095000Y-113098800D01*
X121595000Y-98398800D02*
X124295000Y-98398800D01*
X124295000Y-98398800D02*
X124295000Y-100298800D01*
X115095000Y-113098800D02*
X115095000Y-98398800D01*
X115095000Y-98398800D02*
X117695000Y-98398800D01*
X142881000Y-96404300D02*
X141681000Y-96404300D01*
X141681000Y-94644300D02*
X142881000Y-94644300D01*
X128595000Y-94649400D02*
X129795000Y-94649400D01*
X129795000Y-96409400D02*
X128595000Y-96409400D01*
X125710000Y-96404300D02*
X124510000Y-96404300D01*
X124510000Y-94644300D02*
X125710000Y-94644300D01*
X121768000Y-96404300D02*
X120568000Y-96404300D01*
X120568000Y-94644300D02*
X121768000Y-94644300D01*
X128539000Y-98530500D02*
X129739000Y-98530500D01*
X129739000Y-100290500D02*
X128539000Y-100290500D01*
X117669000Y-96409400D02*
X116469000Y-96409400D01*
X116469000Y-94649400D02*
X117669000Y-94649400D01*
X144861000Y-95385000D02*
X144861000Y-107985000D01*
X144861000Y-107985000D02*
X149961000Y-107985000D01*
X149961000Y-107985000D02*
X149961000Y-95385000D01*
X113056000Y-85447000D02*
X113056000Y-85897000D01*
X111206000Y-85447000D02*
X113056000Y-85447000D01*
X108656000Y-93247000D02*
X108906000Y-93247000D01*
X108656000Y-85447000D02*
X108906000Y-85447000D01*
X111206000Y-93247000D02*
X113056000Y-93247000D01*
X113056000Y-93247000D02*
X113056000Y-92797000D01*
X113656000Y-87247000D02*
X113956000Y-87247000D01*
X113956000Y-87247000D02*
X113956000Y-87547000D01*
X113956000Y-87547000D02*
X113656000Y-87547000D01*
X113656000Y-87547000D02*
X113656000Y-87247000D01*
X172351000Y-88588500D02*
X169691000Y-88588500D01*
X172351000Y-96268500D02*
X172351000Y-88588500D01*
X169691000Y-96268500D02*
X169691000Y-88588500D01*
X172351000Y-96268500D02*
X169691000Y-96268500D01*
X172351000Y-97538500D02*
X172351000Y-98868500D01*
X172351000Y-98868500D02*
X171021000Y-98868500D01*
X114368000Y-103263000D02*
X114368000Y-100603000D01*
X111768000Y-103263000D02*
X114368000Y-103263000D01*
X111768000Y-100603000D02*
X114368000Y-100603000D01*
X111768000Y-103263000D02*
X111768000Y-100603000D01*
X110498000Y-103263000D02*
X109168000Y-103263000D01*
X109168000Y-103263000D02*
X109168000Y-101933000D01*
X114360000Y-100481400D02*
X114360000Y-97821400D01*
X111760000Y-100481400D02*
X114360000Y-100481400D01*
X111760000Y-97821400D02*
X114360000Y-97821400D01*
X111760000Y-100481400D02*
X111760000Y-97821400D01*
X110490000Y-100481400D02*
X109160000Y-100481400D01*
X109160000Y-100481400D02*
X109160000Y-99151400D01*
D13*
X142136147Y-103292811D02*
X142112337Y-103316621D01*
X142040909Y-103340430D01*
X141993290Y-103340430D01*
X141921861Y-103316621D01*
X141874242Y-103269002D01*
X141850433Y-103221383D01*
X141826623Y-103126145D01*
X141826623Y-103054716D01*
X141850433Y-102959478D01*
X141874242Y-102911859D01*
X141921861Y-102864240D01*
X141993290Y-102840430D01*
X142040909Y-102840430D01*
X142112337Y-102864240D01*
X142136147Y-102888050D01*
X142612337Y-103340430D02*
X142326623Y-103340430D01*
X142469480Y-103340430D02*
X142469480Y-102840430D01*
X142421861Y-102911859D01*
X142374242Y-102959478D01*
X142326623Y-102983288D01*
X135537427Y-108006851D02*
X135513617Y-108030661D01*
X135442189Y-108054470D01*
X135394570Y-108054470D01*
X135323141Y-108030661D01*
X135275522Y-107983042D01*
X135251713Y-107935423D01*
X135227903Y-107840185D01*
X135227903Y-107768756D01*
X135251713Y-107673518D01*
X135275522Y-107625899D01*
X135323141Y-107578280D01*
X135394570Y-107554470D01*
X135442189Y-107554470D01*
X135513617Y-107578280D01*
X135537427Y-107602090D01*
X135727903Y-107602090D02*
X135751713Y-107578280D01*
X135799332Y-107554470D01*
X135918379Y-107554470D01*
X135965998Y-107578280D01*
X135989808Y-107602090D01*
X136013617Y-107649709D01*
X136013617Y-107697328D01*
X135989808Y-107768756D01*
X135704094Y-108054470D01*
X136013617Y-108054470D01*
X142242667Y-107864171D02*
X142218857Y-107887981D01*
X142147429Y-107911790D01*
X142099810Y-107911790D01*
X142028381Y-107887981D01*
X141980762Y-107840362D01*
X141956953Y-107792743D01*
X141933143Y-107697505D01*
X141933143Y-107626076D01*
X141956953Y-107530838D01*
X141980762Y-107483219D01*
X142028381Y-107435600D01*
X142099810Y-107411790D01*
X142147429Y-107411790D01*
X142218857Y-107435600D01*
X142242667Y-107459410D01*
X142409334Y-107411790D02*
X142718857Y-107411790D01*
X142552191Y-107602267D01*
X142623619Y-107602267D01*
X142671238Y-107626076D01*
X142695048Y-107649886D01*
X142718857Y-107697505D01*
X142718857Y-107816552D01*
X142695048Y-107864171D01*
X142671238Y-107887981D01*
X142623619Y-107911790D01*
X142480762Y-107911790D01*
X142433143Y-107887981D01*
X142409334Y-107864171D01*
X142100587Y-99650031D02*
X142076777Y-99673841D01*
X142005349Y-99697650D01*
X141957730Y-99697650D01*
X141886301Y-99673841D01*
X141838682Y-99626222D01*
X141814873Y-99578603D01*
X141791063Y-99483365D01*
X141791063Y-99411936D01*
X141814873Y-99316698D01*
X141838682Y-99269079D01*
X141886301Y-99221460D01*
X141957730Y-99197650D01*
X142005349Y-99197650D01*
X142076777Y-99221460D01*
X142100587Y-99245270D01*
X142529158Y-99364317D02*
X142529158Y-99697650D01*
X142410111Y-99173841D02*
X142291063Y-99530984D01*
X142600587Y-99530984D01*
X129116667Y-103369011D02*
X129092857Y-103392821D01*
X129021429Y-103416630D01*
X128973810Y-103416630D01*
X128902381Y-103392821D01*
X128854762Y-103345202D01*
X128830953Y-103297583D01*
X128807143Y-103202345D01*
X128807143Y-103130916D01*
X128830953Y-103035678D01*
X128854762Y-102988059D01*
X128902381Y-102940440D01*
X128973810Y-102916630D01*
X129021429Y-102916630D01*
X129092857Y-102940440D01*
X129116667Y-102964250D01*
X129569048Y-102916630D02*
X129330953Y-102916630D01*
X129307143Y-103154726D01*
X129330953Y-103130916D01*
X129378572Y-103107107D01*
X129497619Y-103107107D01*
X129545238Y-103130916D01*
X129569048Y-103154726D01*
X129592857Y-103202345D01*
X129592857Y-103321392D01*
X129569048Y-103369011D01*
X129545238Y-103392821D01*
X129497619Y-103416630D01*
X129378572Y-103416630D01*
X129330953Y-103392821D01*
X129307143Y-103369011D01*
X129065507Y-107935091D02*
X129041697Y-107958901D01*
X128970269Y-107982710D01*
X128922650Y-107982710D01*
X128851221Y-107958901D01*
X128803602Y-107911282D01*
X128779793Y-107863663D01*
X128755983Y-107768425D01*
X128755983Y-107696996D01*
X128779793Y-107601758D01*
X128803602Y-107554139D01*
X128851221Y-107506520D01*
X128922650Y-107482710D01*
X128970269Y-107482710D01*
X129041697Y-107506520D01*
X129065507Y-107530330D01*
X129494078Y-107482710D02*
X129398840Y-107482710D01*
X129351221Y-107506520D01*
X129327412Y-107530330D01*
X129279793Y-107601758D01*
X129255983Y-107696996D01*
X129255983Y-107887472D01*
X129279793Y-107935091D01*
X129303602Y-107958901D01*
X129351221Y-107982710D01*
X129446459Y-107982710D01*
X129494078Y-107958901D01*
X129517888Y-107935091D01*
X129541697Y-107887472D01*
X129541697Y-107768425D01*
X129517888Y-107720806D01*
X129494078Y-107696996D01*
X129446459Y-107673187D01*
X129351221Y-107673187D01*
X129303602Y-107696996D01*
X129279793Y-107720806D01*
X129255983Y-107768425D01*
X112015873Y-95318710D02*
X112015873Y-94818710D01*
X112134920Y-94818710D01*
X112206349Y-94842520D01*
X112253968Y-94890139D01*
X112277777Y-94937758D01*
X112301587Y-95032996D01*
X112301587Y-95104425D01*
X112277777Y-95199663D01*
X112253968Y-95247282D01*
X112206349Y-95294901D01*
X112134920Y-95318710D01*
X112015873Y-95318710D01*
X112777777Y-95318710D02*
X112492063Y-95318710D01*
X112634920Y-95318710D02*
X112634920Y-94818710D01*
X112587301Y-94890139D01*
X112539682Y-94937758D01*
X112492063Y-94961568D01*
X115075030Y-82070647D02*
X114575030Y-82070647D01*
X114575030Y-81951600D01*
X114598840Y-81880171D01*
X114646459Y-81832552D01*
X114694078Y-81808743D01*
X114789316Y-81784933D01*
X114860745Y-81784933D01*
X114955983Y-81808743D01*
X115003602Y-81832552D01*
X115051221Y-81880171D01*
X115075030Y-81951600D01*
X115075030Y-82070647D01*
X114622650Y-81594457D02*
X114598840Y-81570647D01*
X114575030Y-81523028D01*
X114575030Y-81403981D01*
X114598840Y-81356362D01*
X114622650Y-81332552D01*
X114670269Y-81308743D01*
X114717888Y-81308743D01*
X114789316Y-81332552D01*
X115075030Y-81618266D01*
X115075030Y-81308743D01*
X151960630Y-82024947D02*
X151460630Y-82024947D01*
X151460630Y-81905900D01*
X151484440Y-81834471D01*
X151532059Y-81786852D01*
X151579678Y-81763043D01*
X151674916Y-81739233D01*
X151746345Y-81739233D01*
X151841583Y-81763043D01*
X151889202Y-81786852D01*
X151936821Y-81834471D01*
X151960630Y-81905900D01*
X151960630Y-82024947D01*
X151460630Y-81572566D02*
X151460630Y-81263043D01*
X151651107Y-81429709D01*
X151651107Y-81358281D01*
X151674916Y-81310662D01*
X151698726Y-81286852D01*
X151746345Y-81263043D01*
X151865392Y-81263043D01*
X151913011Y-81286852D01*
X151936821Y-81310662D01*
X151960630Y-81358281D01*
X151960630Y-81501138D01*
X151936821Y-81548757D01*
X151913011Y-81572566D01*
X133403110Y-82116407D02*
X132903110Y-82116407D01*
X132903110Y-81997360D01*
X132926920Y-81925931D01*
X132974539Y-81878312D01*
X133022158Y-81854503D01*
X133117396Y-81830693D01*
X133188825Y-81830693D01*
X133284063Y-81854503D01*
X133331682Y-81878312D01*
X133379301Y-81925931D01*
X133403110Y-81997360D01*
X133403110Y-82116407D01*
X133069777Y-81402122D02*
X133403110Y-81402122D01*
X132879301Y-81521169D02*
X133236444Y-81640217D01*
X133236444Y-81330693D01*
X151907670Y-107621047D02*
X151407670Y-107621047D01*
X151407670Y-107502000D01*
X151431480Y-107430571D01*
X151479099Y-107382952D01*
X151526718Y-107359143D01*
X151621956Y-107335333D01*
X151693385Y-107335333D01*
X151788623Y-107359143D01*
X151836242Y-107382952D01*
X151883861Y-107430571D01*
X151907670Y-107502000D01*
X151907670Y-107621047D01*
X151407670Y-106882952D02*
X151407670Y-107121047D01*
X151645766Y-107144857D01*
X151621956Y-107121047D01*
X151598147Y-107073428D01*
X151598147Y-106954381D01*
X151621956Y-106906762D01*
X151645766Y-106882952D01*
X151693385Y-106859143D01*
X151812432Y-106859143D01*
X151860051Y-106882952D01*
X151883861Y-106906762D01*
X151907670Y-106954381D01*
X151907670Y-107073428D01*
X151883861Y-107121047D01*
X151860051Y-107144857D01*
D14*
X134518238Y-100752524D02*
X134518238Y-99482524D01*
X135848714Y-100631571D02*
X135788238Y-100692048D01*
X135606809Y-100752524D01*
X135485857Y-100752524D01*
X135304429Y-100692048D01*
X135183476Y-100571095D01*
X135123000Y-100450143D01*
X135062524Y-100208238D01*
X135062524Y-100026810D01*
X135123000Y-99784905D01*
X135183476Y-99663952D01*
X135304429Y-99543000D01*
X135485857Y-99482524D01*
X135606809Y-99482524D01*
X135788238Y-99543000D01*
X135848714Y-99603476D01*
X137058238Y-100752524D02*
X136332524Y-100752524D01*
X136695381Y-100752524D02*
X136695381Y-99482524D01*
X136574429Y-99663952D01*
X136453476Y-99784905D01*
X136332524Y-99845381D01*
D15*
X123227907Y-88682581D02*
X123227907Y-89396867D01*
X123180287Y-89539724D01*
X123085049Y-89634962D01*
X122942192Y-89682581D01*
X122846954Y-89682581D01*
X124227907Y-89682581D02*
X123656478Y-89682581D01*
X123942192Y-89682581D02*
X123942192Y-88682581D01*
X123846954Y-88825438D01*
X123751716Y-88920676D01*
X123656478Y-88968295D01*
X141474507Y-88799421D02*
X141474507Y-89513707D01*
X141426887Y-89656564D01*
X141331649Y-89751802D01*
X141188792Y-89799421D01*
X141093554Y-89799421D01*
X141903078Y-88894659D02*
X141950697Y-88847040D01*
X142045935Y-88799421D01*
X142284031Y-88799421D01*
X142379269Y-88847040D01*
X142426888Y-88894659D01*
X142474507Y-88989897D01*
X142474507Y-89085135D01*
X142426888Y-89227992D01*
X141855459Y-89799421D01*
X142474507Y-89799421D01*
X160489547Y-99121961D02*
X160489547Y-99836247D01*
X160441927Y-99979104D01*
X160346689Y-100074342D01*
X160203832Y-100121961D01*
X160108594Y-100121961D01*
X160870499Y-99121961D02*
X161489547Y-99121961D01*
X161156213Y-99502913D01*
X161299071Y-99502913D01*
X161394309Y-99550532D01*
X161441928Y-99598151D01*
X161489547Y-99693390D01*
X161489547Y-99931485D01*
X161441928Y-100026723D01*
X161394309Y-100074342D01*
X161299071Y-100121961D01*
X161013356Y-100121961D01*
X160918118Y-100074342D01*
X160870499Y-100026723D01*
X159465387Y-88771481D02*
X159465387Y-89485767D01*
X159417767Y-89628624D01*
X159322529Y-89723862D01*
X159179672Y-89771481D01*
X159084434Y-89771481D01*
X160370149Y-89104814D02*
X160370149Y-89771481D01*
X160132053Y-88723862D02*
X159893958Y-89438148D01*
X160513006Y-89438148D01*
X122328387Y-108032341D02*
X122328387Y-108746627D01*
X122280767Y-108889484D01*
X122185529Y-108984722D01*
X122042672Y-109032341D01*
X121947434Y-109032341D01*
X123280768Y-108032341D02*
X122804577Y-108032341D01*
X122756958Y-108508531D01*
X122804577Y-108460912D01*
X122899815Y-108413293D01*
X123137911Y-108413293D01*
X123233149Y-108460912D01*
X123280768Y-108508531D01*
X123328387Y-108603770D01*
X123328387Y-108841865D01*
X123280768Y-108937103D01*
X123233149Y-108984722D01*
X123137911Y-109032341D01*
X122899815Y-109032341D01*
X122804577Y-108984722D01*
X122756958Y-108937103D01*
D13*
X142197667Y-95740330D02*
X142031000Y-95502235D01*
X141911953Y-95740330D02*
X141911953Y-95240330D01*
X142102429Y-95240330D01*
X142150048Y-95264140D01*
X142173857Y-95287950D01*
X142197667Y-95335569D01*
X142197667Y-95406997D01*
X142173857Y-95454616D01*
X142150048Y-95478426D01*
X142102429Y-95502235D01*
X141911953Y-95502235D01*
X142673857Y-95740330D02*
X142388143Y-95740330D01*
X142531000Y-95740330D02*
X142531000Y-95240330D01*
X142483381Y-95311759D01*
X142435762Y-95359378D01*
X142388143Y-95383188D01*
X129111667Y-95765750D02*
X128945000Y-95527655D01*
X128825953Y-95765750D02*
X128825953Y-95265750D01*
X129016429Y-95265750D01*
X129064048Y-95289560D01*
X129087857Y-95313370D01*
X129111667Y-95360989D01*
X129111667Y-95432417D01*
X129087857Y-95480036D01*
X129064048Y-95503846D01*
X129016429Y-95527655D01*
X128825953Y-95527655D01*
X129302143Y-95313370D02*
X129325953Y-95289560D01*
X129373572Y-95265750D01*
X129492619Y-95265750D01*
X129540238Y-95289560D01*
X129564048Y-95313370D01*
X129587857Y-95360989D01*
X129587857Y-95408608D01*
X129564048Y-95480036D01*
X129278334Y-95765750D01*
X129587857Y-95765750D01*
X125072387Y-95770810D02*
X124905720Y-95532715D01*
X124786673Y-95770810D02*
X124786673Y-95270810D01*
X124977149Y-95270810D01*
X125024768Y-95294620D01*
X125048577Y-95318430D01*
X125072387Y-95366049D01*
X125072387Y-95437477D01*
X125048577Y-95485096D01*
X125024768Y-95508906D01*
X124977149Y-95532715D01*
X124786673Y-95532715D01*
X125239054Y-95270810D02*
X125548577Y-95270810D01*
X125381911Y-95461287D01*
X125453339Y-95461287D01*
X125500958Y-95485096D01*
X125524768Y-95508906D01*
X125548577Y-95556525D01*
X125548577Y-95675572D01*
X125524768Y-95723191D01*
X125500958Y-95747001D01*
X125453339Y-95770810D01*
X125310482Y-95770810D01*
X125262863Y-95747001D01*
X125239054Y-95723191D01*
X121013547Y-95811450D02*
X120846880Y-95573355D01*
X120727833Y-95811450D02*
X120727833Y-95311450D01*
X120918309Y-95311450D01*
X120965928Y-95335260D01*
X120989737Y-95359070D01*
X121013547Y-95406689D01*
X121013547Y-95478117D01*
X120989737Y-95525736D01*
X120965928Y-95549546D01*
X120918309Y-95573355D01*
X120727833Y-95573355D01*
X121442118Y-95478117D02*
X121442118Y-95811450D01*
X121323071Y-95287641D02*
X121204023Y-95644784D01*
X121513547Y-95644784D01*
X129045507Y-99641770D02*
X128878840Y-99403675D01*
X128759793Y-99641770D02*
X128759793Y-99141770D01*
X128950269Y-99141770D01*
X128997888Y-99165580D01*
X129021697Y-99189390D01*
X129045507Y-99237009D01*
X129045507Y-99308437D01*
X129021697Y-99356056D01*
X128997888Y-99379866D01*
X128950269Y-99403675D01*
X128759793Y-99403675D01*
X129497888Y-99141770D02*
X129259793Y-99141770D01*
X129235983Y-99379866D01*
X129259793Y-99356056D01*
X129307412Y-99332247D01*
X129426459Y-99332247D01*
X129474078Y-99356056D01*
X129497888Y-99379866D01*
X129521697Y-99427485D01*
X129521697Y-99546532D01*
X129497888Y-99594151D01*
X129474078Y-99617961D01*
X129426459Y-99641770D01*
X129307412Y-99641770D01*
X129259793Y-99617961D01*
X129235983Y-99594151D01*
X117005987Y-95780990D02*
X116839320Y-95542895D01*
X116720273Y-95780990D02*
X116720273Y-95280990D01*
X116910749Y-95280990D01*
X116958368Y-95304800D01*
X116982177Y-95328610D01*
X117005987Y-95376229D01*
X117005987Y-95447657D01*
X116982177Y-95495276D01*
X116958368Y-95519086D01*
X116910749Y-95542895D01*
X116720273Y-95542895D01*
X117434558Y-95280990D02*
X117339320Y-95280990D01*
X117291701Y-95304800D01*
X117267892Y-95328610D01*
X117220273Y-95400038D01*
X117196463Y-95495276D01*
X117196463Y-95685752D01*
X117220273Y-95733371D01*
X117244082Y-95757181D01*
X117291701Y-95780990D01*
X117386939Y-95780990D01*
X117434558Y-95757181D01*
X117458368Y-95733371D01*
X117482177Y-95685752D01*
X117482177Y-95566705D01*
X117458368Y-95519086D01*
X117434558Y-95495276D01*
X117386939Y-95471467D01*
X117291701Y-95471467D01*
X117244082Y-95495276D01*
X117220273Y-95519086D01*
X117196463Y-95566705D01*
D15*
X147504030Y-101761191D02*
X147980221Y-101761191D01*
X146980221Y-102094524D02*
X147504030Y-101761191D01*
X146980221Y-101427857D01*
X147980221Y-100570714D02*
X147980221Y-101142143D01*
X147980221Y-100856429D02*
X146980221Y-100856429D01*
X147123078Y-100951667D01*
X147218316Y-101046905D01*
X147265935Y-101142143D01*
X114178381Y-90210333D02*
X114892667Y-90210333D01*
X115035524Y-90257953D01*
X115130762Y-90353191D01*
X115178381Y-90496048D01*
X115178381Y-90591286D01*
X114178381Y-89829381D02*
X114178381Y-89162714D01*
X115178381Y-89591286D01*
X170044809Y-99320881D02*
X170235286Y-99320881D01*
X170330524Y-99368500D01*
X170425762Y-99463738D01*
X170473381Y-99654214D01*
X170473381Y-99987548D01*
X170425762Y-100178024D01*
X170330524Y-100273262D01*
X170235286Y-100320881D01*
X170044809Y-100320881D01*
X169949571Y-100273262D01*
X169854333Y-100178024D01*
X169806714Y-99987548D01*
X169806714Y-99654214D01*
X169854333Y-99463738D01*
X169949571Y-99368500D01*
X170044809Y-99320881D01*
X170759095Y-99320881D02*
X171330524Y-99320881D01*
X171044809Y-100320881D02*
X171044809Y-99320881D01*
X172187667Y-99368500D02*
X172092429Y-99320881D01*
X171949572Y-99320881D01*
X171806714Y-99368500D01*
X171711476Y-99463738D01*
X171663857Y-99558976D01*
X171616238Y-99749452D01*
X171616238Y-99892310D01*
X171663857Y-100082786D01*
X171711476Y-100178024D01*
X171806714Y-100273262D01*
X171949572Y-100320881D01*
X172044810Y-100320881D01*
X172187667Y-100273262D01*
X172235286Y-100225643D01*
X172235286Y-99892310D01*
X172044810Y-99892310D01*
X110406086Y-103455481D02*
X109929895Y-103455481D01*
X109882276Y-103931671D01*
X109929895Y-103884052D01*
X110025133Y-103836433D01*
X110263229Y-103836433D01*
X110358467Y-103884052D01*
X110406086Y-103931671D01*
X110453705Y-104026910D01*
X110453705Y-104265005D01*
X110406086Y-104360243D01*
X110358467Y-104407862D01*
X110263229Y-104455481D01*
X110025133Y-104455481D01*
X109929895Y-104407862D01*
X109882276Y-104360243D01*
X110787038Y-103788814D02*
X111025133Y-104455481D01*
X111263229Y-103788814D01*
X111406086Y-104550719D02*
X112167991Y-104550719D01*
X112406086Y-104455481D02*
X112406086Y-103455481D01*
X112882276Y-104455481D02*
X112882276Y-103455481D01*
X113453705Y-104455481D01*
X113453705Y-103455481D01*
X110906656Y-96677820D02*
X110811418Y-96630201D01*
X110668561Y-96630201D01*
X110525703Y-96677820D01*
X110430465Y-96773058D01*
X110382846Y-96868296D01*
X110335227Y-97058772D01*
X110335227Y-97201630D01*
X110382846Y-97392106D01*
X110430465Y-97487344D01*
X110525703Y-97582582D01*
X110668561Y-97630201D01*
X110763799Y-97630201D01*
X110906656Y-97582582D01*
X110954275Y-97534963D01*
X110954275Y-97201630D01*
X110763799Y-97201630D01*
X111382846Y-97630201D02*
X111382846Y-96630201D01*
X111954275Y-97630201D01*
X111954275Y-96630201D01*
X112430465Y-97630201D02*
X112430465Y-96630201D01*
X112668560Y-96630201D01*
X112811418Y-96677820D01*
X112906656Y-96773058D01*
X112954275Y-96868296D01*
X113001894Y-97058772D01*
X113001894Y-97201630D01*
X112954275Y-97392106D01*
X112906656Y-97487344D01*
X112811418Y-97582582D01*
X112668560Y-97630201D01*
X112430465Y-97630201D01*
M02*
