G04 #@! TF.FileFunction,Copper,L1,Top,Signal*
%FSLAX46Y46*%
G04 Gerber Fmt 4.6, Leading zero omitted, Abs format (unit mm)*
G04 Created by KiCad (PCBNEW 4.0.7) date 05/12/18 20:25:59*
%MOMM*%
%LPD*%
G01*
G04 APERTURE LIST*
%ADD10C,0.127000*%
%ADD11R,1.000000X1.250000*%
%ADD12R,1.200000X1.200000*%
%ADD13R,1.525000X0.440000*%
%ADD14C,1.500000*%
%ADD15C,3.000000*%
%ADD16R,3.500000X3.500000*%
%ADD17R,0.700000X1.300000*%
%ADD18R,2.000000X4.500000*%
%ADD19R,1.900000X1.500000*%
%ADD20C,1.450000*%
%ADD21R,1.350000X0.400000*%
%ADD22O,1.900000X1.200000*%
%ADD23R,1.900000X1.200000*%
%ADD24R,1.700000X1.700000*%
%ADD25O,1.700000X1.700000*%
%ADD26C,0.685800*%
%ADD27C,0.330000*%
%ADD28C,0.254000*%
G04 APERTURE END LIST*
D10*
D11*
X141189000Y-103099000D03*
X143189000Y-103099000D03*
X134636000Y-107747000D03*
X136636000Y-107747000D03*
X143326000Y-107711000D03*
X141326000Y-107711000D03*
X141189000Y-99385100D03*
X143189000Y-99385100D03*
X130200000Y-103099000D03*
X128200000Y-103099000D03*
X130159000Y-107787000D03*
X128159000Y-107787000D03*
D12*
X113490000Y-95097600D03*
X111290000Y-95097600D03*
X114859000Y-82801600D03*
X114859000Y-80601600D03*
X151643000Y-82755900D03*
X151643000Y-80555900D03*
X133182000Y-82837200D03*
X133182000Y-80637200D03*
X151651000Y-106152000D03*
X151651000Y-108352000D03*
D13*
X138470000Y-104338000D03*
X138470000Y-103698000D03*
X138470000Y-103058000D03*
X138470000Y-102418000D03*
X138470000Y-101778000D03*
X138470000Y-101138000D03*
X138470000Y-100498000D03*
X138470000Y-99858000D03*
X138470000Y-99218000D03*
X138470000Y-98578000D03*
X138470000Y-97938000D03*
X138470000Y-97298000D03*
X138470000Y-96658000D03*
X138470000Y-96018000D03*
X133046000Y-96018000D03*
X133046000Y-96658000D03*
X133046000Y-97298000D03*
X133046000Y-97938000D03*
X133046000Y-98578000D03*
X133046000Y-99218000D03*
X133046000Y-99858000D03*
X133046000Y-100498000D03*
X133046000Y-101138000D03*
X133046000Y-101778000D03*
X133046000Y-102418000D03*
X133046000Y-103058000D03*
X133046000Y-103698000D03*
X133046000Y-104338000D03*
D14*
X119992000Y-92735400D03*
X122532000Y-92735400D03*
X124562000Y-92735400D03*
X127102000Y-92735400D03*
D15*
X116942000Y-90065400D03*
X130662000Y-90065400D03*
D14*
X138264000Y-92735400D03*
X140804000Y-92735400D03*
X142834000Y-92735400D03*
X145374000Y-92735400D03*
D15*
X135214000Y-90065400D03*
X148934000Y-90065400D03*
D14*
X156705000Y-92679500D03*
X159245000Y-92679500D03*
X161275000Y-92679500D03*
X163815000Y-92679500D03*
D15*
X153655000Y-90009500D03*
X167375000Y-90009500D03*
D14*
X163815000Y-96177100D03*
X161275000Y-96177100D03*
X159245000Y-96177100D03*
X156705000Y-96177100D03*
D15*
X166865000Y-98847100D03*
X153145000Y-98847100D03*
D16*
X119695000Y-99298800D03*
X119695000Y-105298800D03*
X124395000Y-102298800D03*
D17*
X141331000Y-95524300D03*
X143231000Y-95524300D03*
X130145000Y-95529400D03*
X128245000Y-95529400D03*
X124160000Y-95524300D03*
X126060000Y-95524300D03*
X120218000Y-95524300D03*
X122118000Y-95524300D03*
X130089000Y-99410500D03*
X128189000Y-99410500D03*
X116119000Y-95529400D03*
X118019000Y-95529400D03*
D18*
X147411000Y-105535000D03*
X147411000Y-97035000D03*
D19*
X110056000Y-90347000D03*
D20*
X112756000Y-86847000D03*
D21*
X112756000Y-88697000D03*
X112756000Y-88047000D03*
X112756000Y-90647000D03*
X112756000Y-89997000D03*
X112756000Y-89347000D03*
D20*
X112756000Y-91847000D03*
D19*
X110056000Y-88347000D03*
D22*
X110056000Y-85847000D03*
X110056000Y-92847000D03*
D23*
X110056000Y-92247000D03*
X110056000Y-86447000D03*
D24*
X171021000Y-97538500D03*
D25*
X171021000Y-94998500D03*
X171021000Y-92458500D03*
X171021000Y-89918500D03*
D24*
X110498000Y-101933000D03*
D25*
X113038000Y-101933000D03*
D24*
X110490000Y-99151400D03*
D25*
X113030000Y-99151400D03*
D26*
X140742200Y-104332200D03*
X135199300Y-103447000D03*
X139933600Y-98331700D03*
X131680900Y-100452300D03*
X149047500Y-106345400D03*
X125637700Y-97761900D03*
X150248000Y-106210400D03*
X123153300Y-81097100D03*
X124160000Y-96803500D03*
X145801800Y-97035000D03*
X140089600Y-102747200D03*
X135270100Y-97812900D03*
X136530200Y-97646300D03*
X137107000Y-99858000D03*
X137108000Y-102490400D03*
X138934300Y-90680100D03*
X114472500Y-88226800D03*
X114678000Y-89347000D03*
X132928800Y-93427300D03*
X130650500Y-97457200D03*
X127686600Y-105219200D03*
D27*
X141189000Y-103099000D02*
X141189000Y-104143300D01*
X141000100Y-104332200D02*
X140742200Y-104332200D01*
X141189000Y-104143300D02*
X141000100Y-104332200D01*
X134227800Y-106294500D02*
X134636000Y-106702700D01*
X134227800Y-104338000D02*
X134227800Y-106294500D01*
X133046000Y-104338000D02*
X134227800Y-104338000D01*
X134636000Y-107747000D02*
X134636000Y-106702700D01*
X134308300Y-104338000D02*
X134227800Y-104338000D01*
X135199300Y-103447000D02*
X134308300Y-104338000D01*
X139933600Y-97579800D02*
X139651800Y-97298000D01*
X139933600Y-98331700D02*
X139933600Y-97579800D01*
X138470000Y-97298000D02*
X139651800Y-97298000D01*
X110056000Y-85847000D02*
X110056000Y-86447000D01*
X128159000Y-107787000D02*
X127239700Y-107787000D01*
X128200000Y-103099000D02*
X127280700Y-103099000D01*
X118019000Y-95529400D02*
X118019000Y-94460100D01*
X110056000Y-86447000D02*
X110594600Y-86447000D01*
X110056000Y-88347000D02*
X110056000Y-90347000D01*
X110056000Y-92847000D02*
X110056000Y-92247000D01*
X110056000Y-92247000D02*
X110056000Y-90347000D01*
X110594600Y-86447000D02*
X110594600Y-86716300D01*
X110133200Y-87177700D02*
X110594600Y-86716300D01*
X110056000Y-87177700D02*
X110133200Y-87177700D01*
X112625300Y-86716300D02*
X112756000Y-86847000D01*
X110594600Y-86716300D02*
X112625300Y-86716300D01*
X110056000Y-88347000D02*
X110056000Y-87177700D01*
X119677800Y-92801300D02*
X119387100Y-93092000D01*
X119926100Y-92801300D02*
X119677800Y-92801300D01*
X119992000Y-92735400D02*
X119926100Y-92801300D01*
X119387100Y-93092000D02*
X118019000Y-94460100D01*
X113850300Y-91026400D02*
X113850300Y-90647000D01*
X113029700Y-91847000D02*
X113850300Y-91026400D01*
X112756000Y-91847000D02*
X113029700Y-91847000D01*
X112756000Y-90647000D02*
X113850300Y-90647000D01*
X116942000Y-90647000D02*
X113850300Y-90647000D01*
X116942000Y-90065400D02*
X116942000Y-90647000D01*
X116942000Y-90647000D02*
X119387100Y-93092000D01*
X143231000Y-98298800D02*
X143189000Y-98340800D01*
X143231000Y-95524300D02*
X143231000Y-98298800D01*
X143189000Y-99385100D02*
X143189000Y-98340800D01*
X143189000Y-103099000D02*
X142269700Y-103099000D01*
X138470000Y-104338000D02*
X139651800Y-104338000D01*
X154035000Y-90009500D02*
X156705000Y-92679500D01*
X153655000Y-90009500D02*
X154035000Y-90009500D01*
X164005000Y-95987100D02*
X166865000Y-98847100D01*
X166865000Y-97885200D02*
X166865000Y-98847100D01*
X169751700Y-94998500D02*
X166865000Y-97885200D01*
X171021000Y-94998500D02*
X169751700Y-94998500D01*
X164820200Y-90009500D02*
X162545000Y-92284700D01*
X167375000Y-90009500D02*
X164820200Y-90009500D01*
X162545000Y-94527100D02*
X162545000Y-92284700D01*
X164005000Y-95987100D02*
X162545000Y-94527100D01*
X157884400Y-91500100D02*
X156705000Y-92679500D01*
X161760400Y-91500100D02*
X157884400Y-91500100D01*
X162545000Y-92284700D02*
X161760400Y-91500100D01*
X143231000Y-95524300D02*
X144000300Y-95524300D01*
X143318200Y-91510100D02*
X144005800Y-92197700D01*
X139489300Y-91510100D02*
X143318200Y-91510100D01*
X138264000Y-92735400D02*
X139489300Y-91510100D01*
X144005800Y-95518800D02*
X144000300Y-95524300D01*
X144005800Y-92197700D02*
X144005800Y-95518800D01*
X164005000Y-95987100D02*
X163815000Y-96177100D01*
X144882900Y-102324400D02*
X144108300Y-103099000D01*
X157667700Y-102324400D02*
X144882900Y-102324400D01*
X163815000Y-96177100D02*
X157667700Y-102324400D01*
X143189000Y-103099000D02*
X144108300Y-103099000D01*
X119695000Y-105298800D02*
X121864300Y-105298800D01*
X130662000Y-90065400D02*
X135214000Y-90065400D01*
X130662000Y-93943100D02*
X130145000Y-94460100D01*
X130662000Y-90065400D02*
X130662000Y-93943100D01*
X130145000Y-95529400D02*
X130145000Y-94460100D01*
X146138100Y-90065400D02*
X148934000Y-90065400D01*
X144005800Y-92197700D02*
X146138100Y-90065400D01*
X153599100Y-90065400D02*
X153655000Y-90009500D01*
X148934000Y-90065400D02*
X153599100Y-90065400D01*
X118277400Y-103129500D02*
X119695000Y-103129500D01*
X114299300Y-99151400D02*
X118277400Y-103129500D01*
X113030000Y-99151400D02*
X114299300Y-99151400D01*
X126502800Y-105298800D02*
X121864300Y-105298800D01*
X127280700Y-104520900D02*
X126502800Y-105298800D01*
X127280700Y-103099000D02*
X127280700Y-104520900D01*
X126502800Y-107050100D02*
X127239700Y-107787000D01*
X126502800Y-105298800D02*
X126502800Y-107050100D01*
X119695000Y-105298800D02*
X119695000Y-103129500D01*
X141326000Y-107711000D02*
X140406700Y-107711000D01*
X142269700Y-103952000D02*
X142269700Y-103099000D01*
X141114400Y-105107300D02*
X142269700Y-103952000D01*
X140421100Y-105107300D02*
X141114400Y-105107300D01*
X139651800Y-104338000D02*
X140421100Y-105107300D01*
X128159000Y-107787000D02*
X129078300Y-107787000D01*
X140370700Y-107747000D02*
X136636000Y-107747000D01*
X140406700Y-107711000D02*
X140370700Y-107747000D01*
X129078300Y-108476500D02*
X129078300Y-107787000D01*
X129433200Y-108831400D02*
X129078300Y-108476500D01*
X135321800Y-108831400D02*
X129433200Y-108831400D01*
X135716700Y-108436500D02*
X135321800Y-108831400D01*
X135716700Y-107747000D02*
X135716700Y-108436500D01*
X136636000Y-107747000D02*
X135716700Y-107747000D01*
X133046000Y-103058000D02*
X134227800Y-103058000D01*
X133046000Y-99858000D02*
X134081700Y-99858000D01*
X143326000Y-107711000D02*
X142406700Y-107711000D01*
X134227800Y-103058000D02*
X134227800Y-102682400D01*
X134227800Y-100004100D02*
X134081700Y-99858000D01*
X134227800Y-102682400D02*
X134227800Y-100004100D01*
X142406700Y-107021500D02*
X142406700Y-107711000D01*
X141587200Y-106202000D02*
X142406700Y-107021500D01*
X137976900Y-106202000D02*
X141587200Y-106202000D01*
X136164000Y-104389100D02*
X137976900Y-106202000D01*
X136164000Y-103331500D02*
X136164000Y-104389100D01*
X135514900Y-102682400D02*
X136164000Y-103331500D01*
X134227800Y-102682400D02*
X135514900Y-102682400D01*
X141189000Y-98002300D02*
X141189000Y-99385100D01*
X139844700Y-96658000D02*
X141189000Y-98002300D01*
X138470000Y-96658000D02*
X139844700Y-96658000D01*
X134227800Y-99711900D02*
X134081700Y-99858000D01*
X134227800Y-98578000D02*
X134227800Y-99711900D01*
X133046000Y-98578000D02*
X134227800Y-98578000D01*
X134867800Y-96658000D02*
X138470000Y-96658000D01*
X134227800Y-97298000D02*
X134867800Y-96658000D01*
X133046000Y-97298000D02*
X134013100Y-97298000D01*
X134013100Y-97298000D02*
X134227800Y-97298000D01*
X134227800Y-97512700D02*
X134227800Y-98578000D01*
X134013100Y-97298000D02*
X134227800Y-97512700D01*
D28*
X151651000Y-108352000D02*
X151651000Y-107370700D01*
X114859000Y-82801600D02*
X115840300Y-82801600D01*
X115875900Y-82837200D02*
X115840300Y-82801600D01*
X133182000Y-82837200D02*
X115875900Y-82837200D01*
X133182000Y-82837200D02*
X134163300Y-82837200D01*
X161070700Y-107370700D02*
X151651000Y-107370700D01*
X169191700Y-99249700D02*
X161070700Y-107370700D01*
X169191700Y-97115900D02*
X169191700Y-99249700D01*
X170000500Y-96307100D02*
X169191700Y-97115900D01*
X171476500Y-96307100D02*
X170000500Y-96307100D01*
X172253800Y-95529800D02*
X171476500Y-96307100D01*
X172253800Y-89322400D02*
X172253800Y-95529800D01*
X163487300Y-80555900D02*
X172253800Y-89322400D01*
X151643000Y-80555900D02*
X163487300Y-80555900D01*
X148380400Y-82837200D02*
X134163300Y-82837200D01*
X150661700Y-80555900D02*
X148380400Y-82837200D01*
X151643000Y-80555900D02*
X150661700Y-80555900D01*
X150072800Y-107370700D02*
X149047500Y-106345400D01*
X151651000Y-107370700D02*
X150072800Y-107370700D01*
X115070900Y-94498000D02*
X114471300Y-95097600D01*
X116701300Y-94498000D02*
X115070900Y-94498000D01*
X117287600Y-95084300D02*
X116701300Y-94498000D01*
X117287600Y-96374200D02*
X117287600Y-95084300D01*
X117804800Y-96891400D02*
X117287600Y-96374200D01*
X122408000Y-96891400D02*
X117804800Y-96891400D01*
X123278500Y-97761900D02*
X122408000Y-96891400D01*
X125637700Y-97761900D02*
X123278500Y-97761900D01*
X113490000Y-95097600D02*
X114471300Y-95097600D01*
X131726600Y-100498000D02*
X131680900Y-100452300D01*
X133046000Y-100498000D02*
X131726600Y-100498000D01*
X112271300Y-95634300D02*
X112271300Y-95097600D01*
X112715900Y-96078900D02*
X112271300Y-95634300D01*
X114838200Y-96078900D02*
X112715900Y-96078900D01*
X115387700Y-95529400D02*
X114838200Y-96078900D01*
X116119000Y-95529400D02*
X115387700Y-95529400D01*
X111290000Y-95097600D02*
X112271300Y-95097600D01*
X120218000Y-95524300D02*
X120949300Y-95524300D01*
X114859000Y-80601600D02*
X114859000Y-81582900D01*
X151643000Y-82755900D02*
X150661700Y-82755900D01*
X126260400Y-85696500D02*
X121134600Y-90822300D01*
X147721100Y-85696500D02*
X126260400Y-85696500D01*
X150661700Y-82755900D02*
X147721100Y-85696500D01*
X113877700Y-83565400D02*
X121134600Y-90822300D01*
X113877700Y-82027500D02*
X113877700Y-83565400D01*
X114322300Y-81582900D02*
X113877700Y-82027500D01*
X114859000Y-81582900D02*
X114322300Y-81582900D01*
X121134600Y-95339000D02*
X120949300Y-95524300D01*
X121134600Y-90822300D02*
X121134600Y-95339000D01*
X150611300Y-106210400D02*
X150669700Y-106152000D01*
X150248000Y-106210400D02*
X150611300Y-106210400D01*
X151651000Y-106152000D02*
X150669700Y-106152000D01*
X131740800Y-81097100D02*
X132200700Y-80637200D01*
X123153300Y-81097100D02*
X131740800Y-81097100D01*
X133182000Y-80637200D02*
X132200700Y-80637200D01*
X124160000Y-95524300D02*
X124160000Y-96803500D01*
X137326200Y-104717800D02*
X137326200Y-103698000D01*
X138264000Y-105655600D02*
X137326200Y-104717800D01*
X145909100Y-105655600D02*
X138264000Y-105655600D01*
X146029700Y-105535000D02*
X145909100Y-105655600D01*
X147411000Y-105535000D02*
X146029700Y-105535000D01*
X138470000Y-103698000D02*
X137326200Y-103698000D01*
X138470000Y-103058000D02*
X139613800Y-103058000D01*
X147411000Y-97035000D02*
X146029700Y-97035000D01*
X146029700Y-97035000D02*
X145801800Y-97035000D01*
X139924600Y-102747200D02*
X140089600Y-102747200D01*
X139613800Y-103058000D02*
X139924600Y-102747200D01*
X136035200Y-98578000D02*
X135270100Y-97812900D01*
X138470000Y-98578000D02*
X136035200Y-98578000D01*
X138470000Y-97938000D02*
X137326200Y-97938000D01*
X137034500Y-97646300D02*
X136530200Y-97646300D01*
X137326200Y-97938000D02*
X137034500Y-97646300D01*
X138470000Y-99858000D02*
X137326200Y-99858000D01*
X137326200Y-99858000D02*
X137107000Y-99858000D01*
X139613800Y-99549300D02*
X139613800Y-99218000D01*
X140456000Y-100391500D02*
X139613800Y-99549300D01*
X141868600Y-100391500D02*
X140456000Y-100391500D01*
X142070400Y-100189700D02*
X141868600Y-100391500D01*
X142070400Y-94001800D02*
X142070400Y-100189700D01*
X140804000Y-92735400D02*
X142070400Y-94001800D01*
X138470000Y-99218000D02*
X139613800Y-99218000D01*
X159526200Y-94428300D02*
X161275000Y-92679500D01*
X154812700Y-94428300D02*
X159526200Y-94428300D01*
X148103000Y-101138000D02*
X154812700Y-94428300D01*
X142986600Y-101138000D02*
X148103000Y-101138000D01*
X142610000Y-101514600D02*
X142986600Y-101138000D01*
X140140700Y-101514600D02*
X142610000Y-101514600D01*
X139764100Y-101138000D02*
X140140700Y-101514600D01*
X138470000Y-101138000D02*
X139764100Y-101138000D01*
X158005300Y-93919200D02*
X159245000Y-92679500D01*
X154602800Y-93919200D02*
X158005300Y-93919200D01*
X148024000Y-100498000D02*
X154602800Y-93919200D01*
X142907700Y-100498000D02*
X148024000Y-100498000D01*
X142462900Y-100942800D02*
X142907700Y-100498000D01*
X140287700Y-100942800D02*
X142462900Y-100942800D01*
X139842900Y-100498000D02*
X140287700Y-100942800D01*
X138470000Y-100498000D02*
X139842900Y-100498000D01*
X138470000Y-102418000D02*
X137326200Y-102418000D01*
X137253800Y-102490400D02*
X137108000Y-102490400D01*
X137326200Y-102418000D02*
X137253800Y-102490400D01*
X155674100Y-101778000D02*
X161275000Y-96177100D01*
X143065400Y-101778000D02*
X155674100Y-101778000D01*
X142820500Y-102022900D02*
X143065400Y-101778000D01*
X139930200Y-102022900D02*
X142820500Y-102022900D01*
X139685300Y-101778000D02*
X139930200Y-102022900D01*
X138470000Y-101778000D02*
X139685300Y-101778000D01*
X138470000Y-96018000D02*
X139613800Y-96018000D01*
X140106000Y-96018000D02*
X140599700Y-95524300D01*
X139613800Y-96018000D02*
X140106000Y-96018000D01*
X141331000Y-95524300D02*
X140599700Y-95524300D01*
X134189800Y-95145400D02*
X134189800Y-96018000D01*
X138655100Y-90680100D02*
X134189800Y-95145400D01*
X138934300Y-90680100D02*
X138655100Y-90680100D01*
X133046000Y-96018000D02*
X134189800Y-96018000D01*
X114002300Y-88697000D02*
X114472500Y-88226800D01*
X112756000Y-88697000D02*
X114002300Y-88697000D01*
X171021000Y-92458500D02*
X171021000Y-91227200D01*
X133046000Y-96658000D02*
X131902200Y-96658000D01*
X134544000Y-93988500D02*
X133490000Y-93988500D01*
X140408700Y-88123800D02*
X134544000Y-93988500D01*
X168200600Y-88123800D02*
X140408700Y-88123800D01*
X169789700Y-89712900D02*
X168200600Y-88123800D01*
X169789700Y-90457700D02*
X169789700Y-89712900D01*
X170559200Y-91227200D02*
X169789700Y-90457700D01*
X171021000Y-91227200D02*
X170559200Y-91227200D01*
X131902200Y-95576300D02*
X131902200Y-96658000D01*
X133490000Y-93988500D02*
X131902200Y-95576300D01*
X132928800Y-93427300D02*
X133490000Y-93988500D01*
X112756000Y-89347000D02*
X114678000Y-89347000D01*
X128189000Y-96616700D02*
X128245000Y-96560700D01*
X128189000Y-99410500D02*
X128189000Y-96616700D01*
X128245000Y-95529400D02*
X128245000Y-96433600D01*
X128245000Y-96433600D02*
X128245000Y-96560700D01*
X131902200Y-97653700D02*
X131902200Y-97938000D01*
X130809200Y-96560700D02*
X131902200Y-97653700D01*
X128245000Y-96560700D02*
X130809200Y-96560700D01*
X133046000Y-97938000D02*
X131902200Y-97938000D01*
X133007400Y-101176600D02*
X133046000Y-101138000D01*
X128374700Y-101176600D02*
X133007400Y-101176600D01*
X126870200Y-99672100D02*
X128374700Y-101176600D01*
X126870200Y-94792300D02*
X126870200Y-99672100D01*
X126524800Y-94446900D02*
X126870200Y-94792300D01*
X123652500Y-94446900D02*
X126524800Y-94446900D01*
X122849300Y-95250100D02*
X123652500Y-94446900D01*
X122849300Y-95524300D02*
X122849300Y-95250100D01*
X122118000Y-95524300D02*
X122849300Y-95524300D01*
X133046000Y-101778000D02*
X131902200Y-101778000D01*
X126060000Y-95524300D02*
X126060000Y-96555600D01*
X128257300Y-101778000D02*
X131902200Y-101778000D01*
X126361900Y-99882600D02*
X128257300Y-101778000D01*
X126361900Y-96857500D02*
X126361900Y-99882600D01*
X126060000Y-96555600D02*
X126361900Y-96857500D01*
D27*
X130159000Y-107787000D02*
X130159000Y-106742700D01*
X130089000Y-99410500D02*
X130858300Y-99410500D01*
X133046000Y-99218000D02*
X131864200Y-99218000D01*
X113038000Y-101933000D02*
X111760000Y-101933000D01*
X111760000Y-101933000D02*
X110498000Y-101933000D01*
X111425400Y-88283300D02*
X111661700Y-88047000D01*
X111425400Y-93283000D02*
X111425400Y-88283300D01*
X110723300Y-93985100D02*
X111425400Y-93283000D01*
X110609600Y-93985100D02*
X110723300Y-93985100D01*
X110270700Y-94324000D02*
X110609600Y-93985100D01*
X110270700Y-95871200D02*
X110270700Y-94324000D01*
X111760000Y-97360500D02*
X110270700Y-95871200D01*
X111760000Y-101933000D02*
X111760000Y-97360500D01*
X112756000Y-88047000D02*
X111661700Y-88047000D01*
X131671700Y-99410500D02*
X131864200Y-99218000D01*
X130858300Y-99410500D02*
X131671700Y-99410500D01*
X130089000Y-99005800D02*
X130089000Y-98341200D01*
X130089000Y-99005800D02*
X130089000Y-99410500D01*
X130159000Y-106742700D02*
X130159000Y-105219200D01*
X130200000Y-105178200D02*
X130159000Y-105219200D01*
X130200000Y-103099000D02*
X130200000Y-105178200D01*
X130159000Y-105219200D02*
X127686600Y-105219200D01*
X130650500Y-97779700D02*
X130650500Y-97457200D01*
X130089000Y-98341200D02*
X130650500Y-97779700D01*
D28*
G36*
X117342653Y-103326123D02*
X117297560Y-103548800D01*
X117297560Y-107048800D01*
X117341838Y-107284117D01*
X117480910Y-107500241D01*
X117693110Y-107645231D01*
X117945000Y-107696240D01*
X121445000Y-107696240D01*
X121680317Y-107651962D01*
X121896441Y-107512890D01*
X122041431Y-107300690D01*
X122092440Y-107048800D01*
X122092440Y-106098800D01*
X125702800Y-106098800D01*
X125702800Y-107050100D01*
X125748465Y-107279673D01*
X125763696Y-107356247D01*
X125937115Y-107615785D01*
X126674015Y-108352685D01*
X126933553Y-108526104D01*
X127036898Y-108546660D01*
X127055838Y-108647317D01*
X127141271Y-108780084D01*
X110577337Y-108788032D01*
X110447710Y-108782429D01*
X110333910Y-108767487D01*
X110221843Y-108742674D01*
X110112383Y-108708183D01*
X110006336Y-108664268D01*
X109904527Y-108611270D01*
X109807738Y-108549597D01*
X109716690Y-108479710D01*
X109632088Y-108402147D01*
X109554580Y-108317504D01*
X109484741Y-108226408D01*
X109423127Y-108129584D01*
X109370186Y-108027738D01*
X109326339Y-107921676D01*
X109291910Y-107812185D01*
X109276814Y-107743816D01*
X109276697Y-106034590D01*
X110080460Y-106034590D01*
X110086320Y-106124000D01*
X110080460Y-106213410D01*
X110119645Y-106511051D01*
X110148448Y-106595900D01*
X110165928Y-106683781D01*
X110280814Y-106961139D01*
X110330592Y-107035636D01*
X110370223Y-107116001D01*
X110552979Y-107354174D01*
X110620347Y-107413253D01*
X110679426Y-107480621D01*
X110917599Y-107663377D01*
X110997962Y-107703007D01*
X111072461Y-107752786D01*
X111349818Y-107867672D01*
X111437699Y-107885152D01*
X111522548Y-107913955D01*
X111820190Y-107953140D01*
X111909597Y-107947279D01*
X111999010Y-107953140D01*
X112296651Y-107913955D01*
X112381500Y-107885152D01*
X112469381Y-107867672D01*
X112746739Y-107752786D01*
X112821236Y-107703008D01*
X112901601Y-107663377D01*
X113139774Y-107480621D01*
X113198853Y-107413253D01*
X113266221Y-107354174D01*
X113448977Y-107116001D01*
X113488607Y-107035638D01*
X113538386Y-106961139D01*
X113653272Y-106683782D01*
X113670752Y-106595901D01*
X113699555Y-106511052D01*
X113738740Y-106213410D01*
X113732879Y-106124000D01*
X113738740Y-106034590D01*
X113699555Y-105736948D01*
X113670752Y-105652099D01*
X113653272Y-105564218D01*
X113538386Y-105286861D01*
X113488607Y-105212362D01*
X113448977Y-105131999D01*
X113266221Y-104893826D01*
X113198853Y-104834747D01*
X113139774Y-104767379D01*
X112901601Y-104584623D01*
X112821236Y-104544992D01*
X112746739Y-104495214D01*
X112469381Y-104380328D01*
X112381500Y-104362848D01*
X112296651Y-104334045D01*
X111999010Y-104294860D01*
X111909597Y-104300721D01*
X111820190Y-104294860D01*
X111522548Y-104334045D01*
X111437699Y-104362848D01*
X111349818Y-104380328D01*
X111072461Y-104495214D01*
X110997962Y-104544993D01*
X110917599Y-104584623D01*
X110679426Y-104767379D01*
X110620347Y-104834747D01*
X110552979Y-104893826D01*
X110370223Y-105131999D01*
X110330592Y-105212364D01*
X110280814Y-105286861D01*
X110165928Y-105564219D01*
X110148448Y-105652100D01*
X110119645Y-105736949D01*
X110080460Y-106034590D01*
X109276697Y-106034590D01*
X109276509Y-103309535D01*
X109288301Y-103321327D01*
X109521690Y-103418000D01*
X110212250Y-103418000D01*
X110371000Y-103259250D01*
X110371000Y-102060000D01*
X110625000Y-102060000D01*
X110625000Y-103259250D01*
X110783750Y-103418000D01*
X111474310Y-103418000D01*
X111707699Y-103321327D01*
X111886327Y-103142698D01*
X111973136Y-102933122D01*
X112271076Y-103204645D01*
X112681110Y-103374476D01*
X112911000Y-103253155D01*
X112911000Y-102060000D01*
X113165000Y-102060000D01*
X113165000Y-103253155D01*
X113394890Y-103374476D01*
X113804924Y-103204645D01*
X114233183Y-102814358D01*
X114479486Y-102289892D01*
X114358819Y-102060000D01*
X113165000Y-102060000D01*
X112911000Y-102060000D01*
X110625000Y-102060000D01*
X110371000Y-102060000D01*
X110351000Y-102060000D01*
X110351000Y-101806000D01*
X110371000Y-101806000D01*
X110371000Y-101786000D01*
X110625000Y-101786000D01*
X110625000Y-101806000D01*
X112911000Y-101806000D01*
X112911000Y-101786000D01*
X113165000Y-101786000D01*
X113165000Y-101806000D01*
X114358819Y-101806000D01*
X114479486Y-101576108D01*
X114233183Y-101051642D01*
X113804924Y-100661355D01*
X113560259Y-100560018D01*
X113598285Y-100552454D01*
X114080054Y-100230547D01*
X114146954Y-100130424D01*
X117342653Y-103326123D01*
X117342653Y-103326123D01*
G37*
X117342653Y-103326123D02*
X117297560Y-103548800D01*
X117297560Y-107048800D01*
X117341838Y-107284117D01*
X117480910Y-107500241D01*
X117693110Y-107645231D01*
X117945000Y-107696240D01*
X121445000Y-107696240D01*
X121680317Y-107651962D01*
X121896441Y-107512890D01*
X122041431Y-107300690D01*
X122092440Y-107048800D01*
X122092440Y-106098800D01*
X125702800Y-106098800D01*
X125702800Y-107050100D01*
X125748465Y-107279673D01*
X125763696Y-107356247D01*
X125937115Y-107615785D01*
X126674015Y-108352685D01*
X126933553Y-108526104D01*
X127036898Y-108546660D01*
X127055838Y-108647317D01*
X127141271Y-108780084D01*
X110577337Y-108788032D01*
X110447710Y-108782429D01*
X110333910Y-108767487D01*
X110221843Y-108742674D01*
X110112383Y-108708183D01*
X110006336Y-108664268D01*
X109904527Y-108611270D01*
X109807738Y-108549597D01*
X109716690Y-108479710D01*
X109632088Y-108402147D01*
X109554580Y-108317504D01*
X109484741Y-108226408D01*
X109423127Y-108129584D01*
X109370186Y-108027738D01*
X109326339Y-107921676D01*
X109291910Y-107812185D01*
X109276814Y-107743816D01*
X109276697Y-106034590D01*
X110080460Y-106034590D01*
X110086320Y-106124000D01*
X110080460Y-106213410D01*
X110119645Y-106511051D01*
X110148448Y-106595900D01*
X110165928Y-106683781D01*
X110280814Y-106961139D01*
X110330592Y-107035636D01*
X110370223Y-107116001D01*
X110552979Y-107354174D01*
X110620347Y-107413253D01*
X110679426Y-107480621D01*
X110917599Y-107663377D01*
X110997962Y-107703007D01*
X111072461Y-107752786D01*
X111349818Y-107867672D01*
X111437699Y-107885152D01*
X111522548Y-107913955D01*
X111820190Y-107953140D01*
X111909597Y-107947279D01*
X111999010Y-107953140D01*
X112296651Y-107913955D01*
X112381500Y-107885152D01*
X112469381Y-107867672D01*
X112746739Y-107752786D01*
X112821236Y-107703008D01*
X112901601Y-107663377D01*
X113139774Y-107480621D01*
X113198853Y-107413253D01*
X113266221Y-107354174D01*
X113448977Y-107116001D01*
X113488607Y-107035638D01*
X113538386Y-106961139D01*
X113653272Y-106683782D01*
X113670752Y-106595901D01*
X113699555Y-106511052D01*
X113738740Y-106213410D01*
X113732879Y-106124000D01*
X113738740Y-106034590D01*
X113699555Y-105736948D01*
X113670752Y-105652099D01*
X113653272Y-105564218D01*
X113538386Y-105286861D01*
X113488607Y-105212362D01*
X113448977Y-105131999D01*
X113266221Y-104893826D01*
X113198853Y-104834747D01*
X113139774Y-104767379D01*
X112901601Y-104584623D01*
X112821236Y-104544992D01*
X112746739Y-104495214D01*
X112469381Y-104380328D01*
X112381500Y-104362848D01*
X112296651Y-104334045D01*
X111999010Y-104294860D01*
X111909597Y-104300721D01*
X111820190Y-104294860D01*
X111522548Y-104334045D01*
X111437699Y-104362848D01*
X111349818Y-104380328D01*
X111072461Y-104495214D01*
X110997962Y-104544993D01*
X110917599Y-104584623D01*
X110679426Y-104767379D01*
X110620347Y-104834747D01*
X110552979Y-104893826D01*
X110370223Y-105131999D01*
X110330592Y-105212364D01*
X110280814Y-105286861D01*
X110165928Y-105564219D01*
X110148448Y-105652100D01*
X110119645Y-105736949D01*
X110080460Y-106034590D01*
X109276697Y-106034590D01*
X109276509Y-103309535D01*
X109288301Y-103321327D01*
X109521690Y-103418000D01*
X110212250Y-103418000D01*
X110371000Y-103259250D01*
X110371000Y-102060000D01*
X110625000Y-102060000D01*
X110625000Y-103259250D01*
X110783750Y-103418000D01*
X111474310Y-103418000D01*
X111707699Y-103321327D01*
X111886327Y-103142698D01*
X111973136Y-102933122D01*
X112271076Y-103204645D01*
X112681110Y-103374476D01*
X112911000Y-103253155D01*
X112911000Y-102060000D01*
X113165000Y-102060000D01*
X113165000Y-103253155D01*
X113394890Y-103374476D01*
X113804924Y-103204645D01*
X114233183Y-102814358D01*
X114479486Y-102289892D01*
X114358819Y-102060000D01*
X113165000Y-102060000D01*
X112911000Y-102060000D01*
X110625000Y-102060000D01*
X110371000Y-102060000D01*
X110351000Y-102060000D01*
X110351000Y-101806000D01*
X110371000Y-101806000D01*
X110371000Y-101786000D01*
X110625000Y-101786000D01*
X110625000Y-101806000D01*
X112911000Y-101806000D01*
X112911000Y-101786000D01*
X113165000Y-101786000D01*
X113165000Y-101806000D01*
X114358819Y-101806000D01*
X114479486Y-101576108D01*
X114233183Y-101051642D01*
X113804924Y-100661355D01*
X113560259Y-100560018D01*
X113598285Y-100552454D01*
X114080054Y-100230547D01*
X114146954Y-100130424D01*
X117342653Y-103326123D01*
G36*
X172874056Y-107458688D02*
X172868434Y-107588225D01*
X172853495Y-107701920D01*
X172828699Y-107813891D01*
X172794237Y-107923274D01*
X172750373Y-108029231D01*
X172697435Y-108130971D01*
X172635836Y-108227698D01*
X172566033Y-108318696D01*
X172488569Y-108403258D01*
X172404025Y-108480748D01*
X172313048Y-108550574D01*
X172216333Y-108612201D01*
X172114626Y-108665157D01*
X172008661Y-108709057D01*
X171899300Y-108743545D01*
X171831220Y-108758641D01*
X152898440Y-108767725D01*
X152898440Y-108132700D01*
X161070700Y-108132700D01*
X161362305Y-108074696D01*
X161609515Y-107909515D01*
X163484440Y-106034590D01*
X168380460Y-106034590D01*
X168386320Y-106124000D01*
X168380460Y-106213410D01*
X168419645Y-106511051D01*
X168448448Y-106595900D01*
X168465928Y-106683781D01*
X168580814Y-106961139D01*
X168630592Y-107035636D01*
X168670223Y-107116001D01*
X168852979Y-107354174D01*
X168920347Y-107413253D01*
X168979426Y-107480621D01*
X169217599Y-107663377D01*
X169297962Y-107703007D01*
X169372461Y-107752786D01*
X169649818Y-107867672D01*
X169737699Y-107885152D01*
X169822548Y-107913955D01*
X170120190Y-107953140D01*
X170209597Y-107947279D01*
X170299010Y-107953140D01*
X170596651Y-107913955D01*
X170681500Y-107885152D01*
X170769381Y-107867672D01*
X171046739Y-107752786D01*
X171121236Y-107703008D01*
X171201601Y-107663377D01*
X171439774Y-107480621D01*
X171498853Y-107413253D01*
X171566221Y-107354174D01*
X171748977Y-107116001D01*
X171788607Y-107035638D01*
X171838386Y-106961139D01*
X171953272Y-106683782D01*
X171970752Y-106595901D01*
X171999555Y-106511052D01*
X172038740Y-106213410D01*
X172032879Y-106124000D01*
X172038740Y-106034590D01*
X171999555Y-105736948D01*
X171970752Y-105652099D01*
X171953272Y-105564218D01*
X171838386Y-105286861D01*
X171788607Y-105212362D01*
X171748977Y-105131999D01*
X171566221Y-104893826D01*
X171498853Y-104834747D01*
X171439774Y-104767379D01*
X171201601Y-104584623D01*
X171121236Y-104544992D01*
X171046739Y-104495214D01*
X170769381Y-104380328D01*
X170681500Y-104362848D01*
X170596651Y-104334045D01*
X170299010Y-104294860D01*
X170209597Y-104300721D01*
X170120190Y-104294860D01*
X169822548Y-104334045D01*
X169737699Y-104362848D01*
X169649818Y-104380328D01*
X169372461Y-104495214D01*
X169297962Y-104544993D01*
X169217599Y-104584623D01*
X168979426Y-104767379D01*
X168920347Y-104834747D01*
X168852979Y-104893826D01*
X168670223Y-105131999D01*
X168630592Y-105212364D01*
X168580814Y-105286861D01*
X168465928Y-105564219D01*
X168448448Y-105652100D01*
X168419645Y-105736949D01*
X168380460Y-106034590D01*
X163484440Y-106034590D01*
X169730515Y-99788516D01*
X169895696Y-99541305D01*
X169899871Y-99520317D01*
X169953700Y-99249700D01*
X169953700Y-98985810D01*
X170044691Y-99023500D01*
X170735250Y-99023500D01*
X170894000Y-98864750D01*
X170894000Y-97665500D01*
X171148000Y-97665500D01*
X171148000Y-98864750D01*
X171306750Y-99023500D01*
X171997309Y-99023500D01*
X172230698Y-98926827D01*
X172409327Y-98748199D01*
X172506000Y-98514810D01*
X172506000Y-97824250D01*
X172347250Y-97665500D01*
X171148000Y-97665500D01*
X170894000Y-97665500D01*
X170874000Y-97665500D01*
X170874000Y-97411500D01*
X170894000Y-97411500D01*
X170894000Y-97391500D01*
X171148000Y-97391500D01*
X171148000Y-97411500D01*
X172347250Y-97411500D01*
X172506000Y-97252750D01*
X172506000Y-96562190D01*
X172445383Y-96415848D01*
X172792615Y-96068616D01*
X172870947Y-95951384D01*
X172874056Y-107458688D01*
X172874056Y-107458688D01*
G37*
X172874056Y-107458688D02*
X172868434Y-107588225D01*
X172853495Y-107701920D01*
X172828699Y-107813891D01*
X172794237Y-107923274D01*
X172750373Y-108029231D01*
X172697435Y-108130971D01*
X172635836Y-108227698D01*
X172566033Y-108318696D01*
X172488569Y-108403258D01*
X172404025Y-108480748D01*
X172313048Y-108550574D01*
X172216333Y-108612201D01*
X172114626Y-108665157D01*
X172008661Y-108709057D01*
X171899300Y-108743545D01*
X171831220Y-108758641D01*
X152898440Y-108767725D01*
X152898440Y-108132700D01*
X161070700Y-108132700D01*
X161362305Y-108074696D01*
X161609515Y-107909515D01*
X163484440Y-106034590D01*
X168380460Y-106034590D01*
X168386320Y-106124000D01*
X168380460Y-106213410D01*
X168419645Y-106511051D01*
X168448448Y-106595900D01*
X168465928Y-106683781D01*
X168580814Y-106961139D01*
X168630592Y-107035636D01*
X168670223Y-107116001D01*
X168852979Y-107354174D01*
X168920347Y-107413253D01*
X168979426Y-107480621D01*
X169217599Y-107663377D01*
X169297962Y-107703007D01*
X169372461Y-107752786D01*
X169649818Y-107867672D01*
X169737699Y-107885152D01*
X169822548Y-107913955D01*
X170120190Y-107953140D01*
X170209597Y-107947279D01*
X170299010Y-107953140D01*
X170596651Y-107913955D01*
X170681500Y-107885152D01*
X170769381Y-107867672D01*
X171046739Y-107752786D01*
X171121236Y-107703008D01*
X171201601Y-107663377D01*
X171439774Y-107480621D01*
X171498853Y-107413253D01*
X171566221Y-107354174D01*
X171748977Y-107116001D01*
X171788607Y-107035638D01*
X171838386Y-106961139D01*
X171953272Y-106683782D01*
X171970752Y-106595901D01*
X171999555Y-106511052D01*
X172038740Y-106213410D01*
X172032879Y-106124000D01*
X172038740Y-106034590D01*
X171999555Y-105736948D01*
X171970752Y-105652099D01*
X171953272Y-105564218D01*
X171838386Y-105286861D01*
X171788607Y-105212362D01*
X171748977Y-105131999D01*
X171566221Y-104893826D01*
X171498853Y-104834747D01*
X171439774Y-104767379D01*
X171201601Y-104584623D01*
X171121236Y-104544992D01*
X171046739Y-104495214D01*
X170769381Y-104380328D01*
X170681500Y-104362848D01*
X170596651Y-104334045D01*
X170299010Y-104294860D01*
X170209597Y-104300721D01*
X170120190Y-104294860D01*
X169822548Y-104334045D01*
X169737699Y-104362848D01*
X169649818Y-104380328D01*
X169372461Y-104495214D01*
X169297962Y-104544993D01*
X169217599Y-104584623D01*
X168979426Y-104767379D01*
X168920347Y-104834747D01*
X168852979Y-104893826D01*
X168670223Y-105131999D01*
X168630592Y-105212364D01*
X168580814Y-105286861D01*
X168465928Y-105564219D01*
X168448448Y-105652100D01*
X168419645Y-105736949D01*
X168380460Y-106034590D01*
X163484440Y-106034590D01*
X169730515Y-99788516D01*
X169895696Y-99541305D01*
X169899871Y-99520317D01*
X169953700Y-99249700D01*
X169953700Y-98985810D01*
X170044691Y-99023500D01*
X170735250Y-99023500D01*
X170894000Y-98864750D01*
X170894000Y-97665500D01*
X171148000Y-97665500D01*
X171148000Y-98864750D01*
X171306750Y-99023500D01*
X171997309Y-99023500D01*
X172230698Y-98926827D01*
X172409327Y-98748199D01*
X172506000Y-98514810D01*
X172506000Y-97824250D01*
X172347250Y-97665500D01*
X171148000Y-97665500D01*
X170894000Y-97665500D01*
X170874000Y-97665500D01*
X170874000Y-97411500D01*
X170894000Y-97411500D01*
X170894000Y-97391500D01*
X171148000Y-97391500D01*
X171148000Y-97411500D01*
X172347250Y-97411500D01*
X172506000Y-97252750D01*
X172506000Y-96562190D01*
X172445383Y-96415848D01*
X172792615Y-96068616D01*
X172870947Y-95951384D01*
X172874056Y-107458688D01*
G36*
X131636060Y-102638000D02*
X131655567Y-102741671D01*
X131636060Y-102838000D01*
X131636060Y-103278000D01*
X131655567Y-103381671D01*
X131636060Y-103478000D01*
X131636060Y-103918000D01*
X131655567Y-104021671D01*
X131636060Y-104118000D01*
X131636060Y-104558000D01*
X131680338Y-104793317D01*
X131819410Y-105009441D01*
X132031610Y-105154431D01*
X132283500Y-105205440D01*
X133427800Y-105205440D01*
X133427800Y-106294500D01*
X133472689Y-106520172D01*
X133488696Y-106600647D01*
X133604879Y-106774526D01*
X133539569Y-106870110D01*
X133488560Y-107122000D01*
X133488560Y-108031400D01*
X131252650Y-108031400D01*
X131135250Y-107914000D01*
X130286000Y-107914000D01*
X130286000Y-107934000D01*
X130032000Y-107934000D01*
X130032000Y-107914000D01*
X130012000Y-107914000D01*
X130012000Y-107660000D01*
X130032000Y-107660000D01*
X130032000Y-106685750D01*
X130286000Y-106685750D01*
X130286000Y-107660000D01*
X131135250Y-107660000D01*
X131294000Y-107501250D01*
X131294000Y-107035690D01*
X131197327Y-106802301D01*
X131018698Y-106623673D01*
X130785309Y-106527000D01*
X130444750Y-106527000D01*
X130286000Y-106685750D01*
X130032000Y-106685750D01*
X129873250Y-106527000D01*
X129532691Y-106527000D01*
X129299302Y-106623673D01*
X129158064Y-106764910D01*
X129123090Y-106710559D01*
X128910890Y-106565569D01*
X128659000Y-106514560D01*
X127659000Y-106514560D01*
X127423683Y-106558838D01*
X127302800Y-106636624D01*
X127302800Y-105630170D01*
X127846386Y-105086585D01*
X128019804Y-104827047D01*
X128080700Y-104520900D01*
X128080700Y-104371440D01*
X128700000Y-104371440D01*
X128935317Y-104327162D01*
X129151441Y-104188090D01*
X129197969Y-104119994D01*
X129340302Y-104262327D01*
X129573691Y-104359000D01*
X129914250Y-104359000D01*
X130073000Y-104200250D01*
X130073000Y-103226000D01*
X130327000Y-103226000D01*
X130327000Y-104200250D01*
X130485750Y-104359000D01*
X130826309Y-104359000D01*
X131059698Y-104262327D01*
X131238327Y-104083699D01*
X131335000Y-103850310D01*
X131335000Y-103384750D01*
X131176250Y-103226000D01*
X130327000Y-103226000D01*
X130073000Y-103226000D01*
X130053000Y-103226000D01*
X130053000Y-102972000D01*
X130073000Y-102972000D01*
X130073000Y-102952000D01*
X130327000Y-102952000D01*
X130327000Y-102972000D01*
X131176250Y-102972000D01*
X131335000Y-102813250D01*
X131335000Y-102540000D01*
X131636060Y-102540000D01*
X131636060Y-102638000D01*
X131636060Y-102638000D01*
G37*
X131636060Y-102638000D02*
X131655567Y-102741671D01*
X131636060Y-102838000D01*
X131636060Y-103278000D01*
X131655567Y-103381671D01*
X131636060Y-103478000D01*
X131636060Y-103918000D01*
X131655567Y-104021671D01*
X131636060Y-104118000D01*
X131636060Y-104558000D01*
X131680338Y-104793317D01*
X131819410Y-105009441D01*
X132031610Y-105154431D01*
X132283500Y-105205440D01*
X133427800Y-105205440D01*
X133427800Y-106294500D01*
X133472689Y-106520172D01*
X133488696Y-106600647D01*
X133604879Y-106774526D01*
X133539569Y-106870110D01*
X133488560Y-107122000D01*
X133488560Y-108031400D01*
X131252650Y-108031400D01*
X131135250Y-107914000D01*
X130286000Y-107914000D01*
X130286000Y-107934000D01*
X130032000Y-107934000D01*
X130032000Y-107914000D01*
X130012000Y-107914000D01*
X130012000Y-107660000D01*
X130032000Y-107660000D01*
X130032000Y-106685750D01*
X130286000Y-106685750D01*
X130286000Y-107660000D01*
X131135250Y-107660000D01*
X131294000Y-107501250D01*
X131294000Y-107035690D01*
X131197327Y-106802301D01*
X131018698Y-106623673D01*
X130785309Y-106527000D01*
X130444750Y-106527000D01*
X130286000Y-106685750D01*
X130032000Y-106685750D01*
X129873250Y-106527000D01*
X129532691Y-106527000D01*
X129299302Y-106623673D01*
X129158064Y-106764910D01*
X129123090Y-106710559D01*
X128910890Y-106565569D01*
X128659000Y-106514560D01*
X127659000Y-106514560D01*
X127423683Y-106558838D01*
X127302800Y-106636624D01*
X127302800Y-105630170D01*
X127846386Y-105086585D01*
X128019804Y-104827047D01*
X128080700Y-104520900D01*
X128080700Y-104371440D01*
X128700000Y-104371440D01*
X128935317Y-104327162D01*
X129151441Y-104188090D01*
X129197969Y-104119994D01*
X129340302Y-104262327D01*
X129573691Y-104359000D01*
X129914250Y-104359000D01*
X130073000Y-104200250D01*
X130073000Y-103226000D01*
X130327000Y-103226000D01*
X130327000Y-104200250D01*
X130485750Y-104359000D01*
X130826309Y-104359000D01*
X131059698Y-104262327D01*
X131238327Y-104083699D01*
X131335000Y-103850310D01*
X131335000Y-103384750D01*
X131176250Y-103226000D01*
X130327000Y-103226000D01*
X130073000Y-103226000D01*
X130053000Y-103226000D01*
X130053000Y-102972000D01*
X130073000Y-102972000D01*
X130073000Y-102952000D01*
X130327000Y-102952000D01*
X130327000Y-102972000D01*
X131176250Y-102972000D01*
X131335000Y-102813250D01*
X131335000Y-102540000D01*
X131636060Y-102540000D01*
X131636060Y-102638000D01*
G36*
X109674948Y-94082000D02*
X110205427Y-94082000D01*
X110093569Y-94245710D01*
X110042560Y-94497600D01*
X110042560Y-95697600D01*
X110086838Y-95932917D01*
X110225910Y-96149041D01*
X110438110Y-96294031D01*
X110690000Y-96345040D01*
X111890000Y-96345040D01*
X111902128Y-96342758D01*
X112177084Y-96617715D01*
X112416162Y-96777462D01*
X112424295Y-96782896D01*
X112715900Y-96840900D01*
X114838200Y-96840900D01*
X115129805Y-96782896D01*
X115330847Y-96648563D01*
X115517110Y-96775831D01*
X115769000Y-96826840D01*
X116469000Y-96826840D01*
X116666388Y-96789699D01*
X116704812Y-96847205D01*
X116748785Y-96913015D01*
X117265984Y-97430215D01*
X117310000Y-97459626D01*
X117310000Y-99013050D01*
X117468750Y-99171800D01*
X119568000Y-99171800D01*
X119568000Y-99151800D01*
X119822000Y-99151800D01*
X119822000Y-99171800D01*
X121921250Y-99171800D01*
X122080000Y-99013050D01*
X122080000Y-97653400D01*
X122092370Y-97653400D01*
X122739685Y-98300715D01*
X122986895Y-98465896D01*
X123278500Y-98523900D01*
X125016617Y-98523900D01*
X125083041Y-98590440D01*
X125442330Y-98739630D01*
X125599900Y-98739767D01*
X125599900Y-99882600D01*
X125603632Y-99901360D01*
X122645000Y-99901360D01*
X122409683Y-99945638D01*
X122193559Y-100084710D01*
X122080000Y-100250909D01*
X122080000Y-99584550D01*
X121921250Y-99425800D01*
X119822000Y-99425800D01*
X119822000Y-101525050D01*
X119980750Y-101683800D01*
X121571310Y-101683800D01*
X121804699Y-101587127D01*
X121983327Y-101408498D01*
X121997560Y-101374137D01*
X121997560Y-103234845D01*
X121909090Y-103097359D01*
X121696890Y-102952369D01*
X121445000Y-102901360D01*
X120449620Y-102901360D01*
X120434104Y-102823353D01*
X120260685Y-102563815D01*
X120001147Y-102390396D01*
X119695000Y-102329500D01*
X118608770Y-102329500D01*
X117963070Y-101683800D01*
X119409250Y-101683800D01*
X119568000Y-101525050D01*
X119568000Y-99425800D01*
X117468750Y-99425800D01*
X117310000Y-99584550D01*
X117310000Y-101030730D01*
X114864985Y-98585715D01*
X114605447Y-98412296D01*
X114593351Y-98409890D01*
X114299300Y-98351400D01*
X114266574Y-98351400D01*
X114080054Y-98072253D01*
X113598285Y-97750346D01*
X113030000Y-97637307D01*
X112461715Y-97750346D01*
X111979946Y-98072253D01*
X111952150Y-98113852D01*
X111943162Y-98066083D01*
X111804090Y-97849959D01*
X111591890Y-97704969D01*
X111340000Y-97653960D01*
X109640000Y-97653960D01*
X109404683Y-97698238D01*
X109276129Y-97780960D01*
X109275869Y-94002618D01*
X109674948Y-94082000D01*
X109674948Y-94082000D01*
G37*
X109674948Y-94082000D02*
X110205427Y-94082000D01*
X110093569Y-94245710D01*
X110042560Y-94497600D01*
X110042560Y-95697600D01*
X110086838Y-95932917D01*
X110225910Y-96149041D01*
X110438110Y-96294031D01*
X110690000Y-96345040D01*
X111890000Y-96345040D01*
X111902128Y-96342758D01*
X112177084Y-96617715D01*
X112416162Y-96777462D01*
X112424295Y-96782896D01*
X112715900Y-96840900D01*
X114838200Y-96840900D01*
X115129805Y-96782896D01*
X115330847Y-96648563D01*
X115517110Y-96775831D01*
X115769000Y-96826840D01*
X116469000Y-96826840D01*
X116666388Y-96789699D01*
X116704812Y-96847205D01*
X116748785Y-96913015D01*
X117265984Y-97430215D01*
X117310000Y-97459626D01*
X117310000Y-99013050D01*
X117468750Y-99171800D01*
X119568000Y-99171800D01*
X119568000Y-99151800D01*
X119822000Y-99151800D01*
X119822000Y-99171800D01*
X121921250Y-99171800D01*
X122080000Y-99013050D01*
X122080000Y-97653400D01*
X122092370Y-97653400D01*
X122739685Y-98300715D01*
X122986895Y-98465896D01*
X123278500Y-98523900D01*
X125016617Y-98523900D01*
X125083041Y-98590440D01*
X125442330Y-98739630D01*
X125599900Y-98739767D01*
X125599900Y-99882600D01*
X125603632Y-99901360D01*
X122645000Y-99901360D01*
X122409683Y-99945638D01*
X122193559Y-100084710D01*
X122080000Y-100250909D01*
X122080000Y-99584550D01*
X121921250Y-99425800D01*
X119822000Y-99425800D01*
X119822000Y-101525050D01*
X119980750Y-101683800D01*
X121571310Y-101683800D01*
X121804699Y-101587127D01*
X121983327Y-101408498D01*
X121997560Y-101374137D01*
X121997560Y-103234845D01*
X121909090Y-103097359D01*
X121696890Y-102952369D01*
X121445000Y-102901360D01*
X120449620Y-102901360D01*
X120434104Y-102823353D01*
X120260685Y-102563815D01*
X120001147Y-102390396D01*
X119695000Y-102329500D01*
X118608770Y-102329500D01*
X117963070Y-101683800D01*
X119409250Y-101683800D01*
X119568000Y-101525050D01*
X119568000Y-99425800D01*
X117468750Y-99425800D01*
X117310000Y-99584550D01*
X117310000Y-101030730D01*
X114864985Y-98585715D01*
X114605447Y-98412296D01*
X114593351Y-98409890D01*
X114299300Y-98351400D01*
X114266574Y-98351400D01*
X114080054Y-98072253D01*
X113598285Y-97750346D01*
X113030000Y-97637307D01*
X112461715Y-97750346D01*
X111979946Y-98072253D01*
X111952150Y-98113852D01*
X111943162Y-98066083D01*
X111804090Y-97849959D01*
X111591890Y-97704969D01*
X111340000Y-97653960D01*
X109640000Y-97653960D01*
X109404683Y-97698238D01*
X109276129Y-97780960D01*
X109275869Y-94002618D01*
X109674948Y-94082000D01*
G36*
X155618426Y-95270134D02*
X155733481Y-95385189D01*
X155492540Y-95453177D01*
X155307799Y-95972271D01*
X155335770Y-96522548D01*
X155492540Y-96901023D01*
X155733483Y-96969012D01*
X156525395Y-96177100D01*
X156511253Y-96162958D01*
X156690858Y-95983353D01*
X156705000Y-95997495D01*
X156719143Y-95983353D01*
X156898748Y-96162958D01*
X156884605Y-96177100D01*
X157676517Y-96969012D01*
X157917460Y-96901023D01*
X157976732Y-96734479D01*
X158070169Y-96960615D01*
X158459436Y-97350561D01*
X158858290Y-97516180D01*
X155358470Y-101016000D01*
X149302630Y-101016000D01*
X151021058Y-99297572D01*
X151333980Y-100054900D01*
X151934041Y-100656009D01*
X152718459Y-100981728D01*
X153567815Y-100982470D01*
X154352800Y-100658120D01*
X154953909Y-100058059D01*
X155279628Y-99273641D01*
X155280370Y-98424285D01*
X154956020Y-97639300D01*
X154466193Y-97148617D01*
X155913088Y-97148617D01*
X155981077Y-97389560D01*
X156500171Y-97574301D01*
X157050448Y-97546330D01*
X157428923Y-97389560D01*
X157496912Y-97148617D01*
X156705000Y-96356705D01*
X155913088Y-97148617D01*
X154466193Y-97148617D01*
X154355959Y-97038191D01*
X153596002Y-96722629D01*
X155128331Y-95190300D01*
X155698260Y-95190300D01*
X155618426Y-95270134D01*
X155618426Y-95270134D01*
G37*
X155618426Y-95270134D02*
X155733481Y-95385189D01*
X155492540Y-95453177D01*
X155307799Y-95972271D01*
X155335770Y-96522548D01*
X155492540Y-96901023D01*
X155733483Y-96969012D01*
X156525395Y-96177100D01*
X156511253Y-96162958D01*
X156690858Y-95983353D01*
X156705000Y-95997495D01*
X156719143Y-95983353D01*
X156898748Y-96162958D01*
X156884605Y-96177100D01*
X157676517Y-96969012D01*
X157917460Y-96901023D01*
X157976732Y-96734479D01*
X158070169Y-96960615D01*
X158459436Y-97350561D01*
X158858290Y-97516180D01*
X155358470Y-101016000D01*
X149302630Y-101016000D01*
X151021058Y-99297572D01*
X151333980Y-100054900D01*
X151934041Y-100656009D01*
X152718459Y-100981728D01*
X153567815Y-100982470D01*
X154352800Y-100658120D01*
X154953909Y-100058059D01*
X155279628Y-99273641D01*
X155280370Y-98424285D01*
X154956020Y-97639300D01*
X154466193Y-97148617D01*
X155913088Y-97148617D01*
X155981077Y-97389560D01*
X156500171Y-97574301D01*
X157050448Y-97546330D01*
X157428923Y-97389560D01*
X157496912Y-97148617D01*
X156705000Y-96356705D01*
X155913088Y-97148617D01*
X154466193Y-97148617D01*
X154355959Y-97038191D01*
X153596002Y-96722629D01*
X155128331Y-95190300D01*
X155698260Y-95190300D01*
X155618426Y-95270134D01*
G36*
X147122980Y-91273200D02*
X147723041Y-91874309D01*
X148507459Y-92200028D01*
X149356815Y-92200770D01*
X150141800Y-91876420D01*
X150742909Y-91276359D01*
X150913554Y-90865400D01*
X151698578Y-90865400D01*
X151843980Y-91217300D01*
X152444041Y-91818409D01*
X153228459Y-92144128D01*
X154077815Y-92144870D01*
X154757966Y-91863837D01*
X155320221Y-92426091D01*
X155319760Y-92953785D01*
X155403809Y-93157200D01*
X154602800Y-93157200D01*
X154353631Y-93206763D01*
X154311195Y-93215204D01*
X154063985Y-93380385D01*
X149058440Y-98385930D01*
X149058440Y-94785000D01*
X149014162Y-94549683D01*
X148875090Y-94333559D01*
X148662890Y-94188569D01*
X148411000Y-94137560D01*
X146411000Y-94137560D01*
X146175683Y-94181838D01*
X145959559Y-94320910D01*
X145814569Y-94533110D01*
X145763560Y-94785000D01*
X145763560Y-96057066D01*
X145608137Y-96056931D01*
X145248588Y-96205493D01*
X144973260Y-96480341D01*
X144824070Y-96839630D01*
X144823731Y-97228663D01*
X144972293Y-97588212D01*
X145247141Y-97863540D01*
X145606430Y-98012730D01*
X145763560Y-98012867D01*
X145763560Y-99285000D01*
X145807838Y-99520317D01*
X145946626Y-99736000D01*
X144336440Y-99736000D01*
X144336440Y-98760100D01*
X144292162Y-98524783D01*
X144153090Y-98308659D01*
X144031000Y-98225239D01*
X144031000Y-96639317D01*
X144032441Y-96638390D01*
X144177431Y-96426190D01*
X144206365Y-96283311D01*
X144306447Y-96263404D01*
X144565985Y-96089985D01*
X144571485Y-96084486D01*
X144744904Y-95824947D01*
X144762277Y-95737604D01*
X144805800Y-95518800D01*
X144805800Y-94003280D01*
X145169171Y-94132601D01*
X145719448Y-94104630D01*
X146097923Y-93947860D01*
X146165912Y-93706917D01*
X145374000Y-92915005D01*
X145359858Y-92929148D01*
X145180253Y-92749543D01*
X145194395Y-92735400D01*
X145553605Y-92735400D01*
X146345517Y-93527312D01*
X146586460Y-93459323D01*
X146771201Y-92940229D01*
X146743230Y-92389952D01*
X146586460Y-92011477D01*
X146345517Y-91943488D01*
X145553605Y-92735400D01*
X145194395Y-92735400D01*
X145180253Y-92721258D01*
X145359858Y-92541653D01*
X145374000Y-92555795D01*
X146165912Y-91763883D01*
X146097923Y-91522940D01*
X145886997Y-91447873D01*
X146469471Y-90865400D01*
X146954480Y-90865400D01*
X147122980Y-91273200D01*
X147122980Y-91273200D01*
G37*
X147122980Y-91273200D02*
X147723041Y-91874309D01*
X148507459Y-92200028D01*
X149356815Y-92200770D01*
X150141800Y-91876420D01*
X150742909Y-91276359D01*
X150913554Y-90865400D01*
X151698578Y-90865400D01*
X151843980Y-91217300D01*
X152444041Y-91818409D01*
X153228459Y-92144128D01*
X154077815Y-92144870D01*
X154757966Y-91863837D01*
X155320221Y-92426091D01*
X155319760Y-92953785D01*
X155403809Y-93157200D01*
X154602800Y-93157200D01*
X154353631Y-93206763D01*
X154311195Y-93215204D01*
X154063985Y-93380385D01*
X149058440Y-98385930D01*
X149058440Y-94785000D01*
X149014162Y-94549683D01*
X148875090Y-94333559D01*
X148662890Y-94188569D01*
X148411000Y-94137560D01*
X146411000Y-94137560D01*
X146175683Y-94181838D01*
X145959559Y-94320910D01*
X145814569Y-94533110D01*
X145763560Y-94785000D01*
X145763560Y-96057066D01*
X145608137Y-96056931D01*
X145248588Y-96205493D01*
X144973260Y-96480341D01*
X144824070Y-96839630D01*
X144823731Y-97228663D01*
X144972293Y-97588212D01*
X145247141Y-97863540D01*
X145606430Y-98012730D01*
X145763560Y-98012867D01*
X145763560Y-99285000D01*
X145807838Y-99520317D01*
X145946626Y-99736000D01*
X144336440Y-99736000D01*
X144336440Y-98760100D01*
X144292162Y-98524783D01*
X144153090Y-98308659D01*
X144031000Y-98225239D01*
X144031000Y-96639317D01*
X144032441Y-96638390D01*
X144177431Y-96426190D01*
X144206365Y-96283311D01*
X144306447Y-96263404D01*
X144565985Y-96089985D01*
X144571485Y-96084486D01*
X144744904Y-95824947D01*
X144762277Y-95737604D01*
X144805800Y-95518800D01*
X144805800Y-94003280D01*
X145169171Y-94132601D01*
X145719448Y-94104630D01*
X146097923Y-93947860D01*
X146165912Y-93706917D01*
X145374000Y-92915005D01*
X145359858Y-92929148D01*
X145180253Y-92749543D01*
X145194395Y-92735400D01*
X145553605Y-92735400D01*
X146345517Y-93527312D01*
X146586460Y-93459323D01*
X146771201Y-92940229D01*
X146743230Y-92389952D01*
X146586460Y-92011477D01*
X146345517Y-91943488D01*
X145553605Y-92735400D01*
X145194395Y-92735400D01*
X145180253Y-92721258D01*
X145359858Y-92541653D01*
X145374000Y-92555795D01*
X146165912Y-91763883D01*
X146097923Y-91522940D01*
X145886997Y-91447873D01*
X146469471Y-90865400D01*
X146954480Y-90865400D01*
X147122980Y-91273200D01*
G36*
X131147980Y-97977110D02*
X131198204Y-98229605D01*
X131363385Y-98476815D01*
X131610595Y-98641996D01*
X131636060Y-98647061D01*
X131636060Y-98798000D01*
X131649481Y-98869324D01*
X131648500Y-98871691D01*
X131648500Y-98949250D01*
X131668233Y-98968983D01*
X131680338Y-99033317D01*
X131800515Y-99220077D01*
X131687069Y-99386110D01*
X131671308Y-99463942D01*
X131660868Y-99474382D01*
X131487237Y-99474231D01*
X131127688Y-99622793D01*
X131064060Y-99686310D01*
X130915250Y-99537500D01*
X130216000Y-99537500D01*
X130216000Y-99557500D01*
X129962000Y-99557500D01*
X129962000Y-99537500D01*
X129942000Y-99537500D01*
X129942000Y-99283500D01*
X129962000Y-99283500D01*
X129962000Y-98284250D01*
X130216000Y-98284250D01*
X130216000Y-99283500D01*
X130915250Y-99283500D01*
X131074000Y-99124750D01*
X131074000Y-98634190D01*
X130977327Y-98400801D01*
X130798698Y-98222173D01*
X130565309Y-98125500D01*
X130374750Y-98125500D01*
X130216000Y-98284250D01*
X129962000Y-98284250D01*
X129803250Y-98125500D01*
X129612691Y-98125500D01*
X129379302Y-98222173D01*
X129200673Y-98400801D01*
X129144346Y-98536787D01*
X129142162Y-98525183D01*
X129003090Y-98309059D01*
X128951000Y-98273467D01*
X128951000Y-97322700D01*
X130493570Y-97322700D01*
X131147980Y-97977110D01*
X131147980Y-97977110D01*
G37*
X131147980Y-97977110D02*
X131198204Y-98229605D01*
X131363385Y-98476815D01*
X131610595Y-98641996D01*
X131636060Y-98647061D01*
X131636060Y-98798000D01*
X131649481Y-98869324D01*
X131648500Y-98871691D01*
X131648500Y-98949250D01*
X131668233Y-98968983D01*
X131680338Y-99033317D01*
X131800515Y-99220077D01*
X131687069Y-99386110D01*
X131671308Y-99463942D01*
X131660868Y-99474382D01*
X131487237Y-99474231D01*
X131127688Y-99622793D01*
X131064060Y-99686310D01*
X130915250Y-99537500D01*
X130216000Y-99537500D01*
X130216000Y-99557500D01*
X129962000Y-99557500D01*
X129962000Y-99537500D01*
X129942000Y-99537500D01*
X129942000Y-99283500D01*
X129962000Y-99283500D01*
X129962000Y-98284250D01*
X130216000Y-98284250D01*
X130216000Y-99283500D01*
X130915250Y-99283500D01*
X131074000Y-99124750D01*
X131074000Y-98634190D01*
X130977327Y-98400801D01*
X130798698Y-98222173D01*
X130565309Y-98125500D01*
X130374750Y-98125500D01*
X130216000Y-98284250D01*
X129962000Y-98284250D01*
X129803250Y-98125500D01*
X129612691Y-98125500D01*
X129379302Y-98222173D01*
X129200673Y-98400801D01*
X129144346Y-98536787D01*
X129142162Y-98525183D01*
X129003090Y-98309059D01*
X128951000Y-98273467D01*
X128951000Y-97322700D01*
X130493570Y-97322700D01*
X131147980Y-97977110D01*
G36*
X165563980Y-91217300D02*
X166164041Y-91818409D01*
X166948459Y-92144128D01*
X167797815Y-92144870D01*
X168582800Y-91820520D01*
X169183909Y-91220459D01*
X169269266Y-91014896D01*
X169830086Y-91575717D01*
X169619946Y-91890215D01*
X169506907Y-92458500D01*
X169619946Y-93026785D01*
X169941853Y-93508554D01*
X170271026Y-93728500D01*
X169941853Y-93948446D01*
X169774773Y-94198500D01*
X169751700Y-94198500D01*
X169458569Y-94256807D01*
X169445553Y-94259396D01*
X169186014Y-94432815D01*
X166906694Y-96712136D01*
X166442185Y-96711730D01*
X166030929Y-96881658D01*
X165200111Y-96050841D01*
X165200240Y-95902815D01*
X164989831Y-95393585D01*
X164600564Y-95003639D01*
X164091702Y-94792341D01*
X163941480Y-94792210D01*
X163345000Y-94195730D01*
X163345000Y-93982329D01*
X163610171Y-94076701D01*
X164160448Y-94048730D01*
X164538923Y-93891960D01*
X164606912Y-93651017D01*
X163815000Y-92859105D01*
X163800858Y-92873248D01*
X163621253Y-92693643D01*
X163635395Y-92679500D01*
X163994605Y-92679500D01*
X164786517Y-93471412D01*
X165027460Y-93403423D01*
X165212201Y-92884329D01*
X165184230Y-92334052D01*
X165027460Y-91955577D01*
X164786517Y-91887588D01*
X163994605Y-92679500D01*
X163635395Y-92679500D01*
X163621253Y-92665358D01*
X163800858Y-92485753D01*
X163815000Y-92499895D01*
X164606912Y-91707983D01*
X164538923Y-91467040D01*
X164505814Y-91455257D01*
X165151571Y-90809500D01*
X165395480Y-90809500D01*
X165563980Y-91217300D01*
X165563980Y-91217300D01*
G37*
X165563980Y-91217300D02*
X166164041Y-91818409D01*
X166948459Y-92144128D01*
X167797815Y-92144870D01*
X168582800Y-91820520D01*
X169183909Y-91220459D01*
X169269266Y-91014896D01*
X169830086Y-91575717D01*
X169619946Y-91890215D01*
X169506907Y-92458500D01*
X169619946Y-93026785D01*
X169941853Y-93508554D01*
X170271026Y-93728500D01*
X169941853Y-93948446D01*
X169774773Y-94198500D01*
X169751700Y-94198500D01*
X169458569Y-94256807D01*
X169445553Y-94259396D01*
X169186014Y-94432815D01*
X166906694Y-96712136D01*
X166442185Y-96711730D01*
X166030929Y-96881658D01*
X165200111Y-96050841D01*
X165200240Y-95902815D01*
X164989831Y-95393585D01*
X164600564Y-95003639D01*
X164091702Y-94792341D01*
X163941480Y-94792210D01*
X163345000Y-94195730D01*
X163345000Y-93982329D01*
X163610171Y-94076701D01*
X164160448Y-94048730D01*
X164538923Y-93891960D01*
X164606912Y-93651017D01*
X163815000Y-92859105D01*
X163800858Y-92873248D01*
X163621253Y-92693643D01*
X163635395Y-92679500D01*
X163994605Y-92679500D01*
X164786517Y-93471412D01*
X165027460Y-93403423D01*
X165212201Y-92884329D01*
X165184230Y-92334052D01*
X165027460Y-91955577D01*
X164786517Y-91887588D01*
X163994605Y-92679500D01*
X163635395Y-92679500D01*
X163621253Y-92665358D01*
X163800858Y-92485753D01*
X163815000Y-92499895D01*
X164606912Y-91707983D01*
X164538923Y-91467040D01*
X164505814Y-91455257D01*
X165151571Y-90809500D01*
X165395480Y-90809500D01*
X165563980Y-91217300D01*
G36*
X170409646Y-88555877D02*
X169990423Y-88835992D01*
X168739415Y-87584985D01*
X168492205Y-87419804D01*
X168200600Y-87361800D01*
X140408700Y-87361800D01*
X140152880Y-87412686D01*
X140117095Y-87419804D01*
X139869884Y-87584985D01*
X137348965Y-90105904D01*
X137349370Y-89642585D01*
X137025020Y-88857600D01*
X136424959Y-88256491D01*
X135640541Y-87930772D01*
X134791185Y-87930030D01*
X134006200Y-88254380D01*
X133405091Y-88854441D01*
X133234446Y-89265400D01*
X132641520Y-89265400D01*
X132473020Y-88857600D01*
X131872959Y-88256491D01*
X131088541Y-87930772D01*
X130239185Y-87930030D01*
X129454200Y-88254380D01*
X128853091Y-88854441D01*
X128527372Y-89638859D01*
X128526630Y-90488215D01*
X128850980Y-91273200D01*
X129451041Y-91874309D01*
X129862000Y-92044954D01*
X129862000Y-93611729D01*
X129579315Y-93894415D01*
X129405896Y-94153953D01*
X129355428Y-94407672D01*
X129343559Y-94415310D01*
X129198569Y-94627510D01*
X129195919Y-94640597D01*
X129059090Y-94427959D01*
X128846890Y-94282969D01*
X128595000Y-94231960D01*
X127895000Y-94231960D01*
X127659683Y-94276238D01*
X127495018Y-94382197D01*
X127409015Y-94253484D01*
X127269220Y-94113689D01*
X127447448Y-94104630D01*
X127825923Y-93947860D01*
X127893912Y-93706917D01*
X127102000Y-92915005D01*
X127087858Y-92929148D01*
X126908253Y-92749543D01*
X126922395Y-92735400D01*
X127281605Y-92735400D01*
X128073517Y-93527312D01*
X128314460Y-93459323D01*
X128499201Y-92940229D01*
X128471230Y-92389952D01*
X128314460Y-92011477D01*
X128073517Y-91943488D01*
X127281605Y-92735400D01*
X126922395Y-92735400D01*
X126130483Y-91943488D01*
X125889540Y-92011477D01*
X125830268Y-92178021D01*
X125736831Y-91951885D01*
X125549157Y-91763883D01*
X126310088Y-91763883D01*
X127102000Y-92555795D01*
X127893912Y-91763883D01*
X127825923Y-91522940D01*
X127306829Y-91338199D01*
X126756552Y-91366170D01*
X126378077Y-91522940D01*
X126310088Y-91763883D01*
X125549157Y-91763883D01*
X125347564Y-91561939D01*
X124838702Y-91350641D01*
X124287715Y-91350160D01*
X123778485Y-91560569D01*
X123546938Y-91791713D01*
X123317564Y-91561939D01*
X122808702Y-91350641D01*
X122257715Y-91350160D01*
X121896600Y-91499369D01*
X121896600Y-91137930D01*
X126576030Y-86458500D01*
X147721100Y-86458500D01*
X148012705Y-86400496D01*
X148259915Y-86235315D01*
X150643653Y-83851578D01*
X150791110Y-83952331D01*
X151043000Y-84003340D01*
X152243000Y-84003340D01*
X152478317Y-83959062D01*
X152694441Y-83819990D01*
X152839431Y-83607790D01*
X152890440Y-83355900D01*
X152890440Y-82155900D01*
X152846162Y-81920583D01*
X152707090Y-81704459D01*
X152637289Y-81656766D01*
X152694441Y-81619990D01*
X152839431Y-81407790D01*
X152857634Y-81317900D01*
X163171670Y-81317900D01*
X170409646Y-88555877D01*
X170409646Y-88555877D01*
G37*
X170409646Y-88555877D02*
X169990423Y-88835992D01*
X168739415Y-87584985D01*
X168492205Y-87419804D01*
X168200600Y-87361800D01*
X140408700Y-87361800D01*
X140152880Y-87412686D01*
X140117095Y-87419804D01*
X139869884Y-87584985D01*
X137348965Y-90105904D01*
X137349370Y-89642585D01*
X137025020Y-88857600D01*
X136424959Y-88256491D01*
X135640541Y-87930772D01*
X134791185Y-87930030D01*
X134006200Y-88254380D01*
X133405091Y-88854441D01*
X133234446Y-89265400D01*
X132641520Y-89265400D01*
X132473020Y-88857600D01*
X131872959Y-88256491D01*
X131088541Y-87930772D01*
X130239185Y-87930030D01*
X129454200Y-88254380D01*
X128853091Y-88854441D01*
X128527372Y-89638859D01*
X128526630Y-90488215D01*
X128850980Y-91273200D01*
X129451041Y-91874309D01*
X129862000Y-92044954D01*
X129862000Y-93611729D01*
X129579315Y-93894415D01*
X129405896Y-94153953D01*
X129355428Y-94407672D01*
X129343559Y-94415310D01*
X129198569Y-94627510D01*
X129195919Y-94640597D01*
X129059090Y-94427959D01*
X128846890Y-94282969D01*
X128595000Y-94231960D01*
X127895000Y-94231960D01*
X127659683Y-94276238D01*
X127495018Y-94382197D01*
X127409015Y-94253484D01*
X127269220Y-94113689D01*
X127447448Y-94104630D01*
X127825923Y-93947860D01*
X127893912Y-93706917D01*
X127102000Y-92915005D01*
X127087858Y-92929148D01*
X126908253Y-92749543D01*
X126922395Y-92735400D01*
X127281605Y-92735400D01*
X128073517Y-93527312D01*
X128314460Y-93459323D01*
X128499201Y-92940229D01*
X128471230Y-92389952D01*
X128314460Y-92011477D01*
X128073517Y-91943488D01*
X127281605Y-92735400D01*
X126922395Y-92735400D01*
X126130483Y-91943488D01*
X125889540Y-92011477D01*
X125830268Y-92178021D01*
X125736831Y-91951885D01*
X125549157Y-91763883D01*
X126310088Y-91763883D01*
X127102000Y-92555795D01*
X127893912Y-91763883D01*
X127825923Y-91522940D01*
X127306829Y-91338199D01*
X126756552Y-91366170D01*
X126378077Y-91522940D01*
X126310088Y-91763883D01*
X125549157Y-91763883D01*
X125347564Y-91561939D01*
X124838702Y-91350641D01*
X124287715Y-91350160D01*
X123778485Y-91560569D01*
X123546938Y-91791713D01*
X123317564Y-91561939D01*
X122808702Y-91350641D01*
X122257715Y-91350160D01*
X121896600Y-91499369D01*
X121896600Y-91137930D01*
X126576030Y-86458500D01*
X147721100Y-86458500D01*
X148012705Y-86400496D01*
X148259915Y-86235315D01*
X150643653Y-83851578D01*
X150791110Y-83952331D01*
X151043000Y-84003340D01*
X152243000Y-84003340D01*
X152478317Y-83959062D01*
X152694441Y-83819990D01*
X152839431Y-83607790D01*
X152890440Y-83355900D01*
X152890440Y-82155900D01*
X152846162Y-81920583D01*
X152707090Y-81704459D01*
X152637289Y-81656766D01*
X152694441Y-81619990D01*
X152839431Y-81407790D01*
X152857634Y-81317900D01*
X163171670Y-81317900D01*
X170409646Y-88555877D01*
M02*
