M48
;DRILL file {KiCad 4.0.7} date 05/12/18 20:26:01
;FORMAT={3:3/ absolute / metric / suppress leading zeros}
FMAT,2
METRIC,TZ
T1C0.330
T2C0.600
T3C0.850
T4C1.000
T5C2.300
T6C2.200
%
G90
G05
M71
T1
X114473Y-88227
X114678Y-89347
X123153Y-81097
X124160Y-96804
X125638Y-97762
X127687Y-105219
X130651Y-97457
X131681Y-100452
X132929Y-93427
X135199Y-103447
X135270Y-97813
X136530Y-97646
X137107Y-99858
X137108Y-102490
X138934Y-90680
X139934Y-98332
X140090Y-102747
X140742Y-104332
X145802Y-97035
X149048Y-106345
X150248Y-106210
T3
X112756Y-86847
X112756Y-91847
T4
X110490Y-99151
X110498Y-101933
X113030Y-99151
X113038Y-101933
X119992Y-92735
X122532Y-92735
X124562Y-92735
X127102Y-92735
X138264Y-92735
X140804Y-92735
X142834Y-92735
X145374Y-92735
X156705Y-92679
X156705Y-96177
X159245Y-92679
X159245Y-96177
X161275Y-92679
X161275Y-96177
X163815Y-92679
X163815Y-96177
X171021Y-89918
X171021Y-92459
X171021Y-94998
X171021Y-97539
T5
X116942Y-90065
X130662Y-90065
X135214Y-90065
X148934Y-90065
X153145Y-98847
X153655Y-90010
X166865Y-98847
X167375Y-90010
T6
X111907Y-106116
X111917Y-82840
X170216Y-82845
X170216Y-106147
T2
X110406Y-85847G85X109706Y-85847
G05
X110406Y-92847G85X109706Y-92847
G05
T4
X118695Y-99299G85X120695Y-99299
G05
X118695Y-105299G85X120695Y-105299
G05
X124395Y-103299G85X124395Y-101299
G05
T0
M30
