G04 #@! TF.FileFunction,Soldermask,Top*
%FSLAX46Y46*%
G04 Gerber Fmt 4.6, Leading zero omitted, Abs format (unit mm)*
G04 Created by KiCad (PCBNEW 4.0.7) date 05/12/18 20:25:59*
%MOMM*%
%LPD*%
G01*
G04 APERTURE LIST*
%ADD10C,0.127000*%
%ADD11R,1.100000X1.350000*%
%ADD12R,1.300000X1.300000*%
%ADD13R,1.625000X0.540000*%
%ADD14C,1.600000*%
%ADD15C,3.100000*%
%ADD16R,3.600000X3.600000*%
%ADD17R,0.800000X1.400000*%
%ADD18R,2.100000X4.600000*%
%ADD19C,2.300000*%
%ADD20R,2.000000X1.600000*%
%ADD21C,1.550000*%
%ADD22R,1.450000X0.500000*%
%ADD23O,2.000000X1.300000*%
%ADD24R,2.000000X1.300000*%
%ADD25R,1.800000X1.800000*%
%ADD26O,1.800000X1.800000*%
G04 APERTURE END LIST*
D10*
D11*
X141189000Y-103099000D03*
X143189000Y-103099000D03*
X134636000Y-107747000D03*
X136636000Y-107747000D03*
X143326000Y-107711000D03*
X141326000Y-107711000D03*
X141189000Y-99385100D03*
X143189000Y-99385100D03*
X130200000Y-103099000D03*
X128200000Y-103099000D03*
X130159000Y-107787000D03*
X128159000Y-107787000D03*
D12*
X113490000Y-95097600D03*
X111290000Y-95097600D03*
X114859000Y-82801600D03*
X114859000Y-80601600D03*
X151643000Y-82755900D03*
X151643000Y-80555900D03*
X133182000Y-82837200D03*
X133182000Y-80637200D03*
X151651000Y-106152000D03*
X151651000Y-108352000D03*
D13*
X138470000Y-104338000D03*
X138470000Y-103698000D03*
X138470000Y-103058000D03*
X138470000Y-102418000D03*
X138470000Y-101778000D03*
X138470000Y-101138000D03*
X138470000Y-100498000D03*
X138470000Y-99858000D03*
X138470000Y-99218000D03*
X138470000Y-98578000D03*
X138470000Y-97938000D03*
X138470000Y-97298000D03*
X138470000Y-96658000D03*
X138470000Y-96018000D03*
X133046000Y-96018000D03*
X133046000Y-96658000D03*
X133046000Y-97298000D03*
X133046000Y-97938000D03*
X133046000Y-98578000D03*
X133046000Y-99218000D03*
X133046000Y-99858000D03*
X133046000Y-100498000D03*
X133046000Y-101138000D03*
X133046000Y-101778000D03*
X133046000Y-102418000D03*
X133046000Y-103058000D03*
X133046000Y-103698000D03*
X133046000Y-104338000D03*
D14*
X119992000Y-92735400D03*
X122532000Y-92735400D03*
X124562000Y-92735400D03*
X127102000Y-92735400D03*
D15*
X116942000Y-90065400D03*
X130662000Y-90065400D03*
D14*
X138264000Y-92735400D03*
X140804000Y-92735400D03*
X142834000Y-92735400D03*
X145374000Y-92735400D03*
D15*
X135214000Y-90065400D03*
X148934000Y-90065400D03*
D14*
X156705000Y-92679500D03*
X159245000Y-92679500D03*
X161275000Y-92679500D03*
X163815000Y-92679500D03*
D15*
X153655000Y-90009500D03*
X167375000Y-90009500D03*
D14*
X163815000Y-96177100D03*
X161275000Y-96177100D03*
X159245000Y-96177100D03*
X156705000Y-96177100D03*
D15*
X166865000Y-98847100D03*
X153145000Y-98847100D03*
D16*
X119695000Y-99298800D03*
X119695000Y-105298800D03*
X124395000Y-102298800D03*
D17*
X141331000Y-95524300D03*
X143231000Y-95524300D03*
X130145000Y-95529400D03*
X128245000Y-95529400D03*
X124160000Y-95524300D03*
X126060000Y-95524300D03*
X120218000Y-95524300D03*
X122118000Y-95524300D03*
X130089000Y-99410500D03*
X128189000Y-99410500D03*
X116119000Y-95529400D03*
X118019000Y-95529400D03*
D18*
X147411000Y-105535000D03*
X147411000Y-97035000D03*
D19*
X170216000Y-106147000D03*
X170216000Y-82844600D03*
X111917000Y-82839600D03*
X111907000Y-106116000D03*
D20*
X110056000Y-90347000D03*
D21*
X112756000Y-86847000D03*
D22*
X112756000Y-88697000D03*
X112756000Y-88047000D03*
X112756000Y-90647000D03*
X112756000Y-89997000D03*
X112756000Y-89347000D03*
D21*
X112756000Y-91847000D03*
D20*
X110056000Y-88347000D03*
D23*
X110056000Y-85847000D03*
X110056000Y-92847000D03*
D24*
X110056000Y-92247000D03*
X110056000Y-86447000D03*
D25*
X171021000Y-97538500D03*
D26*
X171021000Y-94998500D03*
X171021000Y-92458500D03*
X171021000Y-89918500D03*
D25*
X110498000Y-101933000D03*
D26*
X113038000Y-101933000D03*
D25*
X110490000Y-99151400D03*
D26*
X113030000Y-99151400D03*
M02*
