G04 #@! TF.FileFunction,Legend,Bot*
%FSLAX46Y46*%
G04 Gerber Fmt 4.6, Leading zero omitted, Abs format (unit mm)*
G04 Created by KiCad (PCBNEW 4.0.7) date 04/20/18 23:23:33*
%MOMM*%
%LPD*%
G01*
G04 APERTURE LIST*
%ADD10C,0.127000*%
%ADD11C,0.010000*%
G04 APERTURE END LIST*
D10*
X151703372Y-84692371D02*
X151417658Y-85692371D01*
X151131944Y-84978086D01*
X150846229Y-85692371D01*
X150560515Y-84692371D01*
X150131943Y-84692371D02*
X149846229Y-85692371D01*
X149560515Y-84978086D01*
X149274800Y-85692371D01*
X148989086Y-84692371D01*
X148560514Y-84692371D02*
X148274800Y-85692371D01*
X147989086Y-84978086D01*
X147703371Y-85692371D01*
X147417657Y-84692371D01*
X146846228Y-85549514D02*
X146774800Y-85620943D01*
X146846228Y-85692371D01*
X146917657Y-85620943D01*
X146846228Y-85549514D01*
X146846228Y-85692371D01*
X146131942Y-85692371D02*
X146131942Y-84692371D01*
X146131942Y-84192371D02*
X146203371Y-84263800D01*
X146131942Y-84335229D01*
X146060514Y-84263800D01*
X146131942Y-84192371D01*
X146131942Y-84335229D01*
X145631942Y-84692371D02*
X145060513Y-84692371D01*
X145417656Y-84192371D02*
X145417656Y-85478086D01*
X145346228Y-85620943D01*
X145203370Y-85692371D01*
X145060513Y-85692371D01*
X144631942Y-85620943D02*
X144489085Y-85692371D01*
X144203370Y-85692371D01*
X144060513Y-85620943D01*
X143989085Y-85478086D01*
X143989085Y-85406657D01*
X144060513Y-85263800D01*
X144203370Y-85192371D01*
X144417656Y-85192371D01*
X144560513Y-85120943D01*
X144631942Y-84978086D01*
X144631942Y-84906657D01*
X144560513Y-84763800D01*
X144417656Y-84692371D01*
X144203370Y-84692371D01*
X144060513Y-84763800D01*
X143346227Y-85120943D02*
X142203370Y-85120943D01*
X141274798Y-85692371D02*
X141417656Y-85620943D01*
X141489084Y-85478086D01*
X141489084Y-84192371D01*
X140060513Y-85692371D02*
X140060513Y-84906657D01*
X140131942Y-84763800D01*
X140274799Y-84692371D01*
X140560513Y-84692371D01*
X140703370Y-84763800D01*
X140060513Y-85620943D02*
X140203370Y-85692371D01*
X140560513Y-85692371D01*
X140703370Y-85620943D01*
X140774799Y-85478086D01*
X140774799Y-85335229D01*
X140703370Y-85192371D01*
X140560513Y-85120943D01*
X140203370Y-85120943D01*
X140060513Y-85049514D01*
X139346227Y-85692371D02*
X139346227Y-84192371D01*
X139346227Y-84763800D02*
X139203370Y-84692371D01*
X138917656Y-84692371D01*
X138774799Y-84763800D01*
X138703370Y-84835229D01*
X138631941Y-84978086D01*
X138631941Y-85406657D01*
X138703370Y-85549514D01*
X138774799Y-85620943D01*
X138917656Y-85692371D01*
X139203370Y-85692371D01*
X139346227Y-85620943D01*
X138060513Y-85620943D02*
X137917656Y-85692371D01*
X137631941Y-85692371D01*
X137489084Y-85620943D01*
X137417656Y-85478086D01*
X137417656Y-85406657D01*
X137489084Y-85263800D01*
X137631941Y-85192371D01*
X137846227Y-85192371D01*
X137989084Y-85120943D01*
X138060513Y-84978086D01*
X138060513Y-84906657D01*
X137989084Y-84763800D01*
X137846227Y-84692371D01*
X137631941Y-84692371D01*
X137489084Y-84763800D01*
X136774798Y-85549514D02*
X136703370Y-85620943D01*
X136774798Y-85692371D01*
X136846227Y-85620943D01*
X136774798Y-85549514D01*
X136774798Y-85692371D01*
X135417655Y-85620943D02*
X135560512Y-85692371D01*
X135846226Y-85692371D01*
X135989084Y-85620943D01*
X136060512Y-85549514D01*
X136131941Y-85406657D01*
X136131941Y-84978086D01*
X136060512Y-84835229D01*
X135989084Y-84763800D01*
X135846226Y-84692371D01*
X135560512Y-84692371D01*
X135417655Y-84763800D01*
X134560512Y-85692371D02*
X134703370Y-85620943D01*
X134774798Y-85549514D01*
X134846227Y-85406657D01*
X134846227Y-84978086D01*
X134774798Y-84835229D01*
X134703370Y-84763800D01*
X134560512Y-84692371D01*
X134346227Y-84692371D01*
X134203370Y-84763800D01*
X134131941Y-84835229D01*
X134060512Y-84978086D01*
X134060512Y-85406657D01*
X134131941Y-85549514D01*
X134203370Y-85620943D01*
X134346227Y-85692371D01*
X134560512Y-85692371D01*
X133417655Y-85692371D02*
X133417655Y-84692371D01*
X133417655Y-84835229D02*
X133346227Y-84763800D01*
X133203369Y-84692371D01*
X132989084Y-84692371D01*
X132846227Y-84763800D01*
X132774798Y-84906657D01*
X132774798Y-85692371D01*
X132774798Y-84906657D02*
X132703369Y-84763800D01*
X132560512Y-84692371D01*
X132346227Y-84692371D01*
X132203369Y-84763800D01*
X132131941Y-84906657D01*
X132131941Y-85692371D01*
X153079269Y-82273829D02*
X153079269Y-84273829D01*
X153079269Y-82369067D02*
X152888792Y-82273829D01*
X152507840Y-82273829D01*
X152317364Y-82369067D01*
X152222126Y-82464305D01*
X152126888Y-82654781D01*
X152126888Y-83226210D01*
X152222126Y-83416686D01*
X152317364Y-83511924D01*
X152507840Y-83607162D01*
X152888792Y-83607162D01*
X153079269Y-83511924D01*
X151269745Y-83607162D02*
X151269745Y-82273829D01*
X151269745Y-81607162D02*
X151364983Y-81702400D01*
X151269745Y-81797638D01*
X151174506Y-81702400D01*
X151269745Y-81607162D01*
X151269745Y-81797638D01*
X150507840Y-81607162D02*
X149174506Y-81607162D01*
X150507840Y-83607162D01*
X149174506Y-83607162D01*
X147650697Y-83511924D02*
X147841173Y-83607162D01*
X148222125Y-83607162D01*
X148412602Y-83511924D01*
X148507840Y-83321448D01*
X148507840Y-82559543D01*
X148412602Y-82369067D01*
X148222125Y-82273829D01*
X147841173Y-82273829D01*
X147650697Y-82369067D01*
X147555459Y-82559543D01*
X147555459Y-82750019D01*
X148507840Y-82940495D01*
X146698316Y-83607162D02*
X146698316Y-82273829D01*
X146698316Y-82654781D02*
X146603077Y-82464305D01*
X146507839Y-82369067D01*
X146317363Y-82273829D01*
X146126887Y-82273829D01*
X145174506Y-83607162D02*
X145364982Y-83511924D01*
X145460221Y-83416686D01*
X145555459Y-83226210D01*
X145555459Y-82654781D01*
X145460221Y-82464305D01*
X145364982Y-82369067D01*
X145174506Y-82273829D01*
X144888792Y-82273829D01*
X144698316Y-82369067D01*
X144603078Y-82464305D01*
X144507840Y-82654781D01*
X144507840Y-83226210D01*
X144603078Y-83416686D01*
X144698316Y-83511924D01*
X144888792Y-83607162D01*
X145174506Y-83607162D01*
X142126887Y-81607162D02*
X142126887Y-83226210D01*
X142031648Y-83416686D01*
X141936410Y-83511924D01*
X141745934Y-83607162D01*
X141364982Y-83607162D01*
X141174506Y-83511924D01*
X141079267Y-83416686D01*
X140984029Y-83226210D01*
X140984029Y-81607162D01*
X140126887Y-83511924D02*
X139841172Y-83607162D01*
X139364982Y-83607162D01*
X139174506Y-83511924D01*
X139079268Y-83416686D01*
X138984029Y-83226210D01*
X138984029Y-83035733D01*
X139079268Y-82845257D01*
X139174506Y-82750019D01*
X139364982Y-82654781D01*
X139745934Y-82559543D01*
X139936410Y-82464305D01*
X140031649Y-82369067D01*
X140126887Y-82178590D01*
X140126887Y-81988114D01*
X140031649Y-81797638D01*
X139936410Y-81702400D01*
X139745934Y-81607162D01*
X139269744Y-81607162D01*
X138984029Y-81702400D01*
X137460220Y-82559543D02*
X137174506Y-82654781D01*
X137079267Y-82750019D01*
X136984029Y-82940495D01*
X136984029Y-83226210D01*
X137079267Y-83416686D01*
X137174506Y-83511924D01*
X137364982Y-83607162D01*
X138126887Y-83607162D01*
X138126887Y-81607162D01*
X137460220Y-81607162D01*
X137269744Y-81702400D01*
X137174506Y-81797638D01*
X137079267Y-81988114D01*
X137079267Y-82178590D01*
X137174506Y-82369067D01*
X137269744Y-82464305D01*
X137460220Y-82559543D01*
X138126887Y-82559543D01*
X134603077Y-83607162D02*
X134603077Y-81607162D01*
X134603077Y-82559543D02*
X133460219Y-82559543D01*
X133460219Y-83607162D02*
X133460219Y-81607162D01*
X131650696Y-82273829D02*
X131650696Y-83607162D01*
X132507839Y-82273829D02*
X132507839Y-83321448D01*
X132412600Y-83511924D01*
X132222124Y-83607162D01*
X131936410Y-83607162D01*
X131745934Y-83511924D01*
X131650696Y-83416686D01*
X130698315Y-83607162D02*
X130698315Y-81607162D01*
X130698315Y-82369067D02*
X130507838Y-82273829D01*
X130126886Y-82273829D01*
X129936410Y-82369067D01*
X129841172Y-82464305D01*
X129745934Y-82654781D01*
X129745934Y-83226210D01*
X129841172Y-83416686D01*
X129936410Y-83511924D01*
X130126886Y-83607162D01*
X130507838Y-83607162D01*
X130698315Y-83511924D01*
X147197826Y-108399971D02*
X147697826Y-107685686D01*
X148054969Y-108399971D02*
X148054969Y-106899971D01*
X147483541Y-106899971D01*
X147340683Y-106971400D01*
X147269255Y-107042829D01*
X147197826Y-107185686D01*
X147197826Y-107399971D01*
X147269255Y-107542829D01*
X147340683Y-107614257D01*
X147483541Y-107685686D01*
X148054969Y-107685686D01*
X146912112Y-108542829D02*
X145769255Y-108542829D01*
X145126398Y-106899971D02*
X144983541Y-106899971D01*
X144840684Y-106971400D01*
X144769255Y-107042829D01*
X144697826Y-107185686D01*
X144626398Y-107471400D01*
X144626398Y-107828543D01*
X144697826Y-108114257D01*
X144769255Y-108257114D01*
X144840684Y-108328543D01*
X144983541Y-108399971D01*
X145126398Y-108399971D01*
X145269255Y-108328543D01*
X145340684Y-108257114D01*
X145412112Y-108114257D01*
X145483541Y-107828543D01*
X145483541Y-107471400D01*
X145412112Y-107185686D01*
X145340684Y-107042829D01*
X145269255Y-106971400D01*
X145126398Y-106899971D01*
X143340684Y-107399971D02*
X143340684Y-108399971D01*
X143697827Y-106828543D02*
X144054970Y-107899971D01*
X143126398Y-107899971D01*
X141769256Y-108399971D02*
X142626399Y-108399971D01*
X142197827Y-108399971D02*
X142197827Y-106899971D01*
X142340684Y-107114257D01*
X142483542Y-107257114D01*
X142626399Y-107328543D01*
X140483542Y-106899971D02*
X140769256Y-106899971D01*
X140912113Y-106971400D01*
X140983542Y-107042829D01*
X141126399Y-107257114D01*
X141197828Y-107542829D01*
X141197828Y-108114257D01*
X141126399Y-108257114D01*
X141054971Y-108328543D01*
X140912113Y-108399971D01*
X140626399Y-108399971D01*
X140483542Y-108328543D01*
X140412113Y-108257114D01*
X140340685Y-108114257D01*
X140340685Y-107757114D01*
X140412113Y-107614257D01*
X140483542Y-107542829D01*
X140626399Y-107471400D01*
X140912113Y-107471400D01*
X141054971Y-107542829D01*
X141126399Y-107614257D01*
X141197828Y-107757114D01*
X139769257Y-107042829D02*
X139697828Y-106971400D01*
X139554971Y-106899971D01*
X139197828Y-106899971D01*
X139054971Y-106971400D01*
X138983542Y-107042829D01*
X138912114Y-107185686D01*
X138912114Y-107328543D01*
X138983542Y-107542829D01*
X139840685Y-108399971D01*
X138912114Y-108399971D01*
X137983543Y-106899971D02*
X137840686Y-106899971D01*
X137697829Y-106971400D01*
X137626400Y-107042829D01*
X137554971Y-107185686D01*
X137483543Y-107471400D01*
X137483543Y-107828543D01*
X137554971Y-108114257D01*
X137626400Y-108257114D01*
X137697829Y-108328543D01*
X137840686Y-108399971D01*
X137983543Y-108399971D01*
X138126400Y-108328543D01*
X138197829Y-108257114D01*
X138269257Y-108114257D01*
X138340686Y-107828543D01*
X138340686Y-107471400D01*
X138269257Y-107185686D01*
X138197829Y-107042829D01*
X138126400Y-106971400D01*
X137983543Y-106899971D01*
X136054972Y-108399971D02*
X136912115Y-108399971D01*
X136483543Y-108399971D02*
X136483543Y-106899971D01*
X136626400Y-107114257D01*
X136769258Y-107257114D01*
X136912115Y-107328543D01*
X135197829Y-107542829D02*
X135340687Y-107471400D01*
X135412115Y-107399971D01*
X135483544Y-107257114D01*
X135483544Y-107185686D01*
X135412115Y-107042829D01*
X135340687Y-106971400D01*
X135197829Y-106899971D01*
X134912115Y-106899971D01*
X134769258Y-106971400D01*
X134697829Y-107042829D01*
X134626401Y-107185686D01*
X134626401Y-107257114D01*
X134697829Y-107399971D01*
X134769258Y-107471400D01*
X134912115Y-107542829D01*
X135197829Y-107542829D01*
X135340687Y-107614257D01*
X135412115Y-107685686D01*
X135483544Y-107828543D01*
X135483544Y-108114257D01*
X135412115Y-108257114D01*
X135340687Y-108328543D01*
X135197829Y-108399971D01*
X134912115Y-108399971D01*
X134769258Y-108328543D01*
X134697829Y-108257114D01*
X134626401Y-108114257D01*
X134626401Y-107828543D01*
X134697829Y-107685686D01*
X134769258Y-107614257D01*
X134912115Y-107542829D01*
D11*
G36*
X156771181Y-100234992D02*
X156699381Y-100390187D01*
X156757978Y-100558876D01*
X156865886Y-100645381D01*
X156987015Y-100742989D01*
X156955690Y-100837377D01*
X156860032Y-101033818D01*
X156903174Y-101244522D01*
X157071151Y-101410702D01*
X157094767Y-101422843D01*
X157327600Y-101534325D01*
X157369934Y-103696295D01*
X157385910Y-104417975D01*
X157405054Y-104989670D01*
X157431370Y-105430726D01*
X157468859Y-105760488D01*
X157521524Y-105998302D01*
X157593368Y-106163514D01*
X157688392Y-106275470D01*
X157810600Y-106353517D01*
X157930207Y-106404379D01*
X158065448Y-106423991D01*
X158351281Y-106441685D01*
X158768971Y-106456997D01*
X159299782Y-106469461D01*
X159924979Y-106478614D01*
X160625827Y-106483991D01*
X161193810Y-106485267D01*
X164244662Y-106485267D01*
X164481934Y-106739267D01*
X164729812Y-106941368D01*
X164941709Y-106979636D01*
X165115627Y-106853717D01*
X165117622Y-106851008D01*
X165203162Y-106761100D01*
X165271432Y-106807902D01*
X165320434Y-106893341D01*
X165465196Y-107036995D01*
X165649456Y-107079117D01*
X165780156Y-107021489D01*
X165842910Y-106863287D01*
X165815698Y-106672033D01*
X165716429Y-106531627D01*
X165671125Y-106510807D01*
X165560882Y-106464444D01*
X165569520Y-106377303D01*
X165630712Y-106276664D01*
X165715494Y-106057965D01*
X165643780Y-105882675D01*
X165415827Y-105737971D01*
X165167103Y-105627875D01*
X165145382Y-103691267D01*
X164566600Y-103691267D01*
X164566600Y-105892600D01*
X163465934Y-105892600D01*
X163465934Y-103691267D01*
X163211934Y-103691267D01*
X163211934Y-104447755D01*
X163203039Y-104815236D01*
X163179325Y-105139823D01*
X163145251Y-105368040D01*
X163131168Y-105416674D01*
X162973893Y-105646267D01*
X162698279Y-105797010D01*
X162289525Y-105874891D01*
X161963100Y-105889210D01*
X161349267Y-105892600D01*
X161349267Y-104791933D01*
X162111267Y-104791933D01*
X162111267Y-104023886D01*
X161179934Y-104023886D01*
X161151405Y-104200536D01*
X161050201Y-104323039D01*
X160852894Y-104400148D01*
X160536059Y-104440618D01*
X160076266Y-104453202D01*
X160030886Y-104453267D01*
X159147934Y-104453267D01*
X159147934Y-104961267D01*
X161179934Y-104961267D01*
X161179934Y-105807933D01*
X159810767Y-105807933D01*
X159283161Y-105805510D01*
X158898629Y-105796636D01*
X158630958Y-105778899D01*
X158453936Y-105749890D01*
X158341352Y-105707199D01*
X158286767Y-105667811D01*
X158205543Y-105561200D01*
X158157810Y-105396409D01*
X158135945Y-105133114D01*
X158131934Y-104848978D01*
X158134240Y-104510894D01*
X158155853Y-104260288D01*
X158218815Y-104084067D01*
X158345167Y-103969141D01*
X158556951Y-103902418D01*
X158876208Y-103870806D01*
X159324981Y-103861215D01*
X159796056Y-103860600D01*
X160309208Y-103861667D01*
X160677088Y-103866760D01*
X160923754Y-103878718D01*
X161073264Y-103900380D01*
X161149674Y-103934584D01*
X161177043Y-103984169D01*
X161179934Y-104023886D01*
X162111267Y-104023886D01*
X162111267Y-103691267D01*
X163211934Y-103691267D01*
X163465934Y-103691267D01*
X164566600Y-103691267D01*
X165145382Y-103691267D01*
X165142018Y-103391354D01*
X165130189Y-102336600D01*
X164566600Y-102336600D01*
X164566600Y-103352600D01*
X163465934Y-103352600D01*
X163465934Y-102336600D01*
X164566600Y-102336600D01*
X165130189Y-102336600D01*
X165119743Y-101405267D01*
X163211934Y-101405267D01*
X163211934Y-103437267D01*
X161349267Y-103437267D01*
X161349267Y-103013933D01*
X161179934Y-103013933D01*
X161179934Y-103267933D01*
X158216600Y-103267933D01*
X158216600Y-102421267D01*
X159528934Y-102421267D01*
X160032794Y-102422953D01*
X160395508Y-102430161D01*
X160645247Y-102446108D01*
X160810182Y-102474014D01*
X160918486Y-102517100D01*
X160998329Y-102578585D01*
X161010600Y-102590600D01*
X161138061Y-102804179D01*
X161179934Y-103013933D01*
X161349267Y-103013933D01*
X161349267Y-102421267D01*
X162111267Y-102421267D01*
X162111267Y-101405267D01*
X163211934Y-101405267D01*
X165119743Y-101405267D01*
X165116934Y-101154834D01*
X164882261Y-100920217D01*
X164647587Y-100685600D01*
X161435957Y-100661532D01*
X158224327Y-100637465D01*
X158060112Y-100428699D01*
X157864348Y-100266123D01*
X157660173Y-100228170D01*
X157495963Y-100320423D01*
X157469032Y-100360472D01*
X157401542Y-100446082D01*
X157336293Y-100394580D01*
X157289797Y-100313064D01*
X157148214Y-100168541D01*
X156962073Y-100151359D01*
X156771181Y-100234992D01*
X156771181Y-100234992D01*
G37*
X156771181Y-100234992D02*
X156699381Y-100390187D01*
X156757978Y-100558876D01*
X156865886Y-100645381D01*
X156987015Y-100742989D01*
X156955690Y-100837377D01*
X156860032Y-101033818D01*
X156903174Y-101244522D01*
X157071151Y-101410702D01*
X157094767Y-101422843D01*
X157327600Y-101534325D01*
X157369934Y-103696295D01*
X157385910Y-104417975D01*
X157405054Y-104989670D01*
X157431370Y-105430726D01*
X157468859Y-105760488D01*
X157521524Y-105998302D01*
X157593368Y-106163514D01*
X157688392Y-106275470D01*
X157810600Y-106353517D01*
X157930207Y-106404379D01*
X158065448Y-106423991D01*
X158351281Y-106441685D01*
X158768971Y-106456997D01*
X159299782Y-106469461D01*
X159924979Y-106478614D01*
X160625827Y-106483991D01*
X161193810Y-106485267D01*
X164244662Y-106485267D01*
X164481934Y-106739267D01*
X164729812Y-106941368D01*
X164941709Y-106979636D01*
X165115627Y-106853717D01*
X165117622Y-106851008D01*
X165203162Y-106761100D01*
X165271432Y-106807902D01*
X165320434Y-106893341D01*
X165465196Y-107036995D01*
X165649456Y-107079117D01*
X165780156Y-107021489D01*
X165842910Y-106863287D01*
X165815698Y-106672033D01*
X165716429Y-106531627D01*
X165671125Y-106510807D01*
X165560882Y-106464444D01*
X165569520Y-106377303D01*
X165630712Y-106276664D01*
X165715494Y-106057965D01*
X165643780Y-105882675D01*
X165415827Y-105737971D01*
X165167103Y-105627875D01*
X165145382Y-103691267D01*
X164566600Y-103691267D01*
X164566600Y-105892600D01*
X163465934Y-105892600D01*
X163465934Y-103691267D01*
X163211934Y-103691267D01*
X163211934Y-104447755D01*
X163203039Y-104815236D01*
X163179325Y-105139823D01*
X163145251Y-105368040D01*
X163131168Y-105416674D01*
X162973893Y-105646267D01*
X162698279Y-105797010D01*
X162289525Y-105874891D01*
X161963100Y-105889210D01*
X161349267Y-105892600D01*
X161349267Y-104791933D01*
X162111267Y-104791933D01*
X162111267Y-104023886D01*
X161179934Y-104023886D01*
X161151405Y-104200536D01*
X161050201Y-104323039D01*
X160852894Y-104400148D01*
X160536059Y-104440618D01*
X160076266Y-104453202D01*
X160030886Y-104453267D01*
X159147934Y-104453267D01*
X159147934Y-104961267D01*
X161179934Y-104961267D01*
X161179934Y-105807933D01*
X159810767Y-105807933D01*
X159283161Y-105805510D01*
X158898629Y-105796636D01*
X158630958Y-105778899D01*
X158453936Y-105749890D01*
X158341352Y-105707199D01*
X158286767Y-105667811D01*
X158205543Y-105561200D01*
X158157810Y-105396409D01*
X158135945Y-105133114D01*
X158131934Y-104848978D01*
X158134240Y-104510894D01*
X158155853Y-104260288D01*
X158218815Y-104084067D01*
X158345167Y-103969141D01*
X158556951Y-103902418D01*
X158876208Y-103870806D01*
X159324981Y-103861215D01*
X159796056Y-103860600D01*
X160309208Y-103861667D01*
X160677088Y-103866760D01*
X160923754Y-103878718D01*
X161073264Y-103900380D01*
X161149674Y-103934584D01*
X161177043Y-103984169D01*
X161179934Y-104023886D01*
X162111267Y-104023886D01*
X162111267Y-103691267D01*
X163211934Y-103691267D01*
X163465934Y-103691267D01*
X164566600Y-103691267D01*
X165145382Y-103691267D01*
X165142018Y-103391354D01*
X165130189Y-102336600D01*
X164566600Y-102336600D01*
X164566600Y-103352600D01*
X163465934Y-103352600D01*
X163465934Y-102336600D01*
X164566600Y-102336600D01*
X165130189Y-102336600D01*
X165119743Y-101405267D01*
X163211934Y-101405267D01*
X163211934Y-103437267D01*
X161349267Y-103437267D01*
X161349267Y-103013933D01*
X161179934Y-103013933D01*
X161179934Y-103267933D01*
X158216600Y-103267933D01*
X158216600Y-102421267D01*
X159528934Y-102421267D01*
X160032794Y-102422953D01*
X160395508Y-102430161D01*
X160645247Y-102446108D01*
X160810182Y-102474014D01*
X160918486Y-102517100D01*
X160998329Y-102578585D01*
X161010600Y-102590600D01*
X161138061Y-102804179D01*
X161179934Y-103013933D01*
X161349267Y-103013933D01*
X161349267Y-102421267D01*
X162111267Y-102421267D01*
X162111267Y-101405267D01*
X163211934Y-101405267D01*
X165119743Y-101405267D01*
X165116934Y-101154834D01*
X164882261Y-100920217D01*
X164647587Y-100685600D01*
X161435957Y-100661532D01*
X158224327Y-100637465D01*
X158060112Y-100428699D01*
X157864348Y-100266123D01*
X157660173Y-100228170D01*
X157495963Y-100320423D01*
X157469032Y-100360472D01*
X157401542Y-100446082D01*
X157336293Y-100394580D01*
X157289797Y-100313064D01*
X157148214Y-100168541D01*
X156962073Y-100151359D01*
X156771181Y-100234992D01*
M02*
