G04 #@! TF.FileFunction,Soldermask,Bot*
%FSLAX46Y46*%
G04 Gerber Fmt 4.6, Leading zero omitted, Abs format (unit mm)*
G04 Created by KiCad (PCBNEW 4.0.7) date 05/12/18 20:25:59*
%MOMM*%
%LPD*%
G01*
G04 APERTURE LIST*
%ADD10C,0.127000*%
%ADD11C,1.600000*%
%ADD12C,3.100000*%
%ADD13R,3.600000X3.600000*%
%ADD14C,2.300000*%
%ADD15C,1.550000*%
%ADD16O,2.000000X1.300000*%
%ADD17R,1.800000X1.800000*%
%ADD18O,1.800000X1.800000*%
G04 APERTURE END LIST*
D10*
D11*
X119992000Y-92735400D03*
X122532000Y-92735400D03*
X124562000Y-92735400D03*
X127102000Y-92735400D03*
D12*
X116942000Y-90065400D03*
X130662000Y-90065400D03*
D11*
X138264000Y-92735400D03*
X140804000Y-92735400D03*
X142834000Y-92735400D03*
X145374000Y-92735400D03*
D12*
X135214000Y-90065400D03*
X148934000Y-90065400D03*
D11*
X156705000Y-92679500D03*
X159245000Y-92679500D03*
X161275000Y-92679500D03*
X163815000Y-92679500D03*
D12*
X153655000Y-90009500D03*
X167375000Y-90009500D03*
D11*
X163815000Y-96177100D03*
X161275000Y-96177100D03*
X159245000Y-96177100D03*
X156705000Y-96177100D03*
D12*
X166865000Y-98847100D03*
X153145000Y-98847100D03*
D13*
X119695000Y-99298800D03*
X119695000Y-105298800D03*
X124395000Y-102298800D03*
D14*
X170216000Y-106147000D03*
X170216000Y-82844600D03*
X111917000Y-82839600D03*
X111907000Y-106116000D03*
D15*
X112756000Y-86847000D03*
X112756000Y-91847000D03*
D16*
X110056000Y-85847000D03*
X110056000Y-92847000D03*
D17*
X171021000Y-97538500D03*
D18*
X171021000Y-94998500D03*
X171021000Y-92458500D03*
X171021000Y-89918500D03*
D17*
X110498000Y-101933000D03*
D18*
X113038000Y-101933000D03*
D17*
X110490000Y-99151400D03*
D18*
X113030000Y-99151400D03*
M02*
