M48
;DRILL file {KiCad 4.0.7} date 04/20/18 23:23:35
;FORMAT={3:3/ absolute / metric / suppress leading zeros}
FMAT,2
METRIC,TZ
T1C0.330
T2C0.600
T3C0.850
T4C1.000
T5C2.300
T6C2.200
%
G90
G05
M71
T1
X114183Y-87963
X115391Y-92412
X116703Y-83713
X118082Y-88171
X122387Y-94251
X123495Y-96715
X126639Y-96781
X130103Y-101292
X131664Y-101877
X131941Y-80606
X135170Y-101833
X136032Y-98512
X136237Y-102475
X137082Y-103161
X137098Y-98666
X137103Y-99858
X139961Y-102986
X144685Y-98971
X145808Y-98912
X149054Y-105298
T3
X112756Y-86847
X112756Y-91847
T4
X110490Y-99151
X110498Y-101933
X113030Y-99151
X113038Y-101933
X119992Y-92735
X122532Y-92735
X124562Y-92735
X127102Y-92735
X138264Y-92735
X140804Y-92735
X142834Y-92735
X145374Y-92735
X156705Y-92679
X157196Y-96205
X159245Y-92679
X159736Y-96205
X161275Y-92679
X161766Y-96205
X163815Y-92679
X164306Y-96205
X171021Y-89918
X171021Y-92459
X171021Y-94998
X171021Y-97539
T5
X116942Y-90065
X130662Y-90065
X135214Y-90065
X148934Y-90065
X153636Y-98875
X153655Y-90010
X167356Y-98875
X167375Y-90010
T6
X111907Y-106116
X111917Y-82840
X170216Y-82845
X170216Y-106147
T2
X110406Y-85847G85X109706Y-85847
G05
X110406Y-92847G85X109706Y-92847
G05
T4
X118695Y-99299G85X120695Y-99299
G05
X118695Y-105299G85X120695Y-105299
G05
X124395Y-103299G85X124395Y-101299
G05
T0
M30
