G04 #@! TF.FileFunction,Copper,L2,Bot,Signal*
%FSLAX46Y46*%
G04 Gerber Fmt 4.6, Leading zero omitted, Abs format (unit mm)*
G04 Created by KiCad (PCBNEW 4.0.7) date 05/12/18 20:25:59*
%MOMM*%
%LPD*%
G01*
G04 APERTURE LIST*
%ADD10C,0.127000*%
%ADD11C,1.500000*%
%ADD12C,3.000000*%
%ADD13R,3.500000X3.500000*%
%ADD14C,1.450000*%
%ADD15O,1.900000X1.200000*%
%ADD16R,1.700000X1.700000*%
%ADD17O,1.700000X1.700000*%
%ADD18C,0.685800*%
%ADD19C,0.330000*%
%ADD20C,0.254000*%
G04 APERTURE END LIST*
D10*
D11*
X119992000Y-92735400D03*
X122532000Y-92735400D03*
X124562000Y-92735400D03*
X127102000Y-92735400D03*
D12*
X116942000Y-90065400D03*
X130662000Y-90065400D03*
D11*
X138264000Y-92735400D03*
X140804000Y-92735400D03*
X142834000Y-92735400D03*
X145374000Y-92735400D03*
D12*
X135214000Y-90065400D03*
X148934000Y-90065400D03*
D11*
X156705000Y-92679500D03*
X159245000Y-92679500D03*
X161275000Y-92679500D03*
X163815000Y-92679500D03*
D12*
X153655000Y-90009500D03*
X167375000Y-90009500D03*
D11*
X163815000Y-96177100D03*
X161275000Y-96177100D03*
X159245000Y-96177100D03*
X156705000Y-96177100D03*
D12*
X166865000Y-98847100D03*
X153145000Y-98847100D03*
D13*
X119695000Y-99298800D03*
X119695000Y-105298800D03*
X124395000Y-102298800D03*
D14*
X112756000Y-86847000D03*
X112756000Y-91847000D03*
D15*
X110056000Y-85847000D03*
X110056000Y-92847000D03*
D16*
X171021000Y-97538500D03*
D17*
X171021000Y-94998500D03*
X171021000Y-92458500D03*
X171021000Y-89918500D03*
D16*
X110498000Y-101933000D03*
D17*
X113038000Y-101933000D03*
D16*
X110490000Y-99151400D03*
D17*
X113030000Y-99151400D03*
D18*
X140742200Y-104332200D03*
X135199300Y-103447000D03*
X139933600Y-98331700D03*
X131680900Y-100452300D03*
X149047500Y-106345400D03*
X125637700Y-97761900D03*
X150248000Y-106210400D03*
X123153300Y-81097100D03*
X124160000Y-96803500D03*
X145801800Y-97035000D03*
X140089600Y-102747200D03*
X135270100Y-97812900D03*
X136530200Y-97646300D03*
X137107000Y-99858000D03*
X137108000Y-102490400D03*
X138934300Y-90680100D03*
X114472500Y-88226800D03*
X114678000Y-89347000D03*
X132928800Y-93427300D03*
X130650500Y-97457200D03*
X127686600Y-105219200D03*
D19*
X136840700Y-101652500D02*
X137860800Y-101652500D01*
X135199300Y-103293900D02*
X136840700Y-101652500D01*
X135199300Y-103447000D02*
X135199300Y-103293900D01*
X140540500Y-104332200D02*
X140742200Y-104332200D01*
X137860800Y-101652500D02*
X140540500Y-104332200D01*
X139933600Y-99579700D02*
X139933600Y-98331700D01*
X137860800Y-101652500D02*
X139933600Y-99579700D01*
X110490000Y-99151400D02*
X110490000Y-97882100D01*
X110056000Y-92847000D02*
X110740700Y-92847000D01*
X110740700Y-97631400D02*
X110740700Y-92847000D01*
X110490000Y-97882100D02*
X110740700Y-97631400D01*
X111756000Y-92847000D02*
X112756000Y-91847000D01*
X110740700Y-92847000D02*
X111756000Y-92847000D01*
X113030000Y-99151400D02*
X110490000Y-99151400D01*
X122662000Y-90065400D02*
X130662000Y-90065400D01*
X119992000Y-92735400D02*
X122662000Y-90065400D01*
X137884000Y-92735400D02*
X138264000Y-92735400D01*
X135214000Y-90065400D02*
X137884000Y-92735400D01*
X153145000Y-96239500D02*
X153145000Y-98847100D01*
X156705000Y-92679500D02*
X153145000Y-96239500D01*
D20*
X131680900Y-100953000D02*
X131680900Y-100452300D01*
X137073300Y-106345400D02*
X131680900Y-100953000D01*
X149047500Y-106345400D02*
X137073300Y-106345400D01*
X128328100Y-100452300D02*
X125637700Y-97761900D01*
X131680900Y-100452300D02*
X128328100Y-100452300D01*
X124160000Y-98744200D02*
X124160000Y-96803500D01*
X125093000Y-98744200D02*
X124160000Y-98744200D01*
X133463900Y-107115100D02*
X125093000Y-98744200D01*
X149343300Y-107115100D02*
X133463900Y-107115100D01*
X150248000Y-106210400D02*
X149343300Y-107115100D01*
X120560500Y-81097100D02*
X123153300Y-81097100D01*
X113716000Y-87941600D02*
X120560500Y-81097100D01*
X113716000Y-90590900D02*
X113716000Y-87941600D01*
X114261400Y-91136300D02*
X113716000Y-90590900D01*
X114261400Y-99661400D02*
X114261400Y-91136300D01*
X113380600Y-100542200D02*
X114261400Y-99661400D01*
X112612500Y-100542200D02*
X113380600Y-100542200D01*
X111806600Y-101348100D02*
X112612500Y-100542200D01*
X111806600Y-102443000D02*
X111806600Y-101348100D01*
X112551200Y-103187600D02*
X111806600Y-102443000D01*
X115806200Y-103187600D02*
X112551200Y-103187600D01*
X117563600Y-101430200D02*
X115806200Y-103187600D01*
X121611100Y-101430200D02*
X117563600Y-101430200D01*
X122263600Y-100777700D02*
X121611100Y-101430200D01*
X122263600Y-100386000D02*
X122263600Y-100777700D01*
X123905400Y-98744200D02*
X122263600Y-100386000D01*
X124160000Y-98744200D02*
X123905400Y-98744200D01*
X145801800Y-97035000D02*
X140089600Y-102747200D01*
X130019900Y-98193300D02*
X124562000Y-92735400D01*
X134889700Y-98193300D02*
X130019900Y-98193300D01*
X135270100Y-97812900D02*
X134889700Y-98193300D01*
X128519800Y-98723200D02*
X122532000Y-92735400D01*
X135453300Y-98723200D02*
X128519800Y-98723200D01*
X136530200Y-97646300D02*
X135453300Y-98723200D01*
X137107000Y-98462400D02*
X137107000Y-99858000D01*
X142834000Y-92735400D02*
X137107000Y-98462400D01*
X139675200Y-105057600D02*
X137108000Y-102490400D01*
X150364500Y-105057600D02*
X139675200Y-105057600D01*
X159245000Y-96177100D02*
X150364500Y-105057600D01*
X171021000Y-89918500D02*
X169789700Y-89918500D01*
X138987000Y-88121400D02*
X138934300Y-88174100D01*
X168223500Y-88121400D02*
X138987000Y-88121400D01*
X169789700Y-89687600D02*
X168223500Y-88121400D01*
X169789700Y-89918500D02*
X169789700Y-89687600D01*
X138934300Y-88174100D02*
X138934300Y-90680100D01*
X115033500Y-87665800D02*
X114472500Y-88226800D01*
X138426000Y-87665800D02*
X115033500Y-87665800D01*
X138934300Y-88174100D02*
X138426000Y-87665800D01*
X115850900Y-88174100D02*
X114678000Y-89347000D01*
X131431400Y-88174100D02*
X115850900Y-88174100D01*
X132928800Y-89671500D02*
X131431400Y-88174100D01*
X132928800Y-93427300D02*
X132928800Y-89671500D01*
D19*
X162614100Y-93880400D02*
X163815000Y-92679500D01*
X157877300Y-93880400D02*
X162614100Y-93880400D01*
X157877300Y-95004800D02*
X156705000Y-96177100D01*
X157877300Y-93880400D02*
X157877300Y-95004800D01*
X164892700Y-92679500D02*
X163815000Y-92679500D01*
X169751700Y-97538500D02*
X164892700Y-92679500D01*
X171021000Y-97538500D02*
X169751700Y-97538500D01*
X157877300Y-92187400D02*
X157877300Y-93880400D01*
X157193500Y-91503600D02*
X157877300Y-92187400D01*
X155580900Y-91503600D02*
X157193500Y-91503600D01*
X154349100Y-92735400D02*
X155580900Y-91503600D01*
X145374000Y-92735400D02*
X154349100Y-92735400D01*
X138543100Y-94213600D02*
X130650500Y-94213600D01*
X139534100Y-93222600D02*
X138543100Y-94213600D01*
X139534100Y-92291800D02*
X139534100Y-93222600D01*
X140282400Y-91543500D02*
X139534100Y-92291800D01*
X144182100Y-91543500D02*
X140282400Y-91543500D01*
X145374000Y-92735400D02*
X144182100Y-91543500D01*
X116033200Y-107468200D02*
X110498000Y-101933000D01*
X125437600Y-107468200D02*
X116033200Y-107468200D01*
X127686600Y-105219200D02*
X125437600Y-107468200D01*
X113038000Y-101933000D02*
X114307300Y-101933000D01*
X128580200Y-94213600D02*
X127102000Y-92735400D01*
X130650500Y-94213600D02*
X128580200Y-94213600D01*
X116941500Y-99298800D02*
X119695000Y-99298800D01*
X114307300Y-101933000D02*
X116941500Y-99298800D01*
X125877300Y-91510700D02*
X127102000Y-92735400D01*
X122043200Y-91510700D02*
X125877300Y-91510700D01*
X121262000Y-92291900D02*
X122043200Y-91510700D01*
X121262000Y-95562500D02*
X121262000Y-92291900D01*
X119695000Y-97129500D02*
X121262000Y-95562500D01*
X119695000Y-99298800D02*
X119695000Y-97129500D01*
X130650500Y-94213600D02*
X130650500Y-97457200D01*
D20*
G36*
X171674156Y-80164655D02*
X171787831Y-80179620D01*
X171899781Y-80204438D01*
X172009134Y-80238918D01*
X172115069Y-80282797D01*
X172216771Y-80335741D01*
X172313479Y-80397350D01*
X172404449Y-80467154D01*
X172488984Y-80544616D01*
X172566446Y-80629151D01*
X172636250Y-80720121D01*
X172697859Y-80816829D01*
X172750803Y-80918531D01*
X172794684Y-81024472D01*
X172824654Y-81119522D01*
X172867005Y-81359712D01*
X172874056Y-107458688D01*
X172868434Y-107588225D01*
X172853495Y-107701920D01*
X172828699Y-107813891D01*
X172794237Y-107923274D01*
X172750373Y-108029231D01*
X172697435Y-108130971D01*
X172635836Y-108227698D01*
X172566033Y-108318696D01*
X172488569Y-108403258D01*
X172404025Y-108480748D01*
X172313048Y-108550574D01*
X172216333Y-108612201D01*
X172114626Y-108665157D01*
X172008661Y-108709057D01*
X171899300Y-108743545D01*
X171831220Y-108758641D01*
X110577337Y-108788032D01*
X110447710Y-108782429D01*
X110333910Y-108767487D01*
X110221843Y-108742674D01*
X110112383Y-108708183D01*
X110006336Y-108664268D01*
X109904527Y-108611270D01*
X109807738Y-108549597D01*
X109716690Y-108479710D01*
X109632088Y-108402147D01*
X109554580Y-108317504D01*
X109484741Y-108226408D01*
X109423127Y-108129584D01*
X109370186Y-108027738D01*
X109326339Y-107921676D01*
X109291910Y-107812185D01*
X109276814Y-107743816D01*
X109276508Y-103297711D01*
X109396110Y-103379431D01*
X109648000Y-103430440D01*
X110864070Y-103430440D01*
X111739158Y-104305528D01*
X111522548Y-104334045D01*
X111437699Y-104362848D01*
X111349818Y-104380328D01*
X111072461Y-104495214D01*
X110997962Y-104544993D01*
X110917599Y-104584623D01*
X110679426Y-104767379D01*
X110620347Y-104834747D01*
X110552979Y-104893826D01*
X110370223Y-105131999D01*
X110330592Y-105212364D01*
X110280814Y-105286861D01*
X110165928Y-105564219D01*
X110148448Y-105652100D01*
X110119645Y-105736949D01*
X110080460Y-106034590D01*
X110086320Y-106124000D01*
X110080460Y-106213410D01*
X110119645Y-106511051D01*
X110148448Y-106595900D01*
X110165928Y-106683781D01*
X110280814Y-106961139D01*
X110330592Y-107035636D01*
X110370223Y-107116001D01*
X110552979Y-107354174D01*
X110620347Y-107413253D01*
X110679426Y-107480621D01*
X110917599Y-107663377D01*
X110997962Y-107703007D01*
X111072461Y-107752786D01*
X111349818Y-107867672D01*
X111437699Y-107885152D01*
X111522548Y-107913955D01*
X111820190Y-107953140D01*
X111909597Y-107947279D01*
X111999010Y-107953140D01*
X112296651Y-107913955D01*
X112381500Y-107885152D01*
X112469381Y-107867672D01*
X112746739Y-107752786D01*
X112821236Y-107703008D01*
X112901601Y-107663377D01*
X113139774Y-107480621D01*
X113198853Y-107413253D01*
X113266221Y-107354174D01*
X113448977Y-107116001D01*
X113488607Y-107035638D01*
X113538386Y-106961139D01*
X113653272Y-106683782D01*
X113670752Y-106595901D01*
X113699555Y-106511052D01*
X113728072Y-106294442D01*
X115467515Y-108033885D01*
X115727053Y-108207304D01*
X116033200Y-108268200D01*
X125437600Y-108268200D01*
X125743747Y-108207304D01*
X126003285Y-108033885D01*
X127839937Y-106197234D01*
X127880263Y-106197269D01*
X128239812Y-106048707D01*
X128515140Y-105773859D01*
X128664330Y-105414570D01*
X128664669Y-105025537D01*
X128516107Y-104665988D01*
X128241259Y-104390660D01*
X127881970Y-104241470D01*
X127492937Y-104241131D01*
X127133388Y-104389693D01*
X126858060Y-104664541D01*
X126708870Y-105023830D01*
X126708834Y-105065596D01*
X125106230Y-106668200D01*
X122080000Y-106668200D01*
X122080000Y-105584550D01*
X121921250Y-105425800D01*
X119822000Y-105425800D01*
X119822000Y-105445800D01*
X119568000Y-105445800D01*
X119568000Y-105425800D01*
X117468750Y-105425800D01*
X117310000Y-105584550D01*
X117310000Y-106668200D01*
X116364570Y-106668200D01*
X113645970Y-103949600D01*
X115806200Y-103949600D01*
X116097805Y-103891596D01*
X116345015Y-103726415D01*
X116648939Y-103422491D01*
X117310000Y-103422491D01*
X117310000Y-105013050D01*
X117468750Y-105171800D01*
X119568000Y-105171800D01*
X119568000Y-103072550D01*
X119409250Y-102913800D01*
X117818690Y-102913800D01*
X117585301Y-103010473D01*
X117406673Y-103189102D01*
X117310000Y-103422491D01*
X116648939Y-103422491D01*
X117879230Y-102192200D01*
X121611100Y-102192200D01*
X121902705Y-102134196D01*
X121997560Y-102070816D01*
X121997560Y-103223463D01*
X121983327Y-103189102D01*
X121804699Y-103010473D01*
X121571310Y-102913800D01*
X119980750Y-102913800D01*
X119822000Y-103072550D01*
X119822000Y-105171800D01*
X121921250Y-105171800D01*
X122080000Y-105013050D01*
X122080000Y-104343422D01*
X122180910Y-104500241D01*
X122393110Y-104645231D01*
X122645000Y-104696240D01*
X126145000Y-104696240D01*
X126380317Y-104651962D01*
X126596441Y-104512890D01*
X126741431Y-104300690D01*
X126792440Y-104048800D01*
X126792440Y-101521270D01*
X132925084Y-107653915D01*
X133148791Y-107803391D01*
X133172295Y-107819096D01*
X133463900Y-107877100D01*
X149343300Y-107877100D01*
X149634905Y-107819096D01*
X149882115Y-107653915D01*
X150347643Y-107188387D01*
X150441663Y-107188469D01*
X150801212Y-107039907D01*
X151076540Y-106765059D01*
X151225730Y-106405770D01*
X151226053Y-106034590D01*
X168380460Y-106034590D01*
X168386320Y-106124000D01*
X168380460Y-106213410D01*
X168419645Y-106511051D01*
X168448448Y-106595900D01*
X168465928Y-106683781D01*
X168580814Y-106961139D01*
X168630592Y-107035636D01*
X168670223Y-107116001D01*
X168852979Y-107354174D01*
X168920347Y-107413253D01*
X168979426Y-107480621D01*
X169217599Y-107663377D01*
X169297962Y-107703007D01*
X169372461Y-107752786D01*
X169649818Y-107867672D01*
X169737699Y-107885152D01*
X169822548Y-107913955D01*
X170120190Y-107953140D01*
X170209597Y-107947279D01*
X170299010Y-107953140D01*
X170596651Y-107913955D01*
X170681500Y-107885152D01*
X170769381Y-107867672D01*
X171046739Y-107752786D01*
X171121236Y-107703008D01*
X171201601Y-107663377D01*
X171439774Y-107480621D01*
X171498853Y-107413253D01*
X171566221Y-107354174D01*
X171748977Y-107116001D01*
X171788607Y-107035638D01*
X171838386Y-106961139D01*
X171953272Y-106683782D01*
X171970752Y-106595901D01*
X171999555Y-106511052D01*
X172038740Y-106213410D01*
X172032879Y-106124000D01*
X172038740Y-106034590D01*
X171999555Y-105736948D01*
X171970752Y-105652099D01*
X171953272Y-105564218D01*
X171838386Y-105286861D01*
X171788607Y-105212362D01*
X171748977Y-105131999D01*
X171566221Y-104893826D01*
X171498853Y-104834747D01*
X171439774Y-104767379D01*
X171201601Y-104584623D01*
X171121236Y-104544992D01*
X171046739Y-104495214D01*
X170769381Y-104380328D01*
X170681500Y-104362848D01*
X170596651Y-104334045D01*
X170299010Y-104294860D01*
X170209597Y-104300721D01*
X170120190Y-104294860D01*
X169822548Y-104334045D01*
X169737699Y-104362848D01*
X169649818Y-104380328D01*
X169372461Y-104495214D01*
X169297962Y-104544993D01*
X169217599Y-104584623D01*
X168979426Y-104767379D01*
X168920347Y-104834747D01*
X168852979Y-104893826D01*
X168670223Y-105131999D01*
X168630592Y-105212364D01*
X168580814Y-105286861D01*
X168465928Y-105564219D01*
X168448448Y-105652100D01*
X168419645Y-105736949D01*
X168380460Y-106034590D01*
X151226053Y-106034590D01*
X151226069Y-106016737D01*
X151077507Y-105657188D01*
X150960127Y-105539603D01*
X156138660Y-100361070D01*
X165530635Y-100361070D01*
X165690418Y-100679839D01*
X166481187Y-100989823D01*
X167330387Y-100973597D01*
X168039582Y-100679839D01*
X168199365Y-100361070D01*
X166865000Y-99026705D01*
X165530635Y-100361070D01*
X156138660Y-100361070D01*
X158036443Y-98463287D01*
X164722277Y-98463287D01*
X164738503Y-99312487D01*
X165032261Y-100021682D01*
X165351030Y-100181465D01*
X166685395Y-98847100D01*
X165351030Y-97512735D01*
X165032261Y-97672518D01*
X164722277Y-98463287D01*
X158036443Y-98463287D01*
X158946799Y-97552932D01*
X158968298Y-97561859D01*
X159519285Y-97562340D01*
X160028515Y-97351931D01*
X160260062Y-97120787D01*
X160489436Y-97350561D01*
X160998298Y-97561859D01*
X161549285Y-97562340D01*
X162058515Y-97351931D01*
X162262183Y-97148617D01*
X163023088Y-97148617D01*
X163091077Y-97389560D01*
X163610171Y-97574301D01*
X164160448Y-97546330D01*
X164538923Y-97389560D01*
X164606912Y-97148617D01*
X163815000Y-96356705D01*
X163023088Y-97148617D01*
X162262183Y-97148617D01*
X162448461Y-96962664D01*
X162538377Y-96746121D01*
X162602540Y-96901023D01*
X162843483Y-96969012D01*
X163635395Y-96177100D01*
X163994605Y-96177100D01*
X164786517Y-96969012D01*
X165027460Y-96901023D01*
X165212201Y-96381929D01*
X165184230Y-95831652D01*
X165027460Y-95453177D01*
X164786517Y-95385188D01*
X163994605Y-96177100D01*
X163635395Y-96177100D01*
X162843483Y-95385188D01*
X162602540Y-95453177D01*
X162543268Y-95619721D01*
X162449831Y-95393585D01*
X162262157Y-95205583D01*
X163023088Y-95205583D01*
X163815000Y-95997495D01*
X164606912Y-95205583D01*
X164538923Y-94964640D01*
X164019829Y-94779899D01*
X163469552Y-94807870D01*
X163091077Y-94964640D01*
X163023088Y-95205583D01*
X162262157Y-95205583D01*
X162060564Y-95003639D01*
X161551702Y-94792341D01*
X161000715Y-94791860D01*
X160491485Y-95002269D01*
X160259938Y-95233413D01*
X160030564Y-95003639D01*
X159521702Y-94792341D01*
X158970715Y-94791860D01*
X158677300Y-94913096D01*
X158677300Y-94680400D01*
X162614100Y-94680400D01*
X162920247Y-94619504D01*
X163179785Y-94446085D01*
X163561591Y-94064279D01*
X164089285Y-94064740D01*
X164598515Y-93854331D01*
X164767485Y-93685655D01*
X168307161Y-97225331D01*
X168199364Y-97333128D01*
X168039582Y-97014361D01*
X167248813Y-96704377D01*
X166399613Y-96720603D01*
X165690418Y-97014361D01*
X165530635Y-97333130D01*
X166865000Y-98667495D01*
X166879143Y-98653353D01*
X167058748Y-98832958D01*
X167044605Y-98847100D01*
X168378970Y-100181465D01*
X168697739Y-100021682D01*
X169007723Y-99230913D01*
X168991497Y-98381713D01*
X168697739Y-97672518D01*
X168378972Y-97512736D01*
X168486769Y-97404939D01*
X169186015Y-98104186D01*
X169445553Y-98277604D01*
X169523560Y-98293120D01*
X169523560Y-98388500D01*
X169567838Y-98623817D01*
X169706910Y-98839941D01*
X169919110Y-98984931D01*
X170171000Y-99035940D01*
X171871000Y-99035940D01*
X172106317Y-98991662D01*
X172322441Y-98852590D01*
X172467431Y-98640390D01*
X172518440Y-98388500D01*
X172518440Y-96688500D01*
X172474162Y-96453183D01*
X172335090Y-96237059D01*
X172122890Y-96092069D01*
X172014893Y-96070199D01*
X172292645Y-95765424D01*
X172462476Y-95355390D01*
X172341155Y-95125500D01*
X171148000Y-95125500D01*
X171148000Y-95145500D01*
X170894000Y-95145500D01*
X170894000Y-95125500D01*
X169700845Y-95125500D01*
X169579524Y-95355390D01*
X169749355Y-95765424D01*
X170025501Y-96068437D01*
X169935683Y-96085338D01*
X169719559Y-96224410D01*
X169658437Y-96313866D01*
X165458385Y-92113815D01*
X165198847Y-91940396D01*
X165173730Y-91935400D01*
X164991107Y-91899074D01*
X164989831Y-91895985D01*
X164617965Y-91523470D01*
X166040635Y-91523470D01*
X166200418Y-91842239D01*
X166991187Y-92152223D01*
X167840387Y-92135997D01*
X168549582Y-91842239D01*
X168709365Y-91523470D01*
X167375000Y-90189105D01*
X166040635Y-91523470D01*
X164617965Y-91523470D01*
X164600564Y-91506039D01*
X164091702Y-91294741D01*
X163540715Y-91294260D01*
X163031485Y-91504669D01*
X162641539Y-91893936D01*
X162545024Y-92126370D01*
X162449831Y-91895985D01*
X162060564Y-91506039D01*
X161551702Y-91294741D01*
X161000715Y-91294260D01*
X160491485Y-91504669D01*
X160259938Y-91735813D01*
X160030564Y-91506039D01*
X159521702Y-91294741D01*
X158970715Y-91294260D01*
X158461485Y-91504669D01*
X158393653Y-91572382D01*
X157759185Y-90937915D01*
X157499647Y-90764496D01*
X157193500Y-90703600D01*
X155676089Y-90703600D01*
X155797723Y-90393313D01*
X155781497Y-89544113D01*
X155507821Y-88883400D01*
X165523256Y-88883400D01*
X165232277Y-89625687D01*
X165248503Y-90474887D01*
X165542261Y-91184082D01*
X165861030Y-91343865D01*
X167195395Y-90009500D01*
X167181253Y-89995358D01*
X167360858Y-89815753D01*
X167375000Y-89829895D01*
X167389143Y-89815753D01*
X167568748Y-89995358D01*
X167554605Y-90009500D01*
X168888970Y-91343865D01*
X169207739Y-91184082D01*
X169442456Y-90585319D01*
X169498095Y-90622496D01*
X169743202Y-90671251D01*
X169941853Y-90968554D01*
X170271026Y-91188500D01*
X169941853Y-91408446D01*
X169619946Y-91890215D01*
X169506907Y-92458500D01*
X169619946Y-93026785D01*
X169941853Y-93508554D01*
X170282553Y-93736202D01*
X170139642Y-93803317D01*
X169749355Y-94231576D01*
X169579524Y-94641610D01*
X169700845Y-94871500D01*
X170894000Y-94871500D01*
X170894000Y-94851500D01*
X171148000Y-94851500D01*
X171148000Y-94871500D01*
X172341155Y-94871500D01*
X172462476Y-94641610D01*
X172292645Y-94231576D01*
X171902358Y-93803317D01*
X171759447Y-93736202D01*
X172100147Y-93508554D01*
X172422054Y-93026785D01*
X172535093Y-92458500D01*
X172422054Y-91890215D01*
X172100147Y-91408446D01*
X171770974Y-91188500D01*
X172100147Y-90968554D01*
X172422054Y-90486785D01*
X172535093Y-89918500D01*
X172422054Y-89350215D01*
X172100147Y-88868446D01*
X171618378Y-88546539D01*
X171050093Y-88433500D01*
X170991907Y-88433500D01*
X170423622Y-88546539D01*
X170005590Y-88825859D01*
X168762315Y-87582585D01*
X168722345Y-87555878D01*
X168515105Y-87417404D01*
X168223500Y-87359400D01*
X139197230Y-87359400D01*
X138964815Y-87126985D01*
X138756796Y-86987991D01*
X138717605Y-86961804D01*
X138426000Y-86903800D01*
X115831430Y-86903800D01*
X120000640Y-82734590D01*
X168380460Y-82734590D01*
X168386320Y-82824000D01*
X168380460Y-82913410D01*
X168419645Y-83211051D01*
X168448448Y-83295900D01*
X168465928Y-83383781D01*
X168580814Y-83661139D01*
X168630592Y-83735636D01*
X168670223Y-83816001D01*
X168852979Y-84054174D01*
X168920347Y-84113253D01*
X168979426Y-84180621D01*
X169217599Y-84363377D01*
X169297962Y-84403007D01*
X169372461Y-84452786D01*
X169649818Y-84567672D01*
X169737699Y-84585152D01*
X169822548Y-84613955D01*
X170120190Y-84653140D01*
X170209597Y-84647279D01*
X170299010Y-84653140D01*
X170596651Y-84613955D01*
X170681500Y-84585152D01*
X170769381Y-84567672D01*
X171046739Y-84452786D01*
X171121236Y-84403008D01*
X171201601Y-84363377D01*
X171439774Y-84180621D01*
X171498853Y-84113253D01*
X171566221Y-84054174D01*
X171748977Y-83816001D01*
X171788607Y-83735638D01*
X171838386Y-83661139D01*
X171953272Y-83383782D01*
X171970752Y-83295901D01*
X171999555Y-83211052D01*
X172038740Y-82913410D01*
X172032879Y-82824000D01*
X172038740Y-82734590D01*
X171999555Y-82436948D01*
X171970752Y-82352099D01*
X171953272Y-82264218D01*
X171838386Y-81986861D01*
X171788607Y-81912362D01*
X171748977Y-81831999D01*
X171566221Y-81593826D01*
X171498853Y-81534747D01*
X171439774Y-81467379D01*
X171201601Y-81284623D01*
X171121236Y-81244992D01*
X171046739Y-81195214D01*
X170769381Y-81080328D01*
X170681500Y-81062848D01*
X170596651Y-81034045D01*
X170299010Y-80994860D01*
X170209597Y-81000721D01*
X170120190Y-80994860D01*
X169822548Y-81034045D01*
X169737699Y-81062848D01*
X169649818Y-81080328D01*
X169372461Y-81195214D01*
X169297962Y-81244993D01*
X169217599Y-81284623D01*
X168979426Y-81467379D01*
X168920347Y-81534747D01*
X168852979Y-81593826D01*
X168670223Y-81831999D01*
X168630592Y-81912364D01*
X168580814Y-81986861D01*
X168465928Y-82264219D01*
X168448448Y-82352100D01*
X168419645Y-82436949D01*
X168380460Y-82734590D01*
X120000640Y-82734590D01*
X120876131Y-81859100D01*
X122532217Y-81859100D01*
X122598641Y-81925640D01*
X122957930Y-82074830D01*
X123346963Y-82075169D01*
X123706512Y-81926607D01*
X123981840Y-81651759D01*
X124131030Y-81292470D01*
X124131369Y-80903437D01*
X123982807Y-80543888D01*
X123707959Y-80268560D01*
X123444110Y-80159000D01*
X171544651Y-80159000D01*
X171674156Y-80164655D01*
X171674156Y-80164655D01*
G37*
X171674156Y-80164655D02*
X171787831Y-80179620D01*
X171899781Y-80204438D01*
X172009134Y-80238918D01*
X172115069Y-80282797D01*
X172216771Y-80335741D01*
X172313479Y-80397350D01*
X172404449Y-80467154D01*
X172488984Y-80544616D01*
X172566446Y-80629151D01*
X172636250Y-80720121D01*
X172697859Y-80816829D01*
X172750803Y-80918531D01*
X172794684Y-81024472D01*
X172824654Y-81119522D01*
X172867005Y-81359712D01*
X172874056Y-107458688D01*
X172868434Y-107588225D01*
X172853495Y-107701920D01*
X172828699Y-107813891D01*
X172794237Y-107923274D01*
X172750373Y-108029231D01*
X172697435Y-108130971D01*
X172635836Y-108227698D01*
X172566033Y-108318696D01*
X172488569Y-108403258D01*
X172404025Y-108480748D01*
X172313048Y-108550574D01*
X172216333Y-108612201D01*
X172114626Y-108665157D01*
X172008661Y-108709057D01*
X171899300Y-108743545D01*
X171831220Y-108758641D01*
X110577337Y-108788032D01*
X110447710Y-108782429D01*
X110333910Y-108767487D01*
X110221843Y-108742674D01*
X110112383Y-108708183D01*
X110006336Y-108664268D01*
X109904527Y-108611270D01*
X109807738Y-108549597D01*
X109716690Y-108479710D01*
X109632088Y-108402147D01*
X109554580Y-108317504D01*
X109484741Y-108226408D01*
X109423127Y-108129584D01*
X109370186Y-108027738D01*
X109326339Y-107921676D01*
X109291910Y-107812185D01*
X109276814Y-107743816D01*
X109276508Y-103297711D01*
X109396110Y-103379431D01*
X109648000Y-103430440D01*
X110864070Y-103430440D01*
X111739158Y-104305528D01*
X111522548Y-104334045D01*
X111437699Y-104362848D01*
X111349818Y-104380328D01*
X111072461Y-104495214D01*
X110997962Y-104544993D01*
X110917599Y-104584623D01*
X110679426Y-104767379D01*
X110620347Y-104834747D01*
X110552979Y-104893826D01*
X110370223Y-105131999D01*
X110330592Y-105212364D01*
X110280814Y-105286861D01*
X110165928Y-105564219D01*
X110148448Y-105652100D01*
X110119645Y-105736949D01*
X110080460Y-106034590D01*
X110086320Y-106124000D01*
X110080460Y-106213410D01*
X110119645Y-106511051D01*
X110148448Y-106595900D01*
X110165928Y-106683781D01*
X110280814Y-106961139D01*
X110330592Y-107035636D01*
X110370223Y-107116001D01*
X110552979Y-107354174D01*
X110620347Y-107413253D01*
X110679426Y-107480621D01*
X110917599Y-107663377D01*
X110997962Y-107703007D01*
X111072461Y-107752786D01*
X111349818Y-107867672D01*
X111437699Y-107885152D01*
X111522548Y-107913955D01*
X111820190Y-107953140D01*
X111909597Y-107947279D01*
X111999010Y-107953140D01*
X112296651Y-107913955D01*
X112381500Y-107885152D01*
X112469381Y-107867672D01*
X112746739Y-107752786D01*
X112821236Y-107703008D01*
X112901601Y-107663377D01*
X113139774Y-107480621D01*
X113198853Y-107413253D01*
X113266221Y-107354174D01*
X113448977Y-107116001D01*
X113488607Y-107035638D01*
X113538386Y-106961139D01*
X113653272Y-106683782D01*
X113670752Y-106595901D01*
X113699555Y-106511052D01*
X113728072Y-106294442D01*
X115467515Y-108033885D01*
X115727053Y-108207304D01*
X116033200Y-108268200D01*
X125437600Y-108268200D01*
X125743747Y-108207304D01*
X126003285Y-108033885D01*
X127839937Y-106197234D01*
X127880263Y-106197269D01*
X128239812Y-106048707D01*
X128515140Y-105773859D01*
X128664330Y-105414570D01*
X128664669Y-105025537D01*
X128516107Y-104665988D01*
X128241259Y-104390660D01*
X127881970Y-104241470D01*
X127492937Y-104241131D01*
X127133388Y-104389693D01*
X126858060Y-104664541D01*
X126708870Y-105023830D01*
X126708834Y-105065596D01*
X125106230Y-106668200D01*
X122080000Y-106668200D01*
X122080000Y-105584550D01*
X121921250Y-105425800D01*
X119822000Y-105425800D01*
X119822000Y-105445800D01*
X119568000Y-105445800D01*
X119568000Y-105425800D01*
X117468750Y-105425800D01*
X117310000Y-105584550D01*
X117310000Y-106668200D01*
X116364570Y-106668200D01*
X113645970Y-103949600D01*
X115806200Y-103949600D01*
X116097805Y-103891596D01*
X116345015Y-103726415D01*
X116648939Y-103422491D01*
X117310000Y-103422491D01*
X117310000Y-105013050D01*
X117468750Y-105171800D01*
X119568000Y-105171800D01*
X119568000Y-103072550D01*
X119409250Y-102913800D01*
X117818690Y-102913800D01*
X117585301Y-103010473D01*
X117406673Y-103189102D01*
X117310000Y-103422491D01*
X116648939Y-103422491D01*
X117879230Y-102192200D01*
X121611100Y-102192200D01*
X121902705Y-102134196D01*
X121997560Y-102070816D01*
X121997560Y-103223463D01*
X121983327Y-103189102D01*
X121804699Y-103010473D01*
X121571310Y-102913800D01*
X119980750Y-102913800D01*
X119822000Y-103072550D01*
X119822000Y-105171800D01*
X121921250Y-105171800D01*
X122080000Y-105013050D01*
X122080000Y-104343422D01*
X122180910Y-104500241D01*
X122393110Y-104645231D01*
X122645000Y-104696240D01*
X126145000Y-104696240D01*
X126380317Y-104651962D01*
X126596441Y-104512890D01*
X126741431Y-104300690D01*
X126792440Y-104048800D01*
X126792440Y-101521270D01*
X132925084Y-107653915D01*
X133148791Y-107803391D01*
X133172295Y-107819096D01*
X133463900Y-107877100D01*
X149343300Y-107877100D01*
X149634905Y-107819096D01*
X149882115Y-107653915D01*
X150347643Y-107188387D01*
X150441663Y-107188469D01*
X150801212Y-107039907D01*
X151076540Y-106765059D01*
X151225730Y-106405770D01*
X151226053Y-106034590D01*
X168380460Y-106034590D01*
X168386320Y-106124000D01*
X168380460Y-106213410D01*
X168419645Y-106511051D01*
X168448448Y-106595900D01*
X168465928Y-106683781D01*
X168580814Y-106961139D01*
X168630592Y-107035636D01*
X168670223Y-107116001D01*
X168852979Y-107354174D01*
X168920347Y-107413253D01*
X168979426Y-107480621D01*
X169217599Y-107663377D01*
X169297962Y-107703007D01*
X169372461Y-107752786D01*
X169649818Y-107867672D01*
X169737699Y-107885152D01*
X169822548Y-107913955D01*
X170120190Y-107953140D01*
X170209597Y-107947279D01*
X170299010Y-107953140D01*
X170596651Y-107913955D01*
X170681500Y-107885152D01*
X170769381Y-107867672D01*
X171046739Y-107752786D01*
X171121236Y-107703008D01*
X171201601Y-107663377D01*
X171439774Y-107480621D01*
X171498853Y-107413253D01*
X171566221Y-107354174D01*
X171748977Y-107116001D01*
X171788607Y-107035638D01*
X171838386Y-106961139D01*
X171953272Y-106683782D01*
X171970752Y-106595901D01*
X171999555Y-106511052D01*
X172038740Y-106213410D01*
X172032879Y-106124000D01*
X172038740Y-106034590D01*
X171999555Y-105736948D01*
X171970752Y-105652099D01*
X171953272Y-105564218D01*
X171838386Y-105286861D01*
X171788607Y-105212362D01*
X171748977Y-105131999D01*
X171566221Y-104893826D01*
X171498853Y-104834747D01*
X171439774Y-104767379D01*
X171201601Y-104584623D01*
X171121236Y-104544992D01*
X171046739Y-104495214D01*
X170769381Y-104380328D01*
X170681500Y-104362848D01*
X170596651Y-104334045D01*
X170299010Y-104294860D01*
X170209597Y-104300721D01*
X170120190Y-104294860D01*
X169822548Y-104334045D01*
X169737699Y-104362848D01*
X169649818Y-104380328D01*
X169372461Y-104495214D01*
X169297962Y-104544993D01*
X169217599Y-104584623D01*
X168979426Y-104767379D01*
X168920347Y-104834747D01*
X168852979Y-104893826D01*
X168670223Y-105131999D01*
X168630592Y-105212364D01*
X168580814Y-105286861D01*
X168465928Y-105564219D01*
X168448448Y-105652100D01*
X168419645Y-105736949D01*
X168380460Y-106034590D01*
X151226053Y-106034590D01*
X151226069Y-106016737D01*
X151077507Y-105657188D01*
X150960127Y-105539603D01*
X156138660Y-100361070D01*
X165530635Y-100361070D01*
X165690418Y-100679839D01*
X166481187Y-100989823D01*
X167330387Y-100973597D01*
X168039582Y-100679839D01*
X168199365Y-100361070D01*
X166865000Y-99026705D01*
X165530635Y-100361070D01*
X156138660Y-100361070D01*
X158036443Y-98463287D01*
X164722277Y-98463287D01*
X164738503Y-99312487D01*
X165032261Y-100021682D01*
X165351030Y-100181465D01*
X166685395Y-98847100D01*
X165351030Y-97512735D01*
X165032261Y-97672518D01*
X164722277Y-98463287D01*
X158036443Y-98463287D01*
X158946799Y-97552932D01*
X158968298Y-97561859D01*
X159519285Y-97562340D01*
X160028515Y-97351931D01*
X160260062Y-97120787D01*
X160489436Y-97350561D01*
X160998298Y-97561859D01*
X161549285Y-97562340D01*
X162058515Y-97351931D01*
X162262183Y-97148617D01*
X163023088Y-97148617D01*
X163091077Y-97389560D01*
X163610171Y-97574301D01*
X164160448Y-97546330D01*
X164538923Y-97389560D01*
X164606912Y-97148617D01*
X163815000Y-96356705D01*
X163023088Y-97148617D01*
X162262183Y-97148617D01*
X162448461Y-96962664D01*
X162538377Y-96746121D01*
X162602540Y-96901023D01*
X162843483Y-96969012D01*
X163635395Y-96177100D01*
X163994605Y-96177100D01*
X164786517Y-96969012D01*
X165027460Y-96901023D01*
X165212201Y-96381929D01*
X165184230Y-95831652D01*
X165027460Y-95453177D01*
X164786517Y-95385188D01*
X163994605Y-96177100D01*
X163635395Y-96177100D01*
X162843483Y-95385188D01*
X162602540Y-95453177D01*
X162543268Y-95619721D01*
X162449831Y-95393585D01*
X162262157Y-95205583D01*
X163023088Y-95205583D01*
X163815000Y-95997495D01*
X164606912Y-95205583D01*
X164538923Y-94964640D01*
X164019829Y-94779899D01*
X163469552Y-94807870D01*
X163091077Y-94964640D01*
X163023088Y-95205583D01*
X162262157Y-95205583D01*
X162060564Y-95003639D01*
X161551702Y-94792341D01*
X161000715Y-94791860D01*
X160491485Y-95002269D01*
X160259938Y-95233413D01*
X160030564Y-95003639D01*
X159521702Y-94792341D01*
X158970715Y-94791860D01*
X158677300Y-94913096D01*
X158677300Y-94680400D01*
X162614100Y-94680400D01*
X162920247Y-94619504D01*
X163179785Y-94446085D01*
X163561591Y-94064279D01*
X164089285Y-94064740D01*
X164598515Y-93854331D01*
X164767485Y-93685655D01*
X168307161Y-97225331D01*
X168199364Y-97333128D01*
X168039582Y-97014361D01*
X167248813Y-96704377D01*
X166399613Y-96720603D01*
X165690418Y-97014361D01*
X165530635Y-97333130D01*
X166865000Y-98667495D01*
X166879143Y-98653353D01*
X167058748Y-98832958D01*
X167044605Y-98847100D01*
X168378970Y-100181465D01*
X168697739Y-100021682D01*
X169007723Y-99230913D01*
X168991497Y-98381713D01*
X168697739Y-97672518D01*
X168378972Y-97512736D01*
X168486769Y-97404939D01*
X169186015Y-98104186D01*
X169445553Y-98277604D01*
X169523560Y-98293120D01*
X169523560Y-98388500D01*
X169567838Y-98623817D01*
X169706910Y-98839941D01*
X169919110Y-98984931D01*
X170171000Y-99035940D01*
X171871000Y-99035940D01*
X172106317Y-98991662D01*
X172322441Y-98852590D01*
X172467431Y-98640390D01*
X172518440Y-98388500D01*
X172518440Y-96688500D01*
X172474162Y-96453183D01*
X172335090Y-96237059D01*
X172122890Y-96092069D01*
X172014893Y-96070199D01*
X172292645Y-95765424D01*
X172462476Y-95355390D01*
X172341155Y-95125500D01*
X171148000Y-95125500D01*
X171148000Y-95145500D01*
X170894000Y-95145500D01*
X170894000Y-95125500D01*
X169700845Y-95125500D01*
X169579524Y-95355390D01*
X169749355Y-95765424D01*
X170025501Y-96068437D01*
X169935683Y-96085338D01*
X169719559Y-96224410D01*
X169658437Y-96313866D01*
X165458385Y-92113815D01*
X165198847Y-91940396D01*
X165173730Y-91935400D01*
X164991107Y-91899074D01*
X164989831Y-91895985D01*
X164617965Y-91523470D01*
X166040635Y-91523470D01*
X166200418Y-91842239D01*
X166991187Y-92152223D01*
X167840387Y-92135997D01*
X168549582Y-91842239D01*
X168709365Y-91523470D01*
X167375000Y-90189105D01*
X166040635Y-91523470D01*
X164617965Y-91523470D01*
X164600564Y-91506039D01*
X164091702Y-91294741D01*
X163540715Y-91294260D01*
X163031485Y-91504669D01*
X162641539Y-91893936D01*
X162545024Y-92126370D01*
X162449831Y-91895985D01*
X162060564Y-91506039D01*
X161551702Y-91294741D01*
X161000715Y-91294260D01*
X160491485Y-91504669D01*
X160259938Y-91735813D01*
X160030564Y-91506039D01*
X159521702Y-91294741D01*
X158970715Y-91294260D01*
X158461485Y-91504669D01*
X158393653Y-91572382D01*
X157759185Y-90937915D01*
X157499647Y-90764496D01*
X157193500Y-90703600D01*
X155676089Y-90703600D01*
X155797723Y-90393313D01*
X155781497Y-89544113D01*
X155507821Y-88883400D01*
X165523256Y-88883400D01*
X165232277Y-89625687D01*
X165248503Y-90474887D01*
X165542261Y-91184082D01*
X165861030Y-91343865D01*
X167195395Y-90009500D01*
X167181253Y-89995358D01*
X167360858Y-89815753D01*
X167375000Y-89829895D01*
X167389143Y-89815753D01*
X167568748Y-89995358D01*
X167554605Y-90009500D01*
X168888970Y-91343865D01*
X169207739Y-91184082D01*
X169442456Y-90585319D01*
X169498095Y-90622496D01*
X169743202Y-90671251D01*
X169941853Y-90968554D01*
X170271026Y-91188500D01*
X169941853Y-91408446D01*
X169619946Y-91890215D01*
X169506907Y-92458500D01*
X169619946Y-93026785D01*
X169941853Y-93508554D01*
X170282553Y-93736202D01*
X170139642Y-93803317D01*
X169749355Y-94231576D01*
X169579524Y-94641610D01*
X169700845Y-94871500D01*
X170894000Y-94871500D01*
X170894000Y-94851500D01*
X171148000Y-94851500D01*
X171148000Y-94871500D01*
X172341155Y-94871500D01*
X172462476Y-94641610D01*
X172292645Y-94231576D01*
X171902358Y-93803317D01*
X171759447Y-93736202D01*
X172100147Y-93508554D01*
X172422054Y-93026785D01*
X172535093Y-92458500D01*
X172422054Y-91890215D01*
X172100147Y-91408446D01*
X171770974Y-91188500D01*
X172100147Y-90968554D01*
X172422054Y-90486785D01*
X172535093Y-89918500D01*
X172422054Y-89350215D01*
X172100147Y-88868446D01*
X171618378Y-88546539D01*
X171050093Y-88433500D01*
X170991907Y-88433500D01*
X170423622Y-88546539D01*
X170005590Y-88825859D01*
X168762315Y-87582585D01*
X168722345Y-87555878D01*
X168515105Y-87417404D01*
X168223500Y-87359400D01*
X139197230Y-87359400D01*
X138964815Y-87126985D01*
X138756796Y-86987991D01*
X138717605Y-86961804D01*
X138426000Y-86903800D01*
X115831430Y-86903800D01*
X120000640Y-82734590D01*
X168380460Y-82734590D01*
X168386320Y-82824000D01*
X168380460Y-82913410D01*
X168419645Y-83211051D01*
X168448448Y-83295900D01*
X168465928Y-83383781D01*
X168580814Y-83661139D01*
X168630592Y-83735636D01*
X168670223Y-83816001D01*
X168852979Y-84054174D01*
X168920347Y-84113253D01*
X168979426Y-84180621D01*
X169217599Y-84363377D01*
X169297962Y-84403007D01*
X169372461Y-84452786D01*
X169649818Y-84567672D01*
X169737699Y-84585152D01*
X169822548Y-84613955D01*
X170120190Y-84653140D01*
X170209597Y-84647279D01*
X170299010Y-84653140D01*
X170596651Y-84613955D01*
X170681500Y-84585152D01*
X170769381Y-84567672D01*
X171046739Y-84452786D01*
X171121236Y-84403008D01*
X171201601Y-84363377D01*
X171439774Y-84180621D01*
X171498853Y-84113253D01*
X171566221Y-84054174D01*
X171748977Y-83816001D01*
X171788607Y-83735638D01*
X171838386Y-83661139D01*
X171953272Y-83383782D01*
X171970752Y-83295901D01*
X171999555Y-83211052D01*
X172038740Y-82913410D01*
X172032879Y-82824000D01*
X172038740Y-82734590D01*
X171999555Y-82436948D01*
X171970752Y-82352099D01*
X171953272Y-82264218D01*
X171838386Y-81986861D01*
X171788607Y-81912362D01*
X171748977Y-81831999D01*
X171566221Y-81593826D01*
X171498853Y-81534747D01*
X171439774Y-81467379D01*
X171201601Y-81284623D01*
X171121236Y-81244992D01*
X171046739Y-81195214D01*
X170769381Y-81080328D01*
X170681500Y-81062848D01*
X170596651Y-81034045D01*
X170299010Y-80994860D01*
X170209597Y-81000721D01*
X170120190Y-80994860D01*
X169822548Y-81034045D01*
X169737699Y-81062848D01*
X169649818Y-81080328D01*
X169372461Y-81195214D01*
X169297962Y-81244993D01*
X169217599Y-81284623D01*
X168979426Y-81467379D01*
X168920347Y-81534747D01*
X168852979Y-81593826D01*
X168670223Y-81831999D01*
X168630592Y-81912364D01*
X168580814Y-81986861D01*
X168465928Y-82264219D01*
X168448448Y-82352100D01*
X168419645Y-82436949D01*
X168380460Y-82734590D01*
X120000640Y-82734590D01*
X120876131Y-81859100D01*
X122532217Y-81859100D01*
X122598641Y-81925640D01*
X122957930Y-82074830D01*
X123346963Y-82075169D01*
X123706512Y-81926607D01*
X123981840Y-81651759D01*
X124131030Y-81292470D01*
X124131369Y-80903437D01*
X123982807Y-80543888D01*
X123707959Y-80268560D01*
X123444110Y-80159000D01*
X171544651Y-80159000D01*
X171674156Y-80164655D01*
G36*
X156898748Y-92665358D02*
X156884605Y-92679500D01*
X156898748Y-92693643D01*
X156719143Y-92873248D01*
X156705000Y-92859105D01*
X155913088Y-93651017D01*
X155981077Y-93891960D01*
X156500171Y-94076701D01*
X157050448Y-94048730D01*
X157077300Y-94037608D01*
X157077300Y-94673429D01*
X156958409Y-94792321D01*
X156430715Y-94791860D01*
X155921485Y-95002269D01*
X155531539Y-95391536D01*
X155320241Y-95900398D01*
X155319760Y-96451385D01*
X155530169Y-96960615D01*
X155919436Y-97350561D01*
X156428298Y-97561859D01*
X156782301Y-97562168D01*
X155284458Y-99060012D01*
X155271497Y-98381713D01*
X154977739Y-97672518D01*
X154658970Y-97512735D01*
X153324605Y-98847100D01*
X153338748Y-98861243D01*
X153159143Y-99040848D01*
X153145000Y-99026705D01*
X151810635Y-100361070D01*
X151970418Y-100679839D01*
X152761187Y-100989823D01*
X153366207Y-100978263D01*
X150048870Y-104295600D01*
X141720132Y-104295600D01*
X141720269Y-104138537D01*
X141571707Y-103778988D01*
X141296859Y-103503660D01*
X140937570Y-103354470D01*
X140865500Y-103354407D01*
X140918140Y-103301859D01*
X141067330Y-102942570D01*
X141067413Y-102847017D01*
X145451143Y-98463287D01*
X151002277Y-98463287D01*
X151018503Y-99312487D01*
X151312261Y-100021682D01*
X151631030Y-100181465D01*
X152965395Y-98847100D01*
X151631030Y-97512735D01*
X151312261Y-97672518D01*
X151002277Y-98463287D01*
X145451143Y-98463287D01*
X145901444Y-98012987D01*
X145995463Y-98013069D01*
X146355012Y-97864507D01*
X146630340Y-97589659D01*
X146736860Y-97333130D01*
X151810635Y-97333130D01*
X153145000Y-98667495D01*
X154479365Y-97333130D01*
X154319582Y-97014361D01*
X153528813Y-96704377D01*
X152679613Y-96720603D01*
X151970418Y-97014361D01*
X151810635Y-97333130D01*
X146736860Y-97333130D01*
X146779530Y-97230370D01*
X146779869Y-96841337D01*
X146631307Y-96481788D01*
X146356459Y-96206460D01*
X145997170Y-96057270D01*
X145608137Y-96056931D01*
X145248588Y-96205493D01*
X144973260Y-96480341D01*
X144824070Y-96839630D01*
X144823987Y-96935182D01*
X139989957Y-101769213D01*
X139895937Y-101769131D01*
X139536388Y-101917693D01*
X139396754Y-102057084D01*
X138992170Y-101652500D01*
X140499286Y-100145385D01*
X140672704Y-99885847D01*
X140693718Y-99780200D01*
X140733600Y-99579700D01*
X140733600Y-98914849D01*
X140762140Y-98886359D01*
X140911330Y-98527070D01*
X140911669Y-98138037D01*
X140763107Y-97778488D01*
X140488259Y-97503160D01*
X140128970Y-97353970D01*
X139739937Y-97353631D01*
X139380388Y-97502193D01*
X139105060Y-97777041D01*
X138955870Y-98136330D01*
X138955531Y-98525363D01*
X139104093Y-98884912D01*
X139133600Y-98914471D01*
X139133600Y-99248329D01*
X137529430Y-100852500D01*
X136840700Y-100852500D01*
X136534553Y-100913396D01*
X136275014Y-101086815D01*
X134813517Y-102548313D01*
X134646088Y-102617493D01*
X134534458Y-102728928D01*
X132598356Y-100792826D01*
X132658630Y-100647670D01*
X132658969Y-100258637D01*
X132510407Y-99899088D01*
X132235559Y-99623760D01*
X131901870Y-99485200D01*
X135453300Y-99485200D01*
X135744905Y-99427196D01*
X135992115Y-99262015D01*
X136345000Y-98909130D01*
X136345000Y-99236917D01*
X136278460Y-99303341D01*
X136129270Y-99662630D01*
X136128931Y-100051663D01*
X136277493Y-100411212D01*
X136552341Y-100686540D01*
X136911630Y-100835730D01*
X137300663Y-100836069D01*
X137660212Y-100687507D01*
X137935540Y-100412659D01*
X138084730Y-100053370D01*
X138085069Y-99664337D01*
X137936507Y-99304788D01*
X137869000Y-99237163D01*
X137869000Y-98778030D01*
X142535798Y-94111232D01*
X142557298Y-94120159D01*
X143108285Y-94120640D01*
X143617515Y-93910231D01*
X144007461Y-93520964D01*
X144103976Y-93288530D01*
X144199169Y-93518915D01*
X144588436Y-93908861D01*
X145097298Y-94120159D01*
X145648285Y-94120640D01*
X146157515Y-93910231D01*
X146533000Y-93535400D01*
X154349100Y-93535400D01*
X154655247Y-93474504D01*
X154914785Y-93301085D01*
X155328763Y-92887107D01*
X155335770Y-93024948D01*
X155492540Y-93403423D01*
X155733483Y-93471412D01*
X156525395Y-92679500D01*
X156511253Y-92665358D01*
X156690858Y-92485753D01*
X156705000Y-92499895D01*
X156719143Y-92485753D01*
X156898748Y-92665358D01*
X156898748Y-92665358D01*
G37*
X156898748Y-92665358D02*
X156884605Y-92679500D01*
X156898748Y-92693643D01*
X156719143Y-92873248D01*
X156705000Y-92859105D01*
X155913088Y-93651017D01*
X155981077Y-93891960D01*
X156500171Y-94076701D01*
X157050448Y-94048730D01*
X157077300Y-94037608D01*
X157077300Y-94673429D01*
X156958409Y-94792321D01*
X156430715Y-94791860D01*
X155921485Y-95002269D01*
X155531539Y-95391536D01*
X155320241Y-95900398D01*
X155319760Y-96451385D01*
X155530169Y-96960615D01*
X155919436Y-97350561D01*
X156428298Y-97561859D01*
X156782301Y-97562168D01*
X155284458Y-99060012D01*
X155271497Y-98381713D01*
X154977739Y-97672518D01*
X154658970Y-97512735D01*
X153324605Y-98847100D01*
X153338748Y-98861243D01*
X153159143Y-99040848D01*
X153145000Y-99026705D01*
X151810635Y-100361070D01*
X151970418Y-100679839D01*
X152761187Y-100989823D01*
X153366207Y-100978263D01*
X150048870Y-104295600D01*
X141720132Y-104295600D01*
X141720269Y-104138537D01*
X141571707Y-103778988D01*
X141296859Y-103503660D01*
X140937570Y-103354470D01*
X140865500Y-103354407D01*
X140918140Y-103301859D01*
X141067330Y-102942570D01*
X141067413Y-102847017D01*
X145451143Y-98463287D01*
X151002277Y-98463287D01*
X151018503Y-99312487D01*
X151312261Y-100021682D01*
X151631030Y-100181465D01*
X152965395Y-98847100D01*
X151631030Y-97512735D01*
X151312261Y-97672518D01*
X151002277Y-98463287D01*
X145451143Y-98463287D01*
X145901444Y-98012987D01*
X145995463Y-98013069D01*
X146355012Y-97864507D01*
X146630340Y-97589659D01*
X146736860Y-97333130D01*
X151810635Y-97333130D01*
X153145000Y-98667495D01*
X154479365Y-97333130D01*
X154319582Y-97014361D01*
X153528813Y-96704377D01*
X152679613Y-96720603D01*
X151970418Y-97014361D01*
X151810635Y-97333130D01*
X146736860Y-97333130D01*
X146779530Y-97230370D01*
X146779869Y-96841337D01*
X146631307Y-96481788D01*
X146356459Y-96206460D01*
X145997170Y-96057270D01*
X145608137Y-96056931D01*
X145248588Y-96205493D01*
X144973260Y-96480341D01*
X144824070Y-96839630D01*
X144823987Y-96935182D01*
X139989957Y-101769213D01*
X139895937Y-101769131D01*
X139536388Y-101917693D01*
X139396754Y-102057084D01*
X138992170Y-101652500D01*
X140499286Y-100145385D01*
X140672704Y-99885847D01*
X140693718Y-99780200D01*
X140733600Y-99579700D01*
X140733600Y-98914849D01*
X140762140Y-98886359D01*
X140911330Y-98527070D01*
X140911669Y-98138037D01*
X140763107Y-97778488D01*
X140488259Y-97503160D01*
X140128970Y-97353970D01*
X139739937Y-97353631D01*
X139380388Y-97502193D01*
X139105060Y-97777041D01*
X138955870Y-98136330D01*
X138955531Y-98525363D01*
X139104093Y-98884912D01*
X139133600Y-98914471D01*
X139133600Y-99248329D01*
X137529430Y-100852500D01*
X136840700Y-100852500D01*
X136534553Y-100913396D01*
X136275014Y-101086815D01*
X134813517Y-102548313D01*
X134646088Y-102617493D01*
X134534458Y-102728928D01*
X132598356Y-100792826D01*
X132658630Y-100647670D01*
X132658969Y-100258637D01*
X132510407Y-99899088D01*
X132235559Y-99623760D01*
X131901870Y-99485200D01*
X135453300Y-99485200D01*
X135744905Y-99427196D01*
X135992115Y-99262015D01*
X136345000Y-98909130D01*
X136345000Y-99236917D01*
X136278460Y-99303341D01*
X136129270Y-99662630D01*
X136128931Y-100051663D01*
X136277493Y-100411212D01*
X136552341Y-100686540D01*
X136911630Y-100835730D01*
X137300663Y-100836069D01*
X137660212Y-100687507D01*
X137935540Y-100412659D01*
X138084730Y-100053370D01*
X138085069Y-99664337D01*
X137936507Y-99304788D01*
X137869000Y-99237163D01*
X137869000Y-98778030D01*
X142535798Y-94111232D01*
X142557298Y-94120159D01*
X143108285Y-94120640D01*
X143617515Y-93910231D01*
X144007461Y-93520964D01*
X144103976Y-93288530D01*
X144199169Y-93518915D01*
X144588436Y-93908861D01*
X145097298Y-94120159D01*
X145648285Y-94120640D01*
X146157515Y-93910231D01*
X146533000Y-93535400D01*
X154349100Y-93535400D01*
X154655247Y-93474504D01*
X154914785Y-93301085D01*
X155328763Y-92887107D01*
X155335770Y-93024948D01*
X155492540Y-93403423D01*
X155733483Y-93471412D01*
X156525395Y-92679500D01*
X156511253Y-92665358D01*
X156690858Y-92485753D01*
X156705000Y-92499895D01*
X156719143Y-92485753D01*
X156898748Y-92665358D01*
G36*
X128519277Y-89681587D02*
X128535503Y-90530787D01*
X128829261Y-91239982D01*
X129148030Y-91399765D01*
X130482395Y-90065400D01*
X130468253Y-90051258D01*
X130647858Y-89871653D01*
X130662000Y-89885795D01*
X130676143Y-89871653D01*
X130855748Y-90051258D01*
X130841605Y-90065400D01*
X130855748Y-90079543D01*
X130676143Y-90259148D01*
X130662000Y-90245005D01*
X129327635Y-91579370D01*
X129487418Y-91898139D01*
X130278187Y-92208123D01*
X131127387Y-92191897D01*
X131836582Y-91898139D01*
X131996364Y-91579372D01*
X132109686Y-91692694D01*
X132166800Y-91635580D01*
X132166800Y-92806217D01*
X132100260Y-92872641D01*
X131951070Y-93231930D01*
X131950912Y-93413600D01*
X128911571Y-93413600D01*
X128486779Y-92988809D01*
X128487240Y-92461115D01*
X128276831Y-91951885D01*
X127887564Y-91561939D01*
X127378702Y-91350641D01*
X126848148Y-91350178D01*
X126442985Y-90945015D01*
X126183447Y-90771596D01*
X125877300Y-90710700D01*
X122043200Y-90710700D01*
X121737053Y-90771596D01*
X121477515Y-90945014D01*
X120756344Y-91666186D01*
X120715923Y-91522940D01*
X120196829Y-91338199D01*
X119646552Y-91366170D01*
X119268077Y-91522940D01*
X119200088Y-91763883D01*
X119992000Y-92555795D01*
X120006143Y-92541653D01*
X120185748Y-92721258D01*
X120171605Y-92735400D01*
X120185748Y-92749543D01*
X120006143Y-92929148D01*
X119992000Y-92915005D01*
X119200088Y-93706917D01*
X119268077Y-93947860D01*
X119787171Y-94132601D01*
X120337448Y-94104630D01*
X120462000Y-94053039D01*
X120462000Y-95231129D01*
X119129315Y-96563815D01*
X118955896Y-96823353D01*
X118940380Y-96901360D01*
X117945000Y-96901360D01*
X117709683Y-96945638D01*
X117493559Y-97084710D01*
X117348569Y-97296910D01*
X117297560Y-97548800D01*
X117297560Y-98498800D01*
X116941500Y-98498800D01*
X116635353Y-98559696D01*
X116375814Y-98733115D01*
X114154954Y-100953976D01*
X114111495Y-100888935D01*
X114800215Y-100200216D01*
X114965396Y-99953005D01*
X114976121Y-99899088D01*
X115023400Y-99661400D01*
X115023400Y-92530571D01*
X118594799Y-92530571D01*
X118622770Y-93080848D01*
X118779540Y-93459323D01*
X119020483Y-93527312D01*
X119812395Y-92735400D01*
X119020483Y-91943488D01*
X118779540Y-92011477D01*
X118594799Y-92530571D01*
X115023400Y-92530571D01*
X115023400Y-91579370D01*
X115607635Y-91579370D01*
X115767418Y-91898139D01*
X116558187Y-92208123D01*
X117407387Y-92191897D01*
X118116582Y-91898139D01*
X118276365Y-91579370D01*
X116942000Y-90245005D01*
X115607635Y-91579370D01*
X115023400Y-91579370D01*
X115023400Y-91136300D01*
X114983752Y-90936976D01*
X115109261Y-91239982D01*
X115428030Y-91399765D01*
X116762395Y-90065400D01*
X116748253Y-90051258D01*
X116927858Y-89871653D01*
X116942000Y-89885795D01*
X116956143Y-89871653D01*
X117135748Y-90051258D01*
X117121605Y-90065400D01*
X118455970Y-91399765D01*
X118774739Y-91239982D01*
X119084723Y-90449213D01*
X119068497Y-89600013D01*
X118793495Y-88936100D01*
X128811510Y-88936100D01*
X128519277Y-89681587D01*
X128519277Y-89681587D01*
G37*
X128519277Y-89681587D02*
X128535503Y-90530787D01*
X128829261Y-91239982D01*
X129148030Y-91399765D01*
X130482395Y-90065400D01*
X130468253Y-90051258D01*
X130647858Y-89871653D01*
X130662000Y-89885795D01*
X130676143Y-89871653D01*
X130855748Y-90051258D01*
X130841605Y-90065400D01*
X130855748Y-90079543D01*
X130676143Y-90259148D01*
X130662000Y-90245005D01*
X129327635Y-91579370D01*
X129487418Y-91898139D01*
X130278187Y-92208123D01*
X131127387Y-92191897D01*
X131836582Y-91898139D01*
X131996364Y-91579372D01*
X132109686Y-91692694D01*
X132166800Y-91635580D01*
X132166800Y-92806217D01*
X132100260Y-92872641D01*
X131951070Y-93231930D01*
X131950912Y-93413600D01*
X128911571Y-93413600D01*
X128486779Y-92988809D01*
X128487240Y-92461115D01*
X128276831Y-91951885D01*
X127887564Y-91561939D01*
X127378702Y-91350641D01*
X126848148Y-91350178D01*
X126442985Y-90945015D01*
X126183447Y-90771596D01*
X125877300Y-90710700D01*
X122043200Y-90710700D01*
X121737053Y-90771596D01*
X121477515Y-90945014D01*
X120756344Y-91666186D01*
X120715923Y-91522940D01*
X120196829Y-91338199D01*
X119646552Y-91366170D01*
X119268077Y-91522940D01*
X119200088Y-91763883D01*
X119992000Y-92555795D01*
X120006143Y-92541653D01*
X120185748Y-92721258D01*
X120171605Y-92735400D01*
X120185748Y-92749543D01*
X120006143Y-92929148D01*
X119992000Y-92915005D01*
X119200088Y-93706917D01*
X119268077Y-93947860D01*
X119787171Y-94132601D01*
X120337448Y-94104630D01*
X120462000Y-94053039D01*
X120462000Y-95231129D01*
X119129315Y-96563815D01*
X118955896Y-96823353D01*
X118940380Y-96901360D01*
X117945000Y-96901360D01*
X117709683Y-96945638D01*
X117493559Y-97084710D01*
X117348569Y-97296910D01*
X117297560Y-97548800D01*
X117297560Y-98498800D01*
X116941500Y-98498800D01*
X116635353Y-98559696D01*
X116375814Y-98733115D01*
X114154954Y-100953976D01*
X114111495Y-100888935D01*
X114800215Y-100200216D01*
X114965396Y-99953005D01*
X114976121Y-99899088D01*
X115023400Y-99661400D01*
X115023400Y-92530571D01*
X118594799Y-92530571D01*
X118622770Y-93080848D01*
X118779540Y-93459323D01*
X119020483Y-93527312D01*
X119812395Y-92735400D01*
X119020483Y-91943488D01*
X118779540Y-92011477D01*
X118594799Y-92530571D01*
X115023400Y-92530571D01*
X115023400Y-91579370D01*
X115607635Y-91579370D01*
X115767418Y-91898139D01*
X116558187Y-92208123D01*
X117407387Y-92191897D01*
X118116582Y-91898139D01*
X118276365Y-91579370D01*
X116942000Y-90245005D01*
X115607635Y-91579370D01*
X115023400Y-91579370D01*
X115023400Y-91136300D01*
X114983752Y-90936976D01*
X115109261Y-91239982D01*
X115428030Y-91399765D01*
X116762395Y-90065400D01*
X116748253Y-90051258D01*
X116927858Y-89871653D01*
X116942000Y-89885795D01*
X116956143Y-89871653D01*
X117135748Y-90051258D01*
X117121605Y-90065400D01*
X118455970Y-91399765D01*
X118774739Y-91239982D01*
X119084723Y-90449213D01*
X119068497Y-89600013D01*
X118793495Y-88936100D01*
X128811510Y-88936100D01*
X128519277Y-89681587D01*
G36*
X122600088Y-80267593D02*
X122532463Y-80335100D01*
X120560500Y-80335100D01*
X120268895Y-80393104D01*
X120196160Y-80441704D01*
X120021685Y-80558284D01*
X114092470Y-86487500D01*
X113947753Y-86138122D01*
X113709398Y-86073207D01*
X112935605Y-86847000D01*
X112949748Y-86861143D01*
X112770143Y-87040748D01*
X112756000Y-87026605D01*
X111982207Y-87800398D01*
X112047122Y-88038753D01*
X112557146Y-88219312D01*
X112954000Y-88198479D01*
X112954000Y-90474733D01*
X112414556Y-90503051D01*
X112047122Y-90655247D01*
X111982207Y-90893602D01*
X112756000Y-91667395D01*
X112770143Y-91653253D01*
X112949748Y-91832858D01*
X112935605Y-91847000D01*
X112949748Y-91861143D01*
X112770143Y-92040748D01*
X112756000Y-92026605D01*
X111982207Y-92800398D01*
X112047122Y-93038753D01*
X112557146Y-93219312D01*
X113097444Y-93190949D01*
X113464878Y-93038753D01*
X113499400Y-92911995D01*
X113499400Y-97756524D01*
X113386890Y-97709924D01*
X113157000Y-97831245D01*
X113157000Y-99024400D01*
X113177000Y-99024400D01*
X113177000Y-99278400D01*
X113157000Y-99278400D01*
X113157000Y-99298400D01*
X112903000Y-99298400D01*
X112903000Y-99278400D01*
X110617000Y-99278400D01*
X110617000Y-99298400D01*
X110363000Y-99298400D01*
X110363000Y-99278400D01*
X110343000Y-99278400D01*
X110343000Y-99024400D01*
X110363000Y-99024400D01*
X110363000Y-97825150D01*
X110617000Y-97825150D01*
X110617000Y-99024400D01*
X112903000Y-99024400D01*
X112903000Y-97831245D01*
X112673110Y-97709924D01*
X112263076Y-97879755D01*
X111965136Y-98151278D01*
X111878327Y-97941702D01*
X111699699Y-97763073D01*
X111466310Y-97666400D01*
X110775750Y-97666400D01*
X110617000Y-97825150D01*
X110363000Y-97825150D01*
X110204250Y-97666400D01*
X109513690Y-97666400D01*
X109280301Y-97763073D01*
X109276128Y-97767246D01*
X109275868Y-93988621D01*
X109579000Y-94082000D01*
X109929000Y-94082000D01*
X109929000Y-92974000D01*
X110183000Y-92974000D01*
X110183000Y-94082000D01*
X110533000Y-94082000D01*
X110995947Y-93939390D01*
X111369080Y-93630474D01*
X111595592Y-93202281D01*
X111599462Y-93164609D01*
X111474731Y-92974000D01*
X110183000Y-92974000D01*
X109929000Y-92974000D01*
X109909000Y-92974000D01*
X109909000Y-92720000D01*
X109929000Y-92720000D01*
X109929000Y-91612000D01*
X110183000Y-91612000D01*
X110183000Y-92720000D01*
X111474731Y-92720000D01*
X111579424Y-92560012D01*
X111802602Y-92620793D01*
X112576395Y-91847000D01*
X111802602Y-91073207D01*
X111564247Y-91138122D01*
X111383688Y-91648146D01*
X111409505Y-92139945D01*
X111369080Y-92063526D01*
X110995947Y-91754610D01*
X110533000Y-91612000D01*
X110183000Y-91612000D01*
X109929000Y-91612000D01*
X109579000Y-91612000D01*
X109275711Y-91705428D01*
X109275388Y-87002522D01*
X109674948Y-87082000D01*
X110437052Y-87082000D01*
X110909666Y-86987991D01*
X111310329Y-86720277D01*
X111412044Y-86568050D01*
X111383688Y-86648146D01*
X111412051Y-87188444D01*
X111564247Y-87555878D01*
X111802602Y-87620793D01*
X112576395Y-86847000D01*
X111802602Y-86073207D01*
X111617002Y-86123754D01*
X111662782Y-85893602D01*
X111982207Y-85893602D01*
X112756000Y-86667395D01*
X113529793Y-85893602D01*
X113464878Y-85655247D01*
X112954854Y-85474688D01*
X112414556Y-85503051D01*
X112047122Y-85655247D01*
X111982207Y-85893602D01*
X111662782Y-85893602D01*
X111672052Y-85847000D01*
X111578043Y-85374386D01*
X111310329Y-84973723D01*
X110909666Y-84706009D01*
X110437052Y-84612000D01*
X109674948Y-84612000D01*
X109275229Y-84691509D01*
X109275095Y-82734590D01*
X110080460Y-82734590D01*
X110086320Y-82824000D01*
X110080460Y-82913410D01*
X110119645Y-83211051D01*
X110148448Y-83295900D01*
X110165928Y-83383781D01*
X110280814Y-83661139D01*
X110330592Y-83735636D01*
X110370223Y-83816001D01*
X110552979Y-84054174D01*
X110620347Y-84113253D01*
X110679426Y-84180621D01*
X110917599Y-84363377D01*
X110997962Y-84403007D01*
X111072461Y-84452786D01*
X111349818Y-84567672D01*
X111437699Y-84585152D01*
X111522548Y-84613955D01*
X111820190Y-84653140D01*
X111909597Y-84647279D01*
X111999010Y-84653140D01*
X112296651Y-84613955D01*
X112381500Y-84585152D01*
X112469381Y-84567672D01*
X112746739Y-84452786D01*
X112821236Y-84403008D01*
X112901601Y-84363377D01*
X113139774Y-84180621D01*
X113198853Y-84113253D01*
X113266221Y-84054174D01*
X113448977Y-83816001D01*
X113488607Y-83735638D01*
X113538386Y-83661139D01*
X113653272Y-83383782D01*
X113670752Y-83295901D01*
X113699555Y-83211052D01*
X113738740Y-82913410D01*
X113732879Y-82824000D01*
X113738740Y-82734590D01*
X113699555Y-82436948D01*
X113670752Y-82352099D01*
X113653272Y-82264218D01*
X113538386Y-81986861D01*
X113488607Y-81912362D01*
X113448977Y-81831999D01*
X113266221Y-81593826D01*
X113198853Y-81534747D01*
X113139774Y-81467379D01*
X112901601Y-81284623D01*
X112821236Y-81244992D01*
X112746739Y-81195214D01*
X112469381Y-81080328D01*
X112381500Y-81062848D01*
X112296651Y-81034045D01*
X111999010Y-80994860D01*
X111909597Y-81000721D01*
X111820190Y-80994860D01*
X111522548Y-81034045D01*
X111437699Y-81062848D01*
X111349818Y-81080328D01*
X111072461Y-81195214D01*
X110997962Y-81244993D01*
X110917599Y-81284623D01*
X110679426Y-81467379D01*
X110620347Y-81534747D01*
X110552979Y-81593826D01*
X110370223Y-81831999D01*
X110330592Y-81912364D01*
X110280814Y-81986861D01*
X110165928Y-82264219D01*
X110148448Y-82352100D01*
X110119645Y-82436949D01*
X110080460Y-82734590D01*
X109275095Y-82734590D01*
X109274989Y-81201702D01*
X109290038Y-81133819D01*
X109324518Y-81024466D01*
X109368397Y-80918531D01*
X109421341Y-80816829D01*
X109482950Y-80720121D01*
X109552754Y-80629151D01*
X109630216Y-80544616D01*
X109714751Y-80467154D01*
X109805721Y-80397350D01*
X109902429Y-80335741D01*
X110004131Y-80282797D01*
X110110072Y-80238916D01*
X110219417Y-80204439D01*
X110331371Y-80179619D01*
X110445044Y-80164655D01*
X110574549Y-80159000D01*
X122862904Y-80159000D01*
X122600088Y-80267593D01*
X122600088Y-80267593D01*
G37*
X122600088Y-80267593D02*
X122532463Y-80335100D01*
X120560500Y-80335100D01*
X120268895Y-80393104D01*
X120196160Y-80441704D01*
X120021685Y-80558284D01*
X114092470Y-86487500D01*
X113947753Y-86138122D01*
X113709398Y-86073207D01*
X112935605Y-86847000D01*
X112949748Y-86861143D01*
X112770143Y-87040748D01*
X112756000Y-87026605D01*
X111982207Y-87800398D01*
X112047122Y-88038753D01*
X112557146Y-88219312D01*
X112954000Y-88198479D01*
X112954000Y-90474733D01*
X112414556Y-90503051D01*
X112047122Y-90655247D01*
X111982207Y-90893602D01*
X112756000Y-91667395D01*
X112770143Y-91653253D01*
X112949748Y-91832858D01*
X112935605Y-91847000D01*
X112949748Y-91861143D01*
X112770143Y-92040748D01*
X112756000Y-92026605D01*
X111982207Y-92800398D01*
X112047122Y-93038753D01*
X112557146Y-93219312D01*
X113097444Y-93190949D01*
X113464878Y-93038753D01*
X113499400Y-92911995D01*
X113499400Y-97756524D01*
X113386890Y-97709924D01*
X113157000Y-97831245D01*
X113157000Y-99024400D01*
X113177000Y-99024400D01*
X113177000Y-99278400D01*
X113157000Y-99278400D01*
X113157000Y-99298400D01*
X112903000Y-99298400D01*
X112903000Y-99278400D01*
X110617000Y-99278400D01*
X110617000Y-99298400D01*
X110363000Y-99298400D01*
X110363000Y-99278400D01*
X110343000Y-99278400D01*
X110343000Y-99024400D01*
X110363000Y-99024400D01*
X110363000Y-97825150D01*
X110617000Y-97825150D01*
X110617000Y-99024400D01*
X112903000Y-99024400D01*
X112903000Y-97831245D01*
X112673110Y-97709924D01*
X112263076Y-97879755D01*
X111965136Y-98151278D01*
X111878327Y-97941702D01*
X111699699Y-97763073D01*
X111466310Y-97666400D01*
X110775750Y-97666400D01*
X110617000Y-97825150D01*
X110363000Y-97825150D01*
X110204250Y-97666400D01*
X109513690Y-97666400D01*
X109280301Y-97763073D01*
X109276128Y-97767246D01*
X109275868Y-93988621D01*
X109579000Y-94082000D01*
X109929000Y-94082000D01*
X109929000Y-92974000D01*
X110183000Y-92974000D01*
X110183000Y-94082000D01*
X110533000Y-94082000D01*
X110995947Y-93939390D01*
X111369080Y-93630474D01*
X111595592Y-93202281D01*
X111599462Y-93164609D01*
X111474731Y-92974000D01*
X110183000Y-92974000D01*
X109929000Y-92974000D01*
X109909000Y-92974000D01*
X109909000Y-92720000D01*
X109929000Y-92720000D01*
X109929000Y-91612000D01*
X110183000Y-91612000D01*
X110183000Y-92720000D01*
X111474731Y-92720000D01*
X111579424Y-92560012D01*
X111802602Y-92620793D01*
X112576395Y-91847000D01*
X111802602Y-91073207D01*
X111564247Y-91138122D01*
X111383688Y-91648146D01*
X111409505Y-92139945D01*
X111369080Y-92063526D01*
X110995947Y-91754610D01*
X110533000Y-91612000D01*
X110183000Y-91612000D01*
X109929000Y-91612000D01*
X109579000Y-91612000D01*
X109275711Y-91705428D01*
X109275388Y-87002522D01*
X109674948Y-87082000D01*
X110437052Y-87082000D01*
X110909666Y-86987991D01*
X111310329Y-86720277D01*
X111412044Y-86568050D01*
X111383688Y-86648146D01*
X111412051Y-87188444D01*
X111564247Y-87555878D01*
X111802602Y-87620793D01*
X112576395Y-86847000D01*
X111802602Y-86073207D01*
X111617002Y-86123754D01*
X111662782Y-85893602D01*
X111982207Y-85893602D01*
X112756000Y-86667395D01*
X113529793Y-85893602D01*
X113464878Y-85655247D01*
X112954854Y-85474688D01*
X112414556Y-85503051D01*
X112047122Y-85655247D01*
X111982207Y-85893602D01*
X111662782Y-85893602D01*
X111672052Y-85847000D01*
X111578043Y-85374386D01*
X111310329Y-84973723D01*
X110909666Y-84706009D01*
X110437052Y-84612000D01*
X109674948Y-84612000D01*
X109275229Y-84691509D01*
X109275095Y-82734590D01*
X110080460Y-82734590D01*
X110086320Y-82824000D01*
X110080460Y-82913410D01*
X110119645Y-83211051D01*
X110148448Y-83295900D01*
X110165928Y-83383781D01*
X110280814Y-83661139D01*
X110330592Y-83735636D01*
X110370223Y-83816001D01*
X110552979Y-84054174D01*
X110620347Y-84113253D01*
X110679426Y-84180621D01*
X110917599Y-84363377D01*
X110997962Y-84403007D01*
X111072461Y-84452786D01*
X111349818Y-84567672D01*
X111437699Y-84585152D01*
X111522548Y-84613955D01*
X111820190Y-84653140D01*
X111909597Y-84647279D01*
X111999010Y-84653140D01*
X112296651Y-84613955D01*
X112381500Y-84585152D01*
X112469381Y-84567672D01*
X112746739Y-84452786D01*
X112821236Y-84403008D01*
X112901601Y-84363377D01*
X113139774Y-84180621D01*
X113198853Y-84113253D01*
X113266221Y-84054174D01*
X113448977Y-83816001D01*
X113488607Y-83735638D01*
X113538386Y-83661139D01*
X113653272Y-83383782D01*
X113670752Y-83295901D01*
X113699555Y-83211052D01*
X113738740Y-82913410D01*
X113732879Y-82824000D01*
X113738740Y-82734590D01*
X113699555Y-82436948D01*
X113670752Y-82352099D01*
X113653272Y-82264218D01*
X113538386Y-81986861D01*
X113488607Y-81912362D01*
X113448977Y-81831999D01*
X113266221Y-81593826D01*
X113198853Y-81534747D01*
X113139774Y-81467379D01*
X112901601Y-81284623D01*
X112821236Y-81244992D01*
X112746739Y-81195214D01*
X112469381Y-81080328D01*
X112381500Y-81062848D01*
X112296651Y-81034045D01*
X111999010Y-80994860D01*
X111909597Y-81000721D01*
X111820190Y-80994860D01*
X111522548Y-81034045D01*
X111437699Y-81062848D01*
X111349818Y-81080328D01*
X111072461Y-81195214D01*
X110997962Y-81244993D01*
X110917599Y-81284623D01*
X110679426Y-81467379D01*
X110620347Y-81534747D01*
X110552979Y-81593826D01*
X110370223Y-81831999D01*
X110330592Y-81912364D01*
X110280814Y-81986861D01*
X110165928Y-82264219D01*
X110148448Y-82352100D01*
X110119645Y-82436949D01*
X110080460Y-82734590D01*
X109275095Y-82734590D01*
X109274989Y-81201702D01*
X109290038Y-81133819D01*
X109324518Y-81024466D01*
X109368397Y-80918531D01*
X109421341Y-80816829D01*
X109482950Y-80720121D01*
X109552754Y-80629151D01*
X109630216Y-80544616D01*
X109714751Y-80467154D01*
X109805721Y-80397350D01*
X109902429Y-80335741D01*
X110004131Y-80282797D01*
X110110072Y-80238916D01*
X110219417Y-80204439D01*
X110331371Y-80179619D01*
X110445044Y-80164655D01*
X110574549Y-80159000D01*
X122862904Y-80159000D01*
X122600088Y-80267593D01*
G36*
X133879635Y-88551430D02*
X135214000Y-89885795D01*
X136548365Y-88551430D01*
X136486395Y-88427800D01*
X138110370Y-88427800D01*
X138172300Y-88489731D01*
X138172300Y-90059017D01*
X138105760Y-90125441D01*
X137956570Y-90484730D01*
X137956231Y-90873763D01*
X138104793Y-91233312D01*
X138222021Y-91350744D01*
X137918552Y-91366170D01*
X137540077Y-91522940D01*
X137472088Y-91763883D01*
X138264000Y-92555795D01*
X138278143Y-92541653D01*
X138457748Y-92721258D01*
X138443605Y-92735400D01*
X138457748Y-92749543D01*
X138278143Y-92929148D01*
X138264000Y-92915005D01*
X138249858Y-92929148D01*
X138070253Y-92749543D01*
X138084395Y-92735400D01*
X137292483Y-91943488D01*
X137051540Y-92011477D01*
X136866799Y-92530571D01*
X136894770Y-93080848D01*
X137032601Y-93413600D01*
X133906712Y-93413600D01*
X133906869Y-93233637D01*
X133758307Y-92874088D01*
X133690800Y-92806463D01*
X133690800Y-91617180D01*
X133766314Y-91692694D01*
X133879636Y-91579372D01*
X134039418Y-91898139D01*
X134830187Y-92208123D01*
X135679387Y-92191897D01*
X136388582Y-91898139D01*
X136548365Y-91579370D01*
X135214000Y-90245005D01*
X135199858Y-90259148D01*
X135020253Y-90079543D01*
X135034395Y-90065400D01*
X135393605Y-90065400D01*
X136727970Y-91399765D01*
X137046739Y-91239982D01*
X137356723Y-90449213D01*
X137340497Y-89600013D01*
X137046739Y-88890818D01*
X136727970Y-88731035D01*
X135393605Y-90065400D01*
X135034395Y-90065400D01*
X133700030Y-88731035D01*
X133381261Y-88890818D01*
X133337467Y-89002536D01*
X132762731Y-88427800D01*
X133941605Y-88427800D01*
X133879635Y-88551430D01*
X133879635Y-88551430D01*
G37*
X133879635Y-88551430D02*
X135214000Y-89885795D01*
X136548365Y-88551430D01*
X136486395Y-88427800D01*
X138110370Y-88427800D01*
X138172300Y-88489731D01*
X138172300Y-90059017D01*
X138105760Y-90125441D01*
X137956570Y-90484730D01*
X137956231Y-90873763D01*
X138104793Y-91233312D01*
X138222021Y-91350744D01*
X137918552Y-91366170D01*
X137540077Y-91522940D01*
X137472088Y-91763883D01*
X138264000Y-92555795D01*
X138278143Y-92541653D01*
X138457748Y-92721258D01*
X138443605Y-92735400D01*
X138457748Y-92749543D01*
X138278143Y-92929148D01*
X138264000Y-92915005D01*
X138249858Y-92929148D01*
X138070253Y-92749543D01*
X138084395Y-92735400D01*
X137292483Y-91943488D01*
X137051540Y-92011477D01*
X136866799Y-92530571D01*
X136894770Y-93080848D01*
X137032601Y-93413600D01*
X133906712Y-93413600D01*
X133906869Y-93233637D01*
X133758307Y-92874088D01*
X133690800Y-92806463D01*
X133690800Y-91617180D01*
X133766314Y-91692694D01*
X133879636Y-91579372D01*
X134039418Y-91898139D01*
X134830187Y-92208123D01*
X135679387Y-92191897D01*
X136388582Y-91898139D01*
X136548365Y-91579370D01*
X135214000Y-90245005D01*
X135199858Y-90259148D01*
X135020253Y-90079543D01*
X135034395Y-90065400D01*
X135393605Y-90065400D01*
X136727970Y-91399765D01*
X137046739Y-91239982D01*
X137356723Y-90449213D01*
X137340497Y-89600013D01*
X137046739Y-88890818D01*
X136727970Y-88731035D01*
X135393605Y-90065400D01*
X135034395Y-90065400D01*
X133700030Y-88731035D01*
X133381261Y-88890818D01*
X133337467Y-89002536D01*
X132762731Y-88427800D01*
X133941605Y-88427800D01*
X133879635Y-88551430D01*
G36*
X147101261Y-88890818D02*
X146791277Y-89681587D01*
X146807503Y-90530787D01*
X147101261Y-91239982D01*
X147420030Y-91399765D01*
X148754395Y-90065400D01*
X148740253Y-90051258D01*
X148919858Y-89871653D01*
X148934000Y-89885795D01*
X148948143Y-89871653D01*
X149127748Y-90051258D01*
X149113605Y-90065400D01*
X150447970Y-91399765D01*
X150766739Y-91239982D01*
X151076723Y-90449213D01*
X151060497Y-89600013D01*
X150766739Y-88890818D01*
X150751940Y-88883400D01*
X151803256Y-88883400D01*
X151512277Y-89625687D01*
X151528503Y-90474887D01*
X151822261Y-91184082D01*
X152141030Y-91343865D01*
X153475395Y-90009500D01*
X153461253Y-89995358D01*
X153640858Y-89815753D01*
X153655000Y-89829895D01*
X153669143Y-89815753D01*
X153848748Y-89995358D01*
X153834605Y-90009500D01*
X153848748Y-90023643D01*
X153669143Y-90203248D01*
X153655000Y-90189105D01*
X152320635Y-91523470D01*
X152480418Y-91842239D01*
X152718072Y-91935400D01*
X150018626Y-91935400D01*
X150108582Y-91898139D01*
X150268365Y-91579370D01*
X148934000Y-90245005D01*
X147599635Y-91579370D01*
X147759418Y-91898139D01*
X147854471Y-91935400D01*
X146532375Y-91935400D01*
X146159564Y-91561939D01*
X145650702Y-91350641D01*
X145120148Y-91350178D01*
X144747785Y-90977815D01*
X144488247Y-90804396D01*
X144182100Y-90743500D01*
X140282400Y-90743500D01*
X139976253Y-90804396D01*
X139912055Y-90847292D01*
X139912369Y-90486437D01*
X139763807Y-90126888D01*
X139696300Y-90059263D01*
X139696300Y-88883400D01*
X147116060Y-88883400D01*
X147101261Y-88890818D01*
X147101261Y-88890818D01*
G37*
X147101261Y-88890818D02*
X146791277Y-89681587D01*
X146807503Y-90530787D01*
X147101261Y-91239982D01*
X147420030Y-91399765D01*
X148754395Y-90065400D01*
X148740253Y-90051258D01*
X148919858Y-89871653D01*
X148934000Y-89885795D01*
X148948143Y-89871653D01*
X149127748Y-90051258D01*
X149113605Y-90065400D01*
X150447970Y-91399765D01*
X150766739Y-91239982D01*
X151076723Y-90449213D01*
X151060497Y-89600013D01*
X150766739Y-88890818D01*
X150751940Y-88883400D01*
X151803256Y-88883400D01*
X151512277Y-89625687D01*
X151528503Y-90474887D01*
X151822261Y-91184082D01*
X152141030Y-91343865D01*
X153475395Y-90009500D01*
X153461253Y-89995358D01*
X153640858Y-89815753D01*
X153655000Y-89829895D01*
X153669143Y-89815753D01*
X153848748Y-89995358D01*
X153834605Y-90009500D01*
X153848748Y-90023643D01*
X153669143Y-90203248D01*
X153655000Y-90189105D01*
X152320635Y-91523470D01*
X152480418Y-91842239D01*
X152718072Y-91935400D01*
X150018626Y-91935400D01*
X150108582Y-91898139D01*
X150268365Y-91579370D01*
X148934000Y-90245005D01*
X147599635Y-91579370D01*
X147759418Y-91898139D01*
X147854471Y-91935400D01*
X146532375Y-91935400D01*
X146159564Y-91561939D01*
X145650702Y-91350641D01*
X145120148Y-91350178D01*
X144747785Y-90977815D01*
X144488247Y-90804396D01*
X144182100Y-90743500D01*
X140282400Y-90743500D01*
X139976253Y-90804396D01*
X139912055Y-90847292D01*
X139912369Y-90486437D01*
X139763807Y-90126888D01*
X139696300Y-90059263D01*
X139696300Y-88883400D01*
X147116060Y-88883400D01*
X147101261Y-88890818D01*
M02*
